<?xml version="1.0" encoding="UTF-8" standalone="no"?>
<!-- Created with Inkscape (http://www.inkscape.org/) -->

<svg
   xmlns:osb="http://www.openswatchbook.org/uri/2009/osb"
   xmlns:dc="http://purl.org/dc/elements/1.1/"
   xmlns:cc="http://creativecommons.org/ns#"
   xmlns:rdf="http://www.w3.org/1999/02/22-rdf-syntax-ns#"
   xmlns:svg="http://www.w3.org/2000/svg"
   xmlns="http://www.w3.org/2000/svg"
   xmlns:sodipodi="http://sodipodi.sourceforge.net/DTD/sodipodi-0.dtd"
   xmlns:inkscape="http://www.inkscape.org/namespaces/inkscape"
   width="640"
   height="480"
   viewBox="0 0 169.33333 127"
   version="1.1"
   id="svg1038"
   inkscape:version="0.92.2 (5c3e80d, 2017-08-06)"
   sodipodi:docname="splash.svg">
  <defs
     id="defs1032">
    <linearGradient
       id="linearGradient1653"
       osb:paint="solid">
      <stop
         style="stop-color:#66aece;stop-opacity:1;"
         offset="0"
         id="stop1651" />
    </linearGradient>
    <clipPath
       id="clipPath20"
       clipPathUnits="userSpaceOnUse">
      <path
         inkscape:connector-curvature="0"
         id="path18"
         d="M 814.336,1699.34 C 585.703,1713.44 379.473,1624.11 201.387,1433.77 -30.4688,1185.96 -26.0742,1012.4 37.1875,701.582 78.6641,497.91 199.582,301.25 368.938,162.031 565.801,0.242188 797.129,-41.4063 1037.85,41.6797 1303.14,133.25 1556.91,395.41 1655,679.199 c 106.83,309.317 24.74,589.711 -225.29,769.241 -215.25,154.59 -422.27,238.99 -615.374,250.9" />
    </clipPath>
    <radialGradient
       id="radialGradient26"
       spreadMethod="pad"
       gradientTransform="matrix(-799.245,-716.764,-716.764,799.245,1043.85,1048.93)"
       gradientUnits="userSpaceOnUse"
       r="1"
       cy="0"
       cx="0"
       fy="0"
       fx="0">
      <stop
         id="stop22"
         offset="0"
         style="stop-opacity:1;stop-color:#486492" />
      <stop
         id="stop24"
         offset="1"
         style="stop-opacity:1;stop-color:#132746" />
    </radialGradient>
    <clipPath
       id="clipPath20-2"
       clipPathUnits="userSpaceOnUse">
      <path
         inkscape:connector-curvature="0"
         id="path18-7"
         d="M 0,0 H 1701 V 1701 H 0 Z" />
    </clipPath>
    <clipPath
       id="clipPath26"
       clipPathUnits="userSpaceOnUse">
      <path
         inkscape:connector-curvature="0"
         id="path24"
         d="m 814.332,1699.35 c -15.301,0.94 -30.492,1.43 -45.594,1.44 -210.511,0.24 -401.183,-89.41 -567.347,-267.01 C 50.332,1272.32 -0.445313,1142.39 0.00390625,985.484 0.242188,901.555 15.1406,809.902 37.1914,701.582 78.6563,497.898 199.574,301.25 368.93,162.023 498.613,55.4609 643.227,1.01563 795.641,0.0117188 874.613,-0.519531 955.68,13.3125 1037.85,41.6719 1303.13,133.242 1556.9,395.41 1655,679.199 c 31.02,89.824 46.11,177.211 45.78,260.406 -0.8,203.265 -93.65,381.445 -271.09,508.835 -215.23,154.59 -422.25,238.99 -615.358,250.91" />
    </clipPath>
    <radialGradient
       id="radialGradient32"
       spreadMethod="pad"
       gradientTransform="matrix(-799.25,-716.769,-716.769,799.25,1043.85,1048.93)"
       gradientUnits="userSpaceOnUse"
       r="1"
       cy="0"
       cx="0"
       fy="0"
       fx="0">
      <stop
         id="stop28"
         offset="0"
         style="stop-opacity:1;stop-color:#486492" />
      <stop
         id="stop30"
         offset="1"
         style="stop-opacity:1;stop-color:#132746" />
    </radialGradient>
  </defs>
  <sodipodi:namedview
     id="base"
     pagecolor="#ffffff"
     bordercolor="#666666"
     borderopacity="1.0"
     inkscape:pageopacity="0.0"
     inkscape:pageshadow="2"
     inkscape:zoom="0.98994949"
     inkscape:cx="56.284366"
     inkscape:cy="303.80099"
     inkscape:document-units="mm"
     inkscape:current-layer="layer1"
     showgrid="false"
     units="px"
     inkscape:window-width="1920"
     inkscape:window-height="1018"
     inkscape:window-x="-8"
     inkscape:window-y="-8"
     inkscape:window-maximized="1"
     inkscape:pagecheckerboard="true" />
  <metadata
     id="metadata1035">
    <rdf:RDF>
      <cc:Work
         rdf:about="">
        <dc:format>image/svg+xml</dc:format>
        <dc:type
           rdf:resource="http://purl.org/dc/dcmitype/StillImage" />
        <dc:title></dc:title>
        <cc:license
           rdf:resource="http://creativecommons.org/licenses/by-sa/4.0/" />
      </cc:Work>
      <cc:License
         rdf:about="http://creativecommons.org/licenses/by-sa/4.0/">
        <cc:permits
           rdf:resource="http://creativecommons.org/ns#Reproduction" />
        <cc:permits
           rdf:resource="http://creativecommons.org/ns#Distribution" />
        <cc:requires
           rdf:resource="http://creativecommons.org/ns#Notice" />
        <cc:requires
           rdf:resource="http://creativecommons.org/ns#Attribution" />
        <cc:permits
           rdf:resource="http://creativecommons.org/ns#DerivativeWorks" />
        <cc:requires
           rdf:resource="http://creativecommons.org/ns#ShareAlike" />
      </cc:License>
    </rdf:RDF>
  </metadata>
  <g
     inkscape:label="Calque 1"
     inkscape:groupmode="layer"
     id="layer1"
     transform="translate(0,-169.99998)">
    <path
       style="fill:#ffffff;fill-opacity:1;stroke:#000000;stroke-width:0.26410189;stroke-miterlimit:1.60000002;stroke-dasharray:none;stroke-opacity:1"
       d="M 4.3994686,170.13203 H 164.93386 c 2.36415,0 4.26742,1.90327 4.26742,4.26742 v 118.20107 c 0,2.36415 -1.90327,4.26742 -4.26742,4.26742 H 4.3994686 c -2.3641487,0 -4.26741649,-1.90327 -4.26741649,-4.26742 V 174.39945 c 0,-2.36415 1.90326779,-4.26742 4.26741649,-4.26742 z"
       id="rect1649" />
    <g
       style="fill:none;fill-rule:evenodd;stroke:#000000;stroke-width:1;stroke-linecap:square;stroke-linejoin:bevel"
       id="g874"
       transform="matrix(0.16955081,0,0,0.16955081,-16.306706,204.25317)">
      <g
         id="g1236"
         font-style="normal"
         font-weight="400"
         font-size="8.25"
         transform="matrix(1.1638308,0,0,1.4874075,-514.18854,-2316.499)"
         style="font-style:normal;font-weight:400;font-size:8.25px;font-family:'MS Shell Dlg 2';fill:none;stroke:#808080;stroke-width:14;stroke-linecap:square;stroke-linejoin:bevel;stroke-opacity:1">
        <path
           id="path1234"
           d="m 675.074,1642.96 10.14,34.7"
           inkscape:connector-curvature="0"
           style="vector-effect:none;fill-rule:evenodd" />
      </g>
      <g
         id="g1732"
         font-style="normal"
         font-weight="400"
         font-size="8.25"
         transform="matrix(1.0845446,0,0,1.2004944,-455.81137,-1826.4099)"
         style="font-style:normal;font-weight:400;font-size:8.25px;font-family:'MS Shell Dlg 2';fill:none;stroke:#808080;stroke-width:12;stroke-linecap:square;stroke-linejoin:bevel;stroke-opacity:1">
        <path
           id="path1730"
           d="m 790.962,1536.9 -3.391,51"
           inkscape:connector-curvature="0"
           style="vector-effect:none;fill-rule:evenodd" />
      </g>
      <g
         id="g1796"
         font-style="normal"
         font-weight="400"
         font-size="8.25"
         transform="matrix(1.2317717,0,0,1.2763215,-574.72674,-1931.0577)"
         style="font-style:normal;font-weight:400;font-size:8.25px;font-family:'MS Shell Dlg 2';fill:none;stroke:#808080;stroke-width:12;stroke-linecap:square;stroke-linejoin:bevel;stroke-opacity:1">
        <path
           id="path1794"
           d="m 806.587,1467.5 16.222,-41.03"
           inkscape:connector-curvature="0"
           style="vector-effect:none;fill-rule:evenodd" />
      </g>
      <g
         id="g2028"
         font-style="normal"
         font-weight="400"
         font-size="8.25"
         transform="matrix(1.239496,0,0,1.2266585,-571.26932,-1868.8521)"
         style="font-style:normal;font-weight:400;font-size:8.25px;font-family:'MS Shell Dlg 2';fill:none;stroke:#808080;stroke-width:11;stroke-linecap:square;stroke-linejoin:bevel;stroke-opacity:1">
        <path
           id="path2026"
           d="m 692.585,1585.3 73.158,-61.22"
           inkscape:connector-curvature="0"
           style="vector-effect:none;fill-rule:evenodd" />
      </g>
      <g
         id="g2108"
         font-style="normal"
         font-weight="400"
         font-size="8.25"
         transform="matrix(1.4033231,0,0,1.3316151,-662.50381,-2039.2733)"
         style="font-style:normal;font-weight:400;font-size:8.25px;font-family:'MS Shell Dlg 2';fill:none;stroke:#808080;stroke-width:11;stroke-linecap:square;stroke-linejoin:bevel;stroke-opacity:1">
        <path
           id="path2106"
           d="m 632.772,1592.32 -32.311,-16.14"
           inkscape:connector-curvature="0"
           style="vector-effect:none;fill-rule:evenodd" />
      </g>
      <g
         id="g2476"
         font-style="normal"
         font-weight="400"
         font-size="8.25"
         transform="matrix(1.378301,0,0,1.3144247,-646.30831,-2021.3776)"
         style="font-style:normal;font-weight:400;font-size:8.25px;font-family:'MS Shell Dlg 2';fill:none;stroke:#808080;stroke-width:10;stroke-linecap:square;stroke-linejoin:bevel;stroke-opacity:1">
        <path
           id="path2474"
           d="m 637.348,1631.49 -30.721,25.66"
           inkscape:connector-curvature="0"
           style="vector-effect:none;fill-rule:evenodd" />
      </g>
      <g
         id="g2740"
         font-style="normal"
         font-weight="400"
         font-size="8.25"
         transform="matrix(1.2839611,0,0,1.2936898,-620.60099,-1971.3506)"
         style="font-style:normal;font-weight:400;font-size:8.25px;font-family:'MS Shell Dlg 2';fill:none;stroke:#808080;stroke-width:9;stroke-linecap:square;stroke-linejoin:bevel;stroke-opacity:1">
        <path
           id="path2738"
           d="m 817.765,1527.43 26.352,28.56"
           inkscape:connector-curvature="0"
           style="vector-effect:none;fill-rule:evenodd" />
      </g>
      <g
         id="g2916"
         font-style="normal"
         font-weight="400"
         font-size="8.25"
         transform="matrix(1.3844953,0,0,1.3387518,-685.12791,-2021.8962)"
         style="font-style:normal;font-weight:400;font-size:8.25px;font-family:'MS Shell Dlg 2';fill:none;stroke:#808080;stroke-width:8;stroke-linecap:square;stroke-linejoin:bevel;stroke-opacity:1">
        <path
           id="path2914"
           d="m 771.53,1472.34 -23.513,-30.85"
           inkscape:connector-curvature="0"
           style="vector-effect:none;fill-rule:evenodd" />
      </g>
      <g
         id="g3148"
         font-style="normal"
         font-weight="400"
         font-size="8.25"
         transform="matrix(1.4831814,0,0,1.0693516,-790.2908,-1627.7792)"
         style="font-style:normal;font-weight:400;font-size:8.25px;font-family:'MS Shell Dlg 2';fill:none;stroke:#808080;stroke-width:7;stroke-linecap:square;stroke-linejoin:bevel;stroke-opacity:1">
        <path
           id="path3146"
           d="m 828.618,1493.75 43.218,-8.85"
           inkscape:connector-curvature="0"
           style="vector-effect:none;fill-rule:evenodd" />
      </g>
      <g
         id="g3172"
         font-style="normal"
         font-weight="400"
         font-size="8.25"
         transform="matrix(1.2996965,0,0,1.2978454,-615.73159,-1990.6225)"
         style="font-style:normal;font-weight:400;font-size:8.25px;font-family:'MS Shell Dlg 2';fill:none;stroke:#808080;stroke-width:7;stroke-linecap:square;stroke-linejoin:bevel;stroke-opacity:1">
        <path
           id="path3170"
           d="m 700.685,1612.99 48.79,6.26"
           inkscape:connector-curvature="0"
           style="vector-effect:none;fill-rule:evenodd" />
      </g>
      <circle
         r="34.02161"
         cy="98.833313"
         cx="260.66736"
         id="path9569-5-3"
         style="fill:#0000ff;fill-opacity:1;fill-rule:evenodd;stroke:none;stroke-width:19.87858391;stroke-linecap:round;stroke-linejoin:bevel;stroke-miterlimit:4;stroke-dasharray:none;paint-order:normal" />
      <circle
         r="34.02161"
         cy="-21.611084"
         cx="404.57483"
         id="path9569-5-7"
         style="fill:#0000ff;fill-opacity:1;fill-rule:evenodd;stroke:none;stroke-width:19.87858391;stroke-linecap:round;stroke-linejoin:bevel;stroke-miterlimit:4;stroke-dasharray:none;paint-order:normal" />
      <circle
         r="34.02161"
         cy="117.99487"
         cx="394.79858"
         id="path9569"
         style="fill:#ffff00;fill-opacity:1;stroke:none;stroke-width:19.87858391;stroke-linecap:round;stroke-miterlimit:4;stroke-dasharray:none;paint-order:normal" />
      <circle
         r="34.02161"
         cy="69.895393"
         cx="489.04236"
         id="path9569-5"
         style="fill:#0000ff;fill-opacity:1;fill-rule:evenodd;stroke:none;stroke-width:19.87858391;stroke-linecap:round;stroke-linejoin:bevel;stroke-miterlimit:4;stroke-dasharray:none;paint-order:normal" />
      <circle
         r="34.02161"
         cy="-47.420517"
         cx="532.84033"
         id="path9569-5-0"
         style="fill:#0000ff;fill-opacity:1;fill-rule:evenodd;stroke:none;stroke-width:19.87858391;stroke-linecap:round;stroke-linejoin:bevel;stroke-miterlimit:4;stroke-dasharray:none;paint-order:normal" />
      <circle
         r="34.02161"
         cy="-146.748"
         cx="453.06558"
         id="path9569-5-6"
         style="fill:#0000ff;fill-opacity:1;fill-rule:evenodd;stroke:none;stroke-width:19.87858391;stroke-linecap:round;stroke-linejoin:bevel;stroke-miterlimit:4;stroke-dasharray:none;paint-order:normal" />
      <circle
         r="34.02161"
         cy="-121.72052"
         cx="330.27484"
         id="path9569-5-2"
         style="fill:#0000ff;fill-opacity:1;fill-rule:evenodd;stroke:none;stroke-width:19.87858391;stroke-linecap:round;stroke-linejoin:bevel;stroke-miterlimit:4;stroke-dasharray:none;paint-order:normal" />
      <circle
         r="34.02161"
         cy="218.49553"
         cx="295.08014"
         id="path9569-5-1"
         style="fill:#0000ff;fill-opacity:1;fill-rule:evenodd;stroke:none;stroke-width:19.87858391;stroke-linecap:round;stroke-linejoin:bevel;stroke-miterlimit:4;stroke-dasharray:none;paint-order:normal" />
      <circle
         r="34.02161"
         cy="180.17229"
         cx="161.34003"
         id="path9569-5-8"
         style="fill:#0000ff;fill-opacity:1;fill-rule:evenodd;stroke:none;stroke-width:19.87858391;stroke-linecap:round;stroke-linejoin:bevel;stroke-miterlimit:4;stroke-dasharray:none;paint-order:normal" />
      <circle
         r="34.02161"
         cy="42.521698"
         cx="148.82622"
         id="path9569-5-25"
         style="fill:#0000ff;fill-opacity:1;fill-rule:evenodd;stroke:none;stroke-width:19.87858391;stroke-linecap:round;stroke-linejoin:bevel;stroke-miterlimit:4;stroke-dasharray:none;paint-order:normal" />
    </g>
    <g
       aria-label="HDiSpeC"
       style="font-style:normal;font-weight:normal;font-size:20.30301285px;line-height:125%;font-family:sans-serif;letter-spacing:0px;word-spacing:0px;fill:#000000;fill-opacity:1;stroke:none;stroke-width:0.50757527px;stroke-linecap:butt;stroke-linejoin:miter;stroke-opacity:1"
       id="text848"
       transform="translate(0,3.1750001)">
      <path
         d="m 83.757158,234.87973 h -2.456665 v -5.4412 h -2.96424 v 14.2121 h 2.96424 v -6.15181 h 2.456665 z m 0.60909,2.61909 h 2.476968 v 6.15181 h 2.96424 v -14.2121 h -2.96424 v 5.4412 h -2.476968 z"
         style="font-style:normal;font-variant:normal;font-weight:normal;font-stretch:normal;font-family:'Standard CT Stencil';-inkscape-font-specification:'Standard CT Stencil';stroke-width:0.50757527px"
         id="path855"
         inkscape:connector-curvature="0" />
      <path
         d="m 95.21916,229.43853 h -2.96424 v 14.2121 h 2.96424 z m 0.60909,14.2121 h 1.583635 c 3.512425,0 6.679695,-1.94908 6.679695,-7.28878 0,-2.49727 -1.15728,-4.60878 -2.59879,-5.68484 -1.19788,-0.89333 -2.598785,-1.23848 -4.283935,-1.23848 H 95.82825 v 2.59878 h 1.07606 c 2.984543,0 4.22303,1.80697 4.22303,4.34485 0,3.99969 -2.070911,4.62908 -3.877879,4.62908 H 95.82825 Z"
         style="font-style:normal;font-variant:normal;font-weight:normal;font-stretch:normal;font-family:'Standard CT Stencil';-inkscape-font-specification:'Standard CT Stencil';stroke-width:0.50757527px"
         id="path857"
         inkscape:connector-curvature="0" />
      <path
         d="m 108.45323,231.9561 v -2.51757 h -2.7206 v 2.51757 z m 0,11.69453 v -10.47635 h -2.7206 v 10.47635 z"
         style="font-style:normal;font-variant:normal;font-weight:normal;font-stretch:normal;font-family:'Standard CT Stencil';-inkscape-font-specification:'Standard CT Stencil';stroke-width:0.50757527px"
         id="path859"
         inkscape:connector-curvature="0" />
      <path
         d="m 116.56175,231.65155 c 1.84757,0.20303 2.63939,1.38061 3.00485,1.9694 l 2.49727,-1.52273 c -0.75122,-1.29939 -2.43637,-2.86272 -5.50212,-3.02515 z m -0.60909,9.68454 c -2.0303,-0.22333 -2.96424,-1.58363 -3.41091,-2.27394 l -2.55818,1.54303 c 1.09637,1.92879 3.20788,3.30939 5.96909,3.41091 z m 0.60909,2.68 c 3.93878,-0.0812 5.76606,-2.29424 5.76606,-4.69 0,-2.57848 -1.76637,-3.85757 -4.20273,-4.22302 l -2.53788,-0.38576 c -0.66999,-0.10152 -1.94908,-0.34515 -1.94908,-1.54303 0,-0.77151 0.75121,-1.52273 2.31454,-1.54303 v -2.55818 c -2.45667,0.0406 -5.36,1.27909 -5.36,4.56818 0,2.55818 2.15212,3.61394 3.77636,3.87787 l 2.84243,0.44667 c 1.03545,0.16243 2.0303,0.56849 2.0303,1.68515 0,1.23849 -1.58364,1.68515 -2.68,1.68515 z"
         style="font-style:normal;font-variant:normal;font-weight:normal;font-stretch:normal;font-family:'Standard CT Stencil';-inkscape-font-specification:'Standard CT Stencil';stroke-width:0.50757527px"
         id="path861"
         inkscape:connector-curvature="0" />
      <path
         d="m 126.65457,233.17428 h -2.7206 v 13.37969 h 2.7206 z m 0.60909,2.74091 c 0.34515,-0.40606 0.85273,-0.6497 1.48212,-0.6497 1.27909,0 2.23333,0.99485 2.23333,3.06576 0,2.09121 -1.01515,2.98454 -2.27394,2.98454 -0.67,0 -1.13696,-0.26394 -1.44151,-0.60909 v 2.49727 c 0.58879,0.32485 1.19788,0.50757 1.9897,0.50757 2.27393,0 4.46666,-1.52272 4.46666,-5.35999 0,-3.41091 -1.74606,-5.3803 -4.38545,-5.3803 -0.99485,0 -1.62424,0.26394 -2.07091,0.54818 z"
         style="font-style:normal;font-variant:normal;font-weight:normal;font-stretch:normal;font-family:'Standard CT Stencil';-inkscape-font-specification:'Standard CT Stencil';stroke-width:0.50757527px"
         id="path863"
         inkscape:connector-curvature="0" />
      <path
         d="m 140.28804,243.89427 c 2.47697,-0.10151 3.73576,-1.40091 4.44636,-2.57848 l -2.23333,-1.3197 c -0.38576,0.79182 -0.85273,1.48212 -2.21303,1.56333 z m -1.88818,-6.80151 c -0.10151,0.34515 -0.14212,0.75121 -0.14212,1.17758 0,0.28424 0,0.54818 0.0406,0.79181 h 6.47666 c 0,-1.29939 -0.24364,-2.78151 -0.93394,-3.93878 -0.71061,-1.17758 -1.88818,-2.0506 -3.55303,-2.15212 v 2.33485 c 1.11667,0.22333 1.44152,1.19787 1.52273,1.78666 z m -0.75121,1.17758 c 0,-1.48212 0.48727,-2.90333 2.0303,-2.96424 v -2.33485 c -2.11151,0.12182 -4.7306,1.48212 -4.7306,5.64424 0,3.79666 2.92363,5.13666 4.7306,5.27878 v -2.33485 c -1.64454,-0.32484 -2.0303,-1.88818 -2.0303,-3.28908 z"
         style="font-style:normal;font-variant:normal;font-weight:normal;font-stretch:normal;font-family:'Standard CT Stencil';-inkscape-font-specification:'Standard CT Stencil';stroke-width:0.50757527px"
         id="path865"
         inkscape:connector-curvature="0" />
      <path
         d="m 153.07736,231.81398 c 1.62424,0.14212 2.65969,1.3806 3.00484,2.49727 l 2.68,-1.23848 c -0.93394,-2.07091 -2.55818,-3.87788 -5.68484,-3.9997 z m 0,12.20211 c 3.32969,-0.12182 5.09605,-2.25364 5.92848,-4.16212 l -2.80182,-1.31969 c -0.50758,1.58363 -1.62424,2.61908 -3.12666,2.7409 z m -0.60909,-2.74091 c -2.21303,-0.18272 -3.3703,-2.25363 -3.3703,-4.7509 0,-2.90333 1.44151,-4.54788 3.3703,-4.7103 v -2.74091 c -2.82212,0.12182 -6.45636,1.9897 -6.45636,7.47151 0,4.12151 2.37545,7.32939 6.45636,7.47151 z"
         style="font-style:normal;font-variant:normal;font-weight:normal;font-stretch:normal;font-family:'Standard CT Stencil';-inkscape-font-specification:'Standard CT Stencil';stroke-width:0.50757527px"
         id="path867"
         inkscape:connector-curvature="0" />
    </g>
    <g
       aria-label="High Dimensional Spectral Comparison"
       style="font-style:normal;font-weight:normal;font-size:4.23333311px;line-height:125%;font-family:sans-serif;letter-spacing:0px;word-spacing:0px;fill:#000000;fill-opacity:1;stroke:none;stroke-width:0.26458332px;stroke-linecap:butt;stroke-linejoin:miter;stroke-opacity:1"
       id="text850"
       transform="translate(0,2.1166667)">
      <path
         d="m 80.388111,248.75357 -0.709001,3.07785 h -0.409277 l 0.349332,-1.51308 h -1.535823 l -0.349333,1.51308 h -0.409277 l 0.709001,-3.07785 h 0.409277 l -0.279053,1.2175 h 1.535824 l 0.279052,-1.2175 z"
         style="font-style:italic;font-variant:normal;font-weight:normal;font-stretch:normal;font-family:sans-serif;-inkscape-font-specification:'sans-serif Italic';fill:#0000ff"
         id="path870"
         inkscape:connector-curvature="0" />
      <path
         d="m 81.609741,248.7329 -0.09302,0.40308 h -0.438216 l 0.09302,-0.40308 z m -0.206705,0.78962 -0.533301,2.3089 h -0.388607 l 0.533301,-2.3089 z"
         style="font-style:italic;font-variant:normal;font-weight:normal;font-stretch:normal;font-size:4.23333311px;font-family:sans-serif;-inkscape-font-specification:'sans-serif Italic';stroke-width:0.26458332px"
         id="path872"
         inkscape:connector-curvature="0" />
      <path
         d="m 84.042668,249.52252 -0.469222,2.05259 q -0.136426,0.58704 -0.448552,0.85782 -0.310058,0.27286 -0.86403,0.27286 -0.177767,0 -0.359668,-0.0269 -0.179834,-0.0269 -0.330729,-0.0723 l 0.08888,-0.38654 h 0.02067 q 0.115756,0.0517 0.312126,0.0992 0.19637,0.0475 0.370003,0.0475 0.196371,0 0.332796,-0.0517 0.138493,-0.0496 0.227377,-0.13642 0.08682,-0.0868 0.14056,-0.20258 0.05581,-0.11368 0.08682,-0.25631 l 0.04754,-0.20257 q -0.208772,0.14056 -0.367936,0.21084 -0.159163,0.0682 -0.40721,0.0682 -0.33693,0 -0.5271,-0.20464 -0.190169,-0.2067 -0.190169,-0.58084 0,-0.29972 0.09715,-0.58084 0.09922,-0.28319 0.274918,-0.5023 0.171566,-0.21291 0.411345,-0.34106 0.241845,-0.12816 0.516764,-0.12816 0.198437,0 0.353467,0.0455 0.157096,0.0455 0.272851,0.11783 l 0.04754,-0.0992 z m -0.483692,0.41548 q -0.132291,-0.0682 -0.272851,-0.10542 -0.138493,-0.0393 -0.28112,-0.0393 -0.202572,0 -0.370003,0.093 -0.165365,0.0909 -0.285254,0.25425 -0.113688,0.15296 -0.177767,0.37 -0.06201,0.21498 -0.06201,0.42995 0,0.24391 0.111621,0.37827 0.111621,0.13229 0.357601,0.13229 0.171566,0 0.347266,-0.0723 0.1757,-0.0724 0.345198,-0.18191 z"
         style="font-style:italic;font-variant:normal;font-weight:normal;font-stretch:normal;font-size:4.23333311px;font-family:sans-serif;-inkscape-font-specification:'sans-serif Italic';stroke-width:0.26458332px"
         id="path874"
         inkscape:connector-curvature="0" />
      <path
         d="m 86.585148,250.04962 q 0,0.0496 -0.01033,0.13436 -0.0083,0.0848 -0.02481,0.14882 l -0.347266,1.49862 h -0.388606 l 0.303857,-1.31465 q 0.02481,-0.10955 0.03721,-0.19017 0.01447,-0.0827 0.01447,-0.16329 0,-0.17364 -0.08682,-0.26045 -0.08475,-0.0889 -0.307991,-0.0889 -0.157097,0 -0.347266,0.0868 -0.188102,0.0868 -0.367936,0.20671 l -0.398942,1.72392 h -0.388607 l 0.742074,-3.21634 h 0.388606 l -0.268717,1.16375 q 0.221175,-0.15503 0.413411,-0.23771 0.194304,-0.0827 0.398942,-0.0827 0.301791,0 0.469222,0.15296 0.169499,0.1509 0.169499,0.43822 z"
         style="font-style:italic;font-variant:normal;font-weight:normal;font-stretch:normal;font-size:4.23333311px;font-family:sans-serif;-inkscape-font-specification:'sans-serif Italic';stroke-width:0.26458332px"
         id="path876"
         inkscape:connector-curvature="0" />
      <path
         d="m 91.463403,249.93386 q 0,0.50436 -0.256315,0.95498 -0.256315,0.45062 -0.700732,0.6966 -0.272852,0.14676 -0.558106,0.19637 -0.285253,0.0496 -0.646988,0.0496 h -0.830957 l 0.711067,-3.07785 h 0.715202 q 0.334863,0 0.609782,0.0476 0.276986,0.0455 0.506429,0.19843 0.219108,0.14676 0.334863,0.38448 0.115755,0.23564 0.115755,0.54983 z m -0.432015,0.0351 q 0,-0.23564 -0.08475,-0.40514 -0.08268,-0.17157 -0.252181,-0.28525 -0.167431,-0.11163 -0.357601,-0.14883 -0.190169,-0.0393 -0.481624,-0.0393 h -0.341065 l -0.558105,2.40399 h 0.427881 q 0.295589,0 0.527099,-0.0475 0.233578,-0.0496 0.440284,-0.16743 0.332796,-0.19017 0.506429,-0.54777 0.173632,-0.35967 0.173632,-0.76275 z"
         style="font-style:italic;font-variant:normal;font-weight:normal;font-stretch:normal;font-family:sans-serif;-inkscape-font-specification:'sans-serif Italic';fill:#0000ff"
         id="path878"
         inkscape:connector-curvature="0" />
      <path
         d="m 92.813191,248.7329 -0.09302,0.40308 h -0.438216 l 0.09302,-0.40308 z m -0.206705,0.78962 -0.533301,2.3089 h -0.388607 l 0.533301,-2.3089 z"
         style="font-style:italic;font-variant:normal;font-weight:normal;font-stretch:normal;font-family:sans-serif;-inkscape-font-specification:'sans-serif Italic';fill:#0000ff"
         id="path880"
         inkscape:connector-curvature="0" />
      <path
         d="m 96.60004,250.03308 q 0,0.0682 -0.01034,0.1447 -0.0083,0.0765 -0.02687,0.15502 l -0.347266,1.49862 H 95.82696 l 0.303858,-1.31465 q 0.02481,-0.10955 0.03927,-0.20257 0.01654,-0.093 0.01654,-0.17363 0,-0.1571 -0.07855,-0.24185 -0.07855,-0.0847 -0.299723,-0.0847 -0.163298,0 -0.345199,0.0909 -0.181901,0.0909 -0.361735,0.21291 -0.0041,0.0517 -0.01447,0.11782 -0.0083,0.0661 -0.02067,0.11783 l -0.341064,1.47794 H 94.33661 l 0.303858,-1.31465 q 0.02687,-0.12816 0.04341,-0.20877 0.01654,-0.0827 0.01654,-0.16743 0,-0.1881 -0.103353,-0.25632 -0.103352,-0.0703 -0.279052,-0.0703 -0.124024,0 -0.276986,0.0641 -0.152962,0.062 -0.40721,0.22945 l -0.398942,1.72392 h -0.388607 l 0.533301,-2.3089 h 0.388607 l -0.05995,0.25631 q 0.217041,-0.15089 0.401009,-0.23564 0.186035,-0.0848 0.390674,-0.0848 0.233577,0 0.378271,0.0992 0.146761,0.0992 0.194304,0.27492 0.272851,-0.19844 0.489892,-0.28526 0.217041,-0.0889 0.427881,-0.0889 0.303857,0 0.45682,0.15089 0.152962,0.1509 0.152962,0.42375 z"
         style="font-style:italic;font-variant:normal;font-weight:normal;font-stretch:normal;font-size:4.23333311px;font-family:sans-serif;-inkscape-font-specification:'sans-serif Italic';stroke-width:0.26458332px"
         id="path882"
         inkscape:connector-curvature="0" />
      <path
         d="m 98.832462,250.42582 q 0.01033,-0.0599 0.01447,-0.10128 0.0041,-0.0413 0.0041,-0.091 0,-0.22118 -0.121957,-0.3452 -0.119889,-0.12403 -0.386539,-0.12403 -0.293522,0 -0.520899,0.1819 -0.227376,0.18191 -0.307991,0.47956 z m -0.777213,1.45934 q -0.479558,0 -0.752409,-0.2253 -0.272852,-0.22531 -0.272852,-0.6594 0,-0.63458 0.401009,-1.08727 0.40101,-0.45475 0.992188,-0.45475 0.392741,0 0.601514,0.19637 0.208772,0.1943 0.208772,0.54777 0,0.062 -0.0186,0.19637 -0.01654,0.13436 -0.05581,0.31213 h -1.701188 q -0.0124,0.0599 -0.0186,0.11782 -0.0041,0.0579 -0.0041,0.10749 0,0.29145 0.177766,0.45888 0.177767,0.16537 0.504362,0.16537 0.227377,0 0.467155,-0.0889 0.241846,-0.0889 0.405144,-0.2005 h 0.02274 l -0.08475,0.41961 q -0.103353,0.0372 -0.186035,0.0682 -0.08268,0.031 -0.21084,0.062 -0.128158,0.031 -0.227376,0.0475 -0.09922,0.0165 -0.248047,0.0165 z"
         style="font-style:italic;font-variant:normal;font-weight:normal;font-stretch:normal;font-size:4.23333311px;font-family:sans-serif;-inkscape-font-specification:'sans-serif Italic';stroke-width:0.26458332px"
         id="path884"
         inkscape:connector-curvature="0" />
      <path
         d="m 101.79869,250.04962 q 0,0.0496 -0.0103,0.13436 -0.008,0.0848 -0.0248,0.14882 l -0.34727,1.49862 h -0.3886 l 0.30386,-1.31465 q 0.0248,-0.10955 0.0372,-0.19017 0.0145,-0.0827 0.0145,-0.16329 0,-0.17364 -0.0868,-0.26045 -0.0847,-0.0889 -0.308,-0.0889 -0.15709,0 -0.34726,0.0868 -0.1881,0.0868 -0.36794,0.20671 l -0.39894,1.72392 h -0.388607 l 0.533297,-2.3089 h 0.38861 l -0.0599,0.25631 q 0.22117,-0.15503 0.41341,-0.23771 0.1943,-0.0827 0.39894,-0.0827 0.30179,0 0.46922,0.15296 0.1695,0.1509 0.1695,0.43822 z"
         style="font-style:italic;font-variant:normal;font-weight:normal;font-stretch:normal;font-size:4.23333311px;font-family:sans-serif;-inkscape-font-specification:'sans-serif Italic';stroke-width:0.26458332px"
         id="path886"
         inkscape:connector-curvature="0" />
      <path
         d="m 102.88596,251.88723 q -0.25838,0 -0.46302,-0.0641 -0.20257,-0.0641 -0.339,-0.13849 l 0.0868,-0.41548 h 0.0207 q 0.0434,0.0372 0.11162,0.0889 0.0703,0.0496 0.17777,0.0992 0.0971,0.0476 0.22117,0.0827 0.12609,0.0331 0.26872,0.0331 0.29146,0 0.45682,-0.10749 0.16537,-0.10749 0.16537,-0.31626 0,-0.10955 -0.0847,-0.16743 -0.0847,-0.0599 -0.24392,-0.0971 -0.0806,-0.0186 -0.1943,-0.0413 -0.11162,-0.0227 -0.22738,-0.0537 -0.24184,-0.0682 -0.3576,-0.19637 -0.11575,-0.13022 -0.11575,-0.31626 0,-0.16123 0.0703,-0.30179 0.0703,-0.14056 0.20877,-0.25838 0.13229,-0.11162 0.33693,-0.17983 0.20464,-0.0703 0.45475,-0.0703 0.20671,0 0.41135,0.0517 0.2067,0.0517 0.33693,0.12816 l -0.0827,0.39688 h -0.0207 q -0.0331,-0.0269 -0.10128,-0.0724 -0.0661,-0.0455 -0.1695,-0.093 -0.0889,-0.0393 -0.20877,-0.0682 -0.11782,-0.0289 -0.24598,-0.0289 -0.25838,0 -0.41962,0.10955 -0.16123,0.10749 -0.16123,0.29559 0,0.10336 0.0786,0.17364 0.0785,0.0682 0.23978,0.10748 0.10129,0.0248 0.21084,0.0476 0.11162,0.0207 0.21498,0.0455 0.23977,0.0599 0.35966,0.18604 0.12196,0.12609 0.12196,0.31626 0,0.15916 -0.0765,0.31212 -0.0744,0.1509 -0.21704,0.26252 -0.14676,0.11782 -0.35554,0.18397 -0.20877,0.0661 -0.46922,0.0661 z"
         style="font-style:italic;font-variant:normal;font-weight:normal;font-stretch:normal;font-size:4.23333311px;font-family:sans-serif;-inkscape-font-specification:'sans-serif Italic';stroke-width:0.26458332px"
         id="path888"
         inkscape:connector-curvature="0" />
      <path
         d="m 105.50492,248.7329 -0.093,0.40308 h -0.43822 l 0.093,-0.40308 z m -0.2067,0.78962 -0.5333,2.3089 h -0.38861 l 0.5333,-2.3089 z"
         style="font-style:italic;font-variant:normal;font-weight:normal;font-stretch:normal;font-size:4.23333311px;font-family:sans-serif;-inkscape-font-specification:'sans-serif Italic';stroke-width:0.26458332px"
         id="path890"
         inkscape:connector-curvature="0" />
      <path
         d="m 107.80763,250.33901 q 0,0.31005 -0.0951,0.59531 -0.0951,0.28525 -0.26872,0.49609 -0.17983,0.21911 -0.41548,0.34313 -0.23564,0.12196 -0.54983,0.12196 -0.41135,0 -0.64286,-0.23358 -0.22944,-0.23564 -0.22944,-0.64905 0,-0.31006 0.093,-0.59118 0.0951,-0.28112 0.27285,-0.50023 0.17156,-0.21084 0.41961,-0.33693 0.25011,-0.12609 0.5457,-0.12609 0.39895,0 0.63459,0.22738 0.23565,0.22737 0.23565,0.65319 z m -0.63252,0.87229 q 0.11162,-0.16536 0.16949,-0.3824 0.06,-0.21704 0.06,-0.45889 0,-0.28939 -0.13849,-0.43821 -0.1385,-0.14883 -0.39068,-0.14883 -0.2005,0 -0.35967,0.0971 -0.15916,0.0951 -0.27491,0.26252 -0.11163,0.16329 -0.17157,0.3824 -0.0599,0.21911 -0.0599,0.45475 0,0.28526 0.13849,0.43822 0.13849,0.15296 0.39274,0.15296 0.19844,0 0.35967,-0.0951 0.16123,-0.0951 0.27492,-0.26459 z"
         style="font-style:italic;font-variant:normal;font-weight:normal;font-stretch:normal;font-size:4.23333311px;font-family:sans-serif;-inkscape-font-specification:'sans-serif Italic';stroke-width:0.26458332px"
         id="path892"
         inkscape:connector-curvature="0" />
      <path
         d="m 110.42245,250.04962 q 0,0.0496 -0.0103,0.13436 -0.008,0.0848 -0.0248,0.14882 l -0.34726,1.49862 h -0.38861 l 0.30386,-1.31465 q 0.0248,-0.10955 0.0372,-0.19017 0.0145,-0.0827 0.0145,-0.16329 0,-0.17364 -0.0868,-0.26045 -0.0847,-0.0889 -0.30799,-0.0889 -0.1571,0 -0.34727,0.0868 -0.1881,0.0868 -0.36794,0.20671 l -0.39894,1.72392 h -0.3886 l 0.5333,-2.3089 h 0.3886 l -0.0599,0.25631 q 0.22117,-0.15503 0.41341,-0.23771 0.1943,-0.0827 0.39894,-0.0827 0.30179,0 0.46922,0.15296 0.1695,0.1509 0.1695,0.43822 z"
         style="font-style:italic;font-variant:normal;font-weight:normal;font-stretch:normal;font-size:4.23333311px;font-family:sans-serif;-inkscape-font-specification:'sans-serif Italic';stroke-width:0.26458332px"
         id="path894"
         inkscape:connector-curvature="0" />
      <path
         d="m 112.47917,250.61392 q -0.31832,0.0124 -0.56637,0.0496 -0.24598,0.0351 -0.40721,0.10336 -0.16743,0.0682 -0.25425,0.18603 -0.0868,0.11576 -0.0868,0.28939 0,0.14883 0.10128,0.22738 0.10129,0.0785 0.31419,0.0785 0.18811,0 0.38241,-0.0827 0.19637,-0.0848 0.36587,-0.20257 z m -0.22531,0.97152 q -0.0558,0.0331 -0.15296,0.0951 -0.0951,0.0599 -0.1943,0.10335 -0.10542,0.0475 -0.23565,0.0785 -0.13022,0.0331 -0.29972,0.0331 -0.27492,0 -0.44648,-0.15916 -0.17157,-0.16123 -0.17157,-0.41962 0,-0.27491 0.11989,-0.46302 0.12196,-0.19017 0.35967,-0.31006 0.23358,-0.11782 0.56224,-0.16949 0.33073,-0.0537 0.75241,-0.0661 0.0124,-0.0579 0.0207,-0.0992 0.008,-0.0434 0.008,-0.0889 0,-0.0992 -0.0393,-0.16123 -0.0393,-0.062 -0.11162,-0.0992 -0.0724,-0.0372 -0.1695,-0.0496 -0.0951,-0.0145 -0.21084,-0.0145 -0.1757,0 -0.40101,0.0579 -0.22531,0.0558 -0.36587,0.11162 h -0.0207 l 0.0765,-0.38861 q 0.11783,-0.031 0.3452,-0.0703 0.22738,-0.0393 0.43615,-0.0393 0.42995,0 0.64492,0.13436 0.21498,0.13435 0.21498,0.42581 0,0.0558 -0.0103,0.11989 -0.008,0.062 -0.0207,0.11782 l -0.36173,1.56683 h -0.38654 z"
         style="font-style:italic;font-variant:normal;font-weight:normal;font-stretch:normal;font-size:4.23333311px;font-family:sans-serif;-inkscape-font-specification:'sans-serif Italic';stroke-width:0.26458332px"
         id="path896"
         inkscape:connector-curvature="0" />
      <path
         d="m 114.47182,248.61508 -0.74414,3.21634 h -0.38861 l 0.74414,-3.21634 z"
         style="font-style:italic;font-variant:normal;font-weight:normal;font-stretch:normal;font-size:4.23333311px;font-family:sans-serif;-inkscape-font-specification:'sans-serif Italic';stroke-width:0.26458332px"
         id="path898"
         inkscape:connector-curvature="0" />
      <path
         d="m 117.08251,251.88723 q -0.29972,0 -0.57051,-0.062 -0.27078,-0.0641 -0.53123,-0.1943 l 0.0992,-0.46923 h 0.0289 q 0.19844,0.18811 0.48576,0.28939 0.28938,0.0992 0.5581,0.0992 0.44028,0 0.67386,-0.17363 0.23565,-0.1757 0.23565,-0.44649 0,-0.14262 -0.0847,-0.23771 -0.0827,-0.0951 -0.24392,-0.14056 -0.13435,-0.0372 -0.32039,-0.0703 -0.18397,-0.0351 -0.3514,-0.0744 -0.32453,-0.0724 -0.50229,-0.24805 -0.17777,-0.1757 -0.17777,-0.43615 0,-0.44028 0.37207,-0.73174 0.37414,-0.29352 0.96532,-0.29352 0.32246,0 0.58497,0.0682 0.26459,0.0661 0.45476,0.15709 l -0.093,0.44028 h -0.0289 q -0.14676,-0.13435 -0.41961,-0.23151 -0.27079,-0.0971 -0.57051,-0.0971 -0.37621,0 -0.60152,0.16537 -0.22324,0.16536 -0.22324,0.41961 0,0.13643 0.0806,0.23978 0.0806,0.10335 0.28732,0.15503 0.13229,0.031 0.3514,0.0765 0.21911,0.0434 0.36793,0.0827 0.29353,0.0806 0.44442,0.23978 0.15296,0.15916 0.15296,0.40101 0,0.20257 -0.0992,0.40307 -0.0992,0.20051 -0.27699,0.34314 -0.19017,0.15296 -0.44648,0.23978 -0.25425,0.0868 -0.60152,0.0868 z"
         style="font-style:italic;font-variant:normal;font-weight:normal;font-stretch:normal;font-family:sans-serif;-inkscape-font-specification:'sans-serif Italic';fill:#0000ff"
         id="path900"
         inkscape:connector-curvature="0" />
      <path
         d="m 121.22903,250.25219 q 0,0.34313 -0.10749,0.64492 -0.10542,0.30179 -0.28112,0.51263 -0.17777,0.21704 -0.41341,0.34313 -0.23565,0.12403 -0.5023,0.12403 -0.18603,0 -0.34313,-0.0434 -0.15503,-0.0413 -0.28318,-0.12196 l -0.22325,0.97152 h -0.3886 l 0.72967,-3.16053 h 0.38861 l -0.0558,0.24184 q 0.19224,-0.13436 0.37828,-0.2191 0.18603,-0.0868 0.41134,-0.0868 0.33693,0 0.51263,0.20877 0.17777,0.20877 0.17777,0.58498 z m -0.40721,0.0744 q 0,-0.24598 -0.10749,-0.37827 -0.10749,-0.13436 -0.34313,-0.13436 -0.17157,0 -0.35554,0.0847 -0.18396,0.0848 -0.34313,0.19224 l -0.30179,1.30845 q 0.13436,0.0723 0.25632,0.10748 0.12195,0.0351 0.29559,0.0351 0.2129,0 0.3824,-0.10335 0.17157,-0.10335 0.28319,-0.26872 0.11782,-0.17363 0.1757,-0.38654 0.0579,-0.2129 0.0579,-0.45682 z"
         style="font-style:italic;font-variant:normal;font-weight:normal;font-stretch:normal;font-family:sans-serif;-inkscape-font-specification:'sans-serif Italic';fill:#0000ff"
         id="path902"
         inkscape:connector-curvature="0" />
      <path
         d="m 123.3891,250.42582 q 0.0103,-0.0599 0.0145,-0.10128 0.004,-0.0413 0.004,-0.091 0,-0.22118 -0.12196,-0.3452 -0.11989,-0.12403 -0.38654,-0.12403 -0.29352,0 -0.5209,0.1819 -0.22737,0.18191 -0.30799,0.47956 z m -0.77721,1.45934 q -0.47956,0 -0.75241,-0.2253 -0.27285,-0.22531 -0.27285,-0.6594 0,-0.63458 0.40101,-1.08727 0.40101,-0.45475 0.99219,-0.45475 0.39274,0 0.60151,0.19637 0.20877,0.1943 0.20877,0.54777 0,0.062 -0.0186,0.19637 -0.0165,0.13436 -0.0558,0.31213 h -1.70119 q -0.0124,0.0599 -0.0186,0.11782 -0.004,0.0579 -0.004,0.10749 0,0.29145 0.17777,0.45888 0.17777,0.16537 0.50436,0.16537 0.22738,0 0.46716,-0.0889 0.24184,-0.0889 0.40514,-0.2005 h 0.0227 l -0.0847,0.41961 q -0.10336,0.0372 -0.18604,0.0682 -0.0827,0.031 -0.21084,0.062 -0.12816,0.031 -0.22737,0.0475 -0.0992,0.0165 -0.24805,0.0165 z"
         style="font-style:italic;font-variant:normal;font-weight:normal;font-stretch:normal;font-family:sans-serif;-inkscape-font-specification:'sans-serif Italic';fill:#0000ff"
         id="path904"
         inkscape:connector-curvature="0" />
      <path
         d="m 125.04275,251.8831 q -0.21911,0 -0.38861,-0.0517 -0.16743,-0.0517 -0.29352,-0.1633 -0.12196,-0.10748 -0.1881,-0.27078 -0.0662,-0.1633 -0.0662,-0.38034 0,-0.32453 0.10129,-0.60565 0.10128,-0.28112 0.28732,-0.49402 0.17983,-0.20671 0.44441,-0.3266 0.26459,-0.12196 0.57051,-0.12196 0.20257,0 0.38034,0.0558 0.17983,0.0558 0.31626,0.13229 l -0.0847,0.41961 h -0.0227 q -0.0413,-0.0372 -0.10335,-0.0868 -0.062,-0.0496 -0.14676,-0.093 -0.0847,-0.0455 -0.1881,-0.0744 -0.10336,-0.031 -0.23565,-0.031 -0.40101,0 -0.65525,0.33899 -0.25219,0.339 -0.25219,0.82476 0,0.29145 0.14883,0.44855 0.1509,0.1571 0.42788,0.1571 0.13023,0 0.26045,-0.0372 0.13023,-0.0372 0.22118,-0.0806 0.10128,-0.0475 0.1881,-0.10128 0.0868,-0.0538 0.12609,-0.0806 h 0.0227 l -0.0827,0.42375 q -0.17984,0.0806 -0.38034,0.14056 -0.20051,0.0579 -0.40721,0.0579 z"
         style="font-style:italic;font-variant:normal;font-weight:normal;font-stretch:normal;font-size:4.23333311px;font-family:sans-serif;-inkscape-font-specification:'sans-serif Italic';stroke-width:0.26458332px"
         id="path906"
         inkscape:connector-curvature="0" />
      <path
         d="m 127.9821,249.52252 -0.0703,0.31419 h -0.80201 l -0.24805,1.06454 q -0.0207,0.0806 -0.0372,0.18603 -0.0165,0.10335 -0.0165,0.16536 0,0.1509 0.0765,0.22531 0.0765,0.0724 0.28318,0.0724 0.0847,0 0.20051,-0.0289 0.11782,-0.0289 0.15916,-0.0455 h 0.0207 l -0.0723,0.33486 q -0.11576,0.0289 -0.24805,0.0475 -0.13023,0.0186 -0.23151,0.0186 -0.28526,0 -0.44235,-0.12403 -0.15503,-0.12609 -0.15503,-0.39687 0,-0.0661 0.008,-0.13023 0.0103,-0.0661 0.0269,-0.14882 l 0.28732,-1.24024 h -0.26252 l 0.0703,-0.31419 h 0.26252 l 0.15503,-0.66353 h 0.38861 l -0.15503,0.66353 z"
         style="font-style:italic;font-variant:normal;font-weight:normal;font-stretch:normal;font-size:4.23333311px;font-family:sans-serif;-inkscape-font-specification:'sans-serif Italic';stroke-width:0.26458332px"
         id="path908"
         inkscape:connector-curvature="0" />
      <path
         d="m 129.78458,249.9318 h -0.0207 q -0.0827,-0.0207 -0.15503,-0.0289 -0.0703,-0.0103 -0.17157,-0.0103 -0.1943,0 -0.38654,0.0889 -0.19017,0.0868 -0.36587,0.21084 l -0.37207,1.63918 h -0.39274 l 0.5271,-2.3089 h 0.39274 l -0.0786,0.34106 q 0.27492,-0.19223 0.46509,-0.26665 0.19224,-0.0744 0.36794,-0.0744 0.10128,0 0.14676,0.006 0.0455,0.004 0.13229,0.0186 z"
         style="font-style:italic;font-variant:normal;font-weight:normal;font-stretch:normal;font-size:4.23333311px;font-family:sans-serif;-inkscape-font-specification:'sans-serif Italic';stroke-width:0.26458332px"
         id="path910"
         inkscape:connector-curvature="0" />
      <path
         d="m 131.42169,250.61392 q -0.31833,0.0124 -0.56638,0.0496 -0.24598,0.0351 -0.40721,0.10336 -0.16743,0.0682 -0.25425,0.18603 -0.0868,0.11576 -0.0868,0.28939 0,0.14883 0.10128,0.22738 0.10129,0.0785 0.3142,0.0785 0.1881,0 0.3824,-0.0827 0.19637,-0.0848 0.36587,-0.20257 z m -0.22531,0.97152 q -0.0558,0.0331 -0.15297,0.0951 -0.0951,0.0599 -0.1943,0.10335 -0.10542,0.0475 -0.23564,0.0785 -0.13023,0.0331 -0.29973,0.0331 -0.27492,0 -0.44648,-0.15916 -0.17157,-0.16123 -0.17157,-0.41962 0,-0.27491 0.11989,-0.46302 0.12196,-0.19017 0.35967,-0.31006 0.23358,-0.11782 0.56224,-0.16949 0.33073,-0.0537 0.75241,-0.0661 0.0124,-0.0579 0.0207,-0.0992 0.008,-0.0434 0.008,-0.0889 0,-0.0992 -0.0393,-0.16123 -0.0393,-0.062 -0.11162,-0.0992 -0.0723,-0.0372 -0.1695,-0.0496 -0.0951,-0.0145 -0.21084,-0.0145 -0.1757,0 -0.40101,0.0579 -0.2253,0.0558 -0.36586,0.11162 h -0.0207 l 0.0765,-0.38861 q 0.11782,-0.031 0.34519,-0.0703 0.22738,-0.0393 0.43615,-0.0393 0.42995,0 0.64493,0.13436 0.21497,0.13435 0.21497,0.42581 0,0.0558 -0.0103,0.11989 -0.008,0.062 -0.0207,0.11782 l -0.36173,1.56683 h -0.38654 z"
         style="font-style:italic;font-variant:normal;font-weight:normal;font-stretch:normal;font-size:4.23333311px;font-family:sans-serif;-inkscape-font-specification:'sans-serif Italic';stroke-width:0.26458332px"
         id="path912"
         inkscape:connector-curvature="0" />
      <path
         d="m 133.41433,248.61508 -0.74414,3.21634 h -0.38861 l 0.74414,-3.21634 z"
         style="font-style:italic;font-variant:normal;font-weight:normal;font-stretch:normal;font-size:4.23333311px;font-family:sans-serif;-inkscape-font-specification:'sans-serif Italic';stroke-width:0.26458332px"
         id="path914"
         inkscape:connector-curvature="0" />
      <path
         d="m 136.34128,251.88723 q -0.58498,0 -0.91777,-0.30179 -0.3328,-0.30386 -0.3328,-0.85989 0,-0.42582 0.12816,-0.79375 0.12816,-0.36794 0.36793,-0.64493 0.23772,-0.27285 0.58498,-0.42994 0.34727,-0.15917 0.77515,-0.15917 0.26665,0 0.50436,0.0662 0.23771,0.0641 0.48783,0.20464 l -0.093,0.46302 h -0.031 q -0.0682,-0.0682 -0.13849,-0.12609 -0.0682,-0.0599 -0.20671,-0.13023 -0.11368,-0.0599 -0.27078,-0.0992 -0.1571,-0.0413 -0.34727,-0.0413 -0.28938,0 -0.53123,0.12196 -0.24185,0.11989 -0.41961,0.33693 -0.17364,0.21084 -0.27285,0.51263 -0.0992,0.30179 -0.0992,0.64285 0,0.42582 0.22117,0.66353 0.22118,0.23564 0.63872,0.23564 0.19637,0 0.37207,-0.0434 0.17777,-0.0455 0.32246,-0.11369 0.13436,-0.0641 0.24185,-0.13436 0.10749,-0.0703 0.18397,-0.13023 h 0.0289 l -0.0972,0.47543 q -0.21704,0.10955 -0.50022,0.19844 -0.28112,0.0868 -0.59945,0.0868 z"
         style="font-style:italic;font-variant:normal;font-weight:normal;font-stretch:normal;font-family:sans-serif;-inkscape-font-specification:'sans-serif Italic';fill:#0000ff"
         id="path916"
         inkscape:connector-curvature="0" />
      <path
         d="m 140.1612,250.33901 q 0,0.31005 -0.0951,0.59531 -0.0951,0.28525 -0.26872,0.49609 -0.17983,0.21911 -0.41548,0.34313 -0.23564,0.12196 -0.54984,0.12196 -0.41134,0 -0.64285,-0.23358 -0.22944,-0.23564 -0.22944,-0.64905 0,-0.31006 0.093,-0.59118 0.0951,-0.28112 0.27286,-0.50023 0.17156,-0.21084 0.41961,-0.33693 0.25011,-0.12609 0.5457,-0.12609 0.39894,0 0.63459,0.22738 0.23564,0.22737 0.23564,0.65319 z m -0.63252,0.87229 q 0.11162,-0.16536 0.1695,-0.3824 0.0599,-0.21704 0.0599,-0.45889 0,-0.28939 -0.1385,-0.43821 -0.13849,-0.14883 -0.39067,-0.14883 -0.20051,0 -0.35967,0.0971 -0.15916,0.0951 -0.27492,0.26252 -0.11162,0.16329 -0.17156,0.3824 -0.0599,0.21911 -0.0599,0.45475 0,0.28526 0.13849,0.43822 0.1385,0.15296 0.39275,0.15296 0.19843,0 0.35966,-0.0951 0.16123,-0.0951 0.27492,-0.26459 z"
         style="font-style:italic;font-variant:normal;font-weight:normal;font-stretch:normal;font-size:4.23333311px;font-family:sans-serif;-inkscape-font-specification:'sans-serif Italic';stroke-width:0.26458332px"
         id="path918"
         inkscape:connector-curvature="0" />
      <path
         d="m 144.21677,250.03308 q 0,0.0682 -0.0103,0.1447 -0.008,0.0765 -0.0269,0.15502 l -0.34726,1.49862 h -0.38861 l 0.30386,-1.31465 q 0.0248,-0.10955 0.0393,-0.20257 0.0165,-0.093 0.0165,-0.17363 0,-0.1571 -0.0786,-0.24185 -0.0785,-0.0847 -0.29972,-0.0847 -0.1633,0 -0.3452,0.0909 -0.1819,0.0909 -0.36173,0.21291 -0.004,0.0517 -0.0145,0.11782 -0.008,0.0661 -0.0207,0.11783 l -0.34107,1.47794 h -0.38861 l 0.30386,-1.31465 q 0.0269,-0.12816 0.0434,-0.20877 0.0165,-0.0827 0.0165,-0.16743 0,-0.1881 -0.10336,-0.25632 -0.10335,-0.0703 -0.27905,-0.0703 -0.12402,0 -0.27699,0.0641 -0.15296,0.062 -0.40721,0.22945 l -0.39894,1.72392 h -0.3886 l 0.5333,-2.3089 h 0.3886 l -0.0599,0.25631 q 0.21704,-0.15089 0.40101,-0.23564 0.18603,-0.0848 0.39067,-0.0848 0.23358,0 0.37827,0.0992 0.14676,0.0992 0.19431,0.27492 0.27285,-0.19844 0.48989,-0.28526 0.21704,-0.0889 0.42788,-0.0889 0.30386,0 0.45682,0.15089 0.15296,0.1509 0.15296,0.42375 z"
         style="font-style:italic;font-variant:normal;font-weight:normal;font-stretch:normal;font-size:4.23333311px;font-family:sans-serif;-inkscape-font-specification:'sans-serif Italic';stroke-width:0.26458332px"
         id="path920"
         inkscape:connector-curvature="0" />
      <path
         d="m 146.92668,250.25219 q 0,0.34313 -0.10749,0.64492 -0.10542,0.30179 -0.28112,0.51263 -0.17777,0.21704 -0.41341,0.34313 -0.23564,0.12403 -0.50229,0.12403 -0.18604,0 -0.34314,-0.0434 -0.15503,-0.0413 -0.28318,-0.12196 l -0.22325,0.97152 h -0.3886 l 0.72967,-3.16053 h 0.38861 l -0.0558,0.24184 q 0.19223,-0.13436 0.37827,-0.2191 0.18603,-0.0868 0.41134,-0.0868 0.33693,0 0.51263,0.20877 0.17777,0.20877 0.17777,0.58498 z m -0.40721,0.0744 q 0,-0.24598 -0.10749,-0.37827 -0.10749,-0.13436 -0.34313,-0.13436 -0.17157,0 -0.35553,0.0847 -0.18397,0.0848 -0.34314,0.19224 l -0.30179,1.30845 q 0.13436,0.0723 0.25632,0.10748 0.12196,0.0351 0.29559,0.0351 0.21291,0 0.3824,-0.10335 0.17157,-0.10335 0.28319,-0.26872 0.11782,-0.17363 0.1757,-0.38654 0.0579,-0.2129 0.0579,-0.45682 z"
         style="font-style:italic;font-variant:normal;font-weight:normal;font-stretch:normal;font-size:4.23333311px;font-family:sans-serif;-inkscape-font-specification:'sans-serif Italic';stroke-width:0.26458332px"
         id="path922"
         inkscape:connector-curvature="0" />
      <path
         d="m 148.90899,250.61392 q -0.31833,0.0124 -0.56638,0.0496 -0.24598,0.0351 -0.40721,0.10336 -0.16743,0.0682 -0.25425,0.18603 -0.0868,0.11576 -0.0868,0.28939 0,0.14883 0.10128,0.22738 0.10129,0.0785 0.3142,0.0785 0.1881,0 0.3824,-0.0827 0.19637,-0.0848 0.36587,-0.20257 z m -0.22531,0.97152 q -0.0558,0.0331 -0.15296,0.0951 -0.0951,0.0599 -0.19431,0.10335 -0.10542,0.0475 -0.23564,0.0785 -0.13023,0.0331 -0.29973,0.0331 -0.27491,0 -0.44648,-0.15916 -0.17157,-0.16123 -0.17157,-0.41962 0,-0.27491 0.11989,-0.46302 0.12196,-0.19017 0.35967,-0.31006 0.23358,-0.11782 0.56224,-0.16949 0.33073,-0.0537 0.75241,-0.0661 0.0124,-0.0579 0.0207,-0.0992 0.008,-0.0434 0.008,-0.0889 0,-0.0992 -0.0393,-0.16123 -0.0393,-0.062 -0.11162,-0.0992 -0.0723,-0.0372 -0.1695,-0.0496 -0.0951,-0.0145 -0.21084,-0.0145 -0.1757,0 -0.401,0.0579 -0.22531,0.0558 -0.36587,0.11162 h -0.0207 l 0.0765,-0.38861 q 0.11782,-0.031 0.3452,-0.0703 0.22737,-0.0393 0.43614,-0.0393 0.42995,0 0.64493,0.13436 0.21497,0.13435 0.21497,0.42581 0,0.0558 -0.0103,0.11989 -0.008,0.062 -0.0207,0.11782 l -0.36173,1.56683 h -0.38654 z"
         style="font-style:italic;font-variant:normal;font-weight:normal;font-stretch:normal;font-size:4.23333311px;font-family:sans-serif;-inkscape-font-specification:'sans-serif Italic';stroke-width:0.26458332px"
         id="path924"
         inkscape:connector-curvature="0" />
      <path
         d="m 151.62924,249.9318 h -0.0207 q -0.0827,-0.0207 -0.15502,-0.0289 -0.0703,-0.0103 -0.17157,-0.0103 -0.1943,0 -0.38654,0.0889 -0.19017,0.0868 -0.36587,0.21084 l -0.37207,1.63918 h -0.39274 l 0.5271,-2.3089 h 0.39274 l -0.0785,0.34106 q 0.27492,-0.19223 0.46509,-0.26665 0.19224,-0.0744 0.36794,-0.0744 0.10128,0 0.14676,0.006 0.0455,0.004 0.13229,0.0186 z"
         style="font-style:italic;font-variant:normal;font-weight:normal;font-stretch:normal;font-size:4.23333311px;font-family:sans-serif;-inkscape-font-specification:'sans-serif Italic';stroke-width:0.26458332px"
         id="path926"
         inkscape:connector-curvature="0" />
      <path
         d="m 152.70824,248.7329 -0.093,0.40308 h -0.43821 l 0.093,-0.40308 z m -0.2067,0.78962 -0.5333,2.3089 h -0.38861 l 0.5333,-2.3089 z"
         style="font-style:italic;font-variant:normal;font-weight:normal;font-stretch:normal;font-size:4.23333311px;font-family:sans-serif;-inkscape-font-specification:'sans-serif Italic';stroke-width:0.26458332px"
         id="path928"
         inkscape:connector-curvature="0" />
      <path
         d="m 153.46272,251.88723 q -0.25839,0 -0.46303,-0.0641 -0.20257,-0.0641 -0.33899,-0.13849 l 0.0868,-0.41548 h 0.0207 q 0.0434,0.0372 0.11162,0.0889 0.0703,0.0496 0.17777,0.0992 0.0971,0.0476 0.22118,0.0827 0.12609,0.0331 0.26871,0.0331 0.29146,0 0.45682,-0.10749 0.16537,-0.10749 0.16537,-0.31626 0,-0.10955 -0.0847,-0.16743 -0.0848,-0.0599 -0.24391,-0.0971 -0.0806,-0.0186 -0.19431,-0.0413 -0.11162,-0.0227 -0.22737,-0.0537 -0.24185,-0.0682 -0.3576,-0.19637 -0.11576,-0.13022 -0.11576,-0.31626 0,-0.16123 0.0703,-0.30179 0.0703,-0.14056 0.20877,-0.25838 0.1323,-0.11162 0.33693,-0.17983 0.20464,-0.0703 0.45476,-0.0703 0.2067,0 0.41134,0.0517 0.20671,0.0517 0.33693,0.12816 l -0.0827,0.39688 h -0.0207 q -0.0331,-0.0269 -0.10129,-0.0724 -0.0661,-0.0455 -0.1695,-0.093 -0.0889,-0.0393 -0.20877,-0.0682 -0.11782,-0.0289 -0.24598,-0.0289 -0.25838,0 -0.41961,0.10955 -0.16123,0.10749 -0.16123,0.29559 0,0.10336 0.0786,0.17364 0.0785,0.0682 0.23977,0.10748 0.10129,0.0248 0.21084,0.0476 0.11163,0.0207 0.21498,0.0455 0.23978,0.0599 0.35967,0.18604 0.12195,0.12609 0.12195,0.31626 0,0.15916 -0.0765,0.31212 -0.0744,0.1509 -0.21704,0.26252 -0.14676,0.11782 -0.35553,0.18397 -0.20878,0.0661 -0.46922,0.0661 z"
         style="font-style:italic;font-variant:normal;font-weight:normal;font-stretch:normal;font-size:4.23333311px;font-family:sans-serif;-inkscape-font-specification:'sans-serif Italic';stroke-width:0.26458332px"
         id="path930"
         inkscape:connector-curvature="0" />
      <path
         d="m 157.21856,250.33901 q 0,0.31005 -0.0951,0.59531 -0.0951,0.28525 -0.26872,0.49609 -0.17984,0.21911 -0.41548,0.34313 -0.23565,0.12196 -0.54984,0.12196 -0.41134,0 -0.64285,-0.23358 -0.22945,-0.23564 -0.22945,-0.64905 0,-0.31006 0.093,-0.59118 0.0951,-0.28112 0.27285,-0.50023 0.17157,-0.21084 0.41962,-0.33693 0.25011,-0.12609 0.5457,-0.12609 0.39894,0 0.63459,0.22738 0.23564,0.22737 0.23564,0.65319 z m -0.63252,0.87229 q 0.11162,-0.16536 0.1695,-0.3824 0.0599,-0.21704 0.0599,-0.45889 0,-0.28939 -0.13849,-0.43821 -0.13849,-0.14883 -0.39067,-0.14883 -0.20051,0 -0.35967,0.0971 -0.15916,0.0951 -0.27492,0.26252 -0.11162,0.16329 -0.17157,0.3824 -0.0599,0.21911 -0.0599,0.45475 0,0.28526 0.13849,0.43822 0.1385,0.15296 0.39274,0.15296 0.19844,0 0.35967,-0.0951 0.16123,-0.0951 0.27492,-0.26459 z"
         style="font-style:italic;font-variant:normal;font-weight:normal;font-stretch:normal;font-size:4.23333311px;font-family:sans-serif;-inkscape-font-specification:'sans-serif Italic';stroke-width:0.26458332px"
         id="path932"
         inkscape:connector-curvature="0" />
      <path
         d="m 159.83339,250.04962 q 0,0.0496 -0.0103,0.13436 -0.008,0.0848 -0.0248,0.14882 l -0.34727,1.49862 h -0.38861 l 0.30386,-1.31465 q 0.0248,-0.10955 0.0372,-0.19017 0.0145,-0.0827 0.0145,-0.16329 0,-0.17364 -0.0868,-0.26045 -0.0847,-0.0889 -0.30799,-0.0889 -0.1571,0 -0.34727,0.0868 -0.1881,0.0868 -0.36793,0.20671 l -0.39894,1.72392 h -0.38861 l 0.5333,-2.3089 h 0.38861 l -0.06,0.25631 q 0.22118,-0.15503 0.41341,-0.23771 0.19431,-0.0827 0.39895,-0.0827 0.30179,0 0.46922,0.15296 0.1695,0.1509 0.1695,0.43822 z"
         style="font-style:italic;font-variant:normal;font-weight:normal;font-stretch:normal;font-size:4.23333311px;font-family:sans-serif;-inkscape-font-specification:'sans-serif Italic';stroke-width:0.26458332px"
         id="path934"
         inkscape:connector-curvature="0" />
    </g>
    <g
       transform="matrix(0.11498482,0,0,-0.11498482,146.30432,193.5523)"
       id="g10">
      <g
         transform="scale(0.1)"
         id="g12">
        <g
           id="g14">
          <g
             clip-path="url(#clipPath20-2)"
             id="g16">
            <g
               clip-path="url(#clipPath26)"
               id="g22">
              <path
                 inkscape:connector-curvature="0"
                 id="path34"
                 style="fill:url(#radialGradient32);fill-opacity:1;fill-rule:nonzero;stroke:none"
                 d="m 767,0 v 1 h -15 v 1 h -14 v 1 h -7 v 1 h -8 v 1 h -7 v 1 h -7 v 1 h -7 v 1 h -7 v 1 h -7 v 1 h -7 v 1 h -4 v 1 h -4 v 1 h -4 v 1 h -5 v 1 h -4 v 1 h -4 v 1 h -5 v 1 h -4 v 1 h -4 v 1 h -4 v 1 h -5 v 1 h -4 v 1 h -4 v 1 h -3 v 1 h -3 v 1 h -3 v 1 h -3 v 1 h -3 v 1 h -3 v 1 h -3 v 1 h -3 v 1 h -3 v 1 h -3 v 1 h -3 v 1 h -3 v 1 h -3 v 1 h -3 v 1 h -3 v 1 h -3 v 1 h -3 v 1 h -3 v 1 h -2 v 1 h -3 v 1 h -2 v 1 h -2 v 1 h -3 v 1 h -2 v 1 h -2 v 1 h -3 v 1 h -2 v 1 h -2 v 1 h -3 v 1 h -2 v 1 h -2 v 1 h -3 v 1 h -2 v 1 h -2 v 1 h -3 v 1 h -2 v 1 h -2 v 1 h -3 v 1 h -2 v 1 h -2 v 1 h -2 v 1 h -2 v 1 h -2 v 1 h -2 v 1 h -2 v 1 h -2 v 1 h -1 v 1 h -2 v 1 h -2 v 1 h -2 v 1 h -2 v 1 h -2 v 1 h -2 v 1 h -2 v 1 h -1 v 1 h -2 v 1 h -2 v 1 h -2 v 1 h -2 v 1 h -2 v 1 h -2 v 1 h -2 v 1 h -1 v 1 h -2 v 1 h -2 v 1 h -2 v 1 h -2 v 1 h -2 v 1 h -1 v 1 h -2 v 1 h -1 v 1 h -2 v 1 h -2 v 1 h -1 v 1 h -2 v 1 h -1 v 1 h -2 v 1 h -1 v 1 h -2 v 1 h -1 v 1 h -2 v 1 h -2 v 1 h -1 v 1 h -2 v 1 h -1 v 1 h -2 v 1 h -1 v 1 h -2 v 1 h -1 v 1 h -2 v 1 h -1 v 1 h -2 v 1 h -2 v 1 h -1 v 1 h -2 v 1 h -1 v 1 h -2 v 1 h -1 v 1 h -2 v 1 h -1 v 1 h -2 v 1 h -1 v 1 h -2 v 1 h -1 v 1 h -1 v 1 h -2 v 1 h -1 v 1 h -1 v 1 h -2 v 1 h -1 v 1 h -1 v 1 h -2 v 1 h -1 v 1 h -1 v 1 h -2 v 1 h -1 v 1 h -1 v 1 h -2 v 1 h -1 v 1 h -2 v 1 h -1 v 1 h -1 v 1 h -2 v 1 h -1 v 1 h -1 v 1 h -2 v 1 h -1 v 1 h -1 v 1 h -2 v 1 h -1 v 1 h -1 v 1 h -1 v 1 h -1 v 1 h -2 v 1 h -1 v 1 h -1 v 1 h -1 v 1 h -2 v 1 h -1 v 1 h -1 v 1 h -1 v 1 h -1 v 1 h -2 v 1 h -1 v 1 h -1 v 1 h -1 v 1 h -1 v 1 h -1 v 1 h -2 v 1 h -1 v 1 h -1 v 1 h -1 v 1 h -1 v 1 h -1 v 1 h -2 v 1 h -1 v 1 h -1 v 1 h -1 v 1 h -1 v 1 h -1 v 1 h -1 v 1 h -2 v 1 h -1 v 1 h -1 v 1 h -1 v 1 h -1 v 1 h -1 v 1 h -1 v 1 h -1 v 1 h -1 v 1 h -1 v 1 h -1 v 1 h -2 v 1 h -1 v 1 h -1 v 1 h -1 v 1 h -1 v 1 h -1 v 1 h -1 v 1 h -1 v 1 h -1 v 1 h -1 v 1 h -1 v 1 h -1 v 1 h -1 v 1 h -1 v 1 h -2 v 1 h -1 v 1 h -1 v 1 h -1 v 1 h -1 v 1 h -1 v 1 h -1 v 1 h -1 v 1 h -1 v 1 h -1 v 1 h -1 v 1 h -1 v 1 h -1 v 1 h -1 v 1 h -1 v 1 h -1 v 1 h -1 v 1 h -1 v 1 h -1 v 1 h -1 v 1 h -1 v 1 h -1 v 1 h -1 v 1 h -1 v 1 h -1 v 1 h -1 v 1 h -1 v 1 h -1 v 1 h -1 v 1 h -1 v 1 h -1 v 1 h -1 v 1 h -1 v 2 h -1 v 1 h -1 v 1 h -1 v 1 h -1 v 1 h -1 v 1 h -1 v 1 h -1 v 1 h -1 v 1 h -1 v 1 h -1 v 1 h -1 v 1 h -1 v 2 h -1 v 1 h -1 v 1 h -1 v 1 h -1 v 1 h -1 v 1 h -1 v 1 h -1 v 1 h -1 v 1 h -1 v 2 h -1 v 1 h -1 v 1 h -1 v 1 h -1 v 1 h -1 v 1 h -1 v 1 h -1 v 1 h -1 v 1 h -1 v 2 h -1 v 1 h -1 v 1 h -1 v 1 h -1 v 1 h -1 v 2 h -1 v 1 h -1 v 1 h -1 v 1 h -1 v 1 h -1 v 1 h -1 v 2 h -1 v 1 h -1 v 1 h -1 v 1 h -1 v 1 h -1 v 2 h -1 v 1 h -1 v 1 h -1 v 1 h -1 v 1 h -1 v 2 h -1 v 1 h -1 v 1 h -1 v 1 h -1 v 1 h -1 v 2 h -1 v 1 h -1 v 1 h -1 v 2 h -1 v 1 h -1 v 1 h -1 v 2 h -1 v 1 h -1 v 1 h -1 v 1 h -1 v 2 h -1 v 1 h -1 v 1 h -1 v 2 h -1 v 1 h -1 v 1 h -1 v 2 h -1 v 1 h -1 v 1 h -1 v 2 h -1 v 1 h -1 v 1 h -1 v 1 h -1 v 2 h -1 v 1 h -1 v 1 h -1 v 2 h -1 v 1 h -1 v 2 h -1 v 1 h -1 v 2 h -1 v 1 h -1 v 1 h -1 v 2 h -1 v 1 h -1 v 2 h -1 v 1 h -1 v 1 h -1 v 2 h -1 v 1 h -1 v 2 h -1 v 1 h -1 v 2 h -1 v 1 h -1 v 1 h -1 v 2 h -1 v 1 h -1 v 2 h -1 v 1 h -1 v 2 h -1 v 1 h -1 v 2 h -1 v 1 h -1 v 2 h -1 v 1 h -1 v 2 h -1 v 2 h -1 v 1 h -1 v 2 h -1 v 1 h -1 v 2 h -1 v 1 h -1 v 2 h -1 v 1 h -1 v 2 h -1 v 2 h -1 v 1 h -1 v 2 h -1 v 1 h -1 v 2 h -1 v 1 h -1 v 2 h -1 v 2 h -1 v 1 h -1 v 2 h -1 v 2 h -1 v 2 h -1 v 1 h -1 v 2 h -1 v 2 h -1 v 1 h -1 v 2 h -1 v 2 h -1 v 1 h -1 v 2 h -1 v 2 h -1 v 2 h -1 v 1 h -1 v 2 h -1 v 2 h -1 v 1 h -1 v 2 h -1 v 2 h -1 v 2 h -1 v 2 h -1 v 2 h -1 v 2 h -1 v 1 h -1 v 2 h -1 v 2 h -1 v 2 h -1 v 2 h -1 v 2 h -1 v 2 h -1 v 2 h -1 v 2 h -1 v 1 h -1 v 2 h -1 v 2 h -1 v 2 h -1 v 2 h -1 v 2 h -1 v 2 h -1 v 2 h -1 v 2 h -1 v 3 h -1 v 2 h -1 v 2 h -1 v 2 h -1 v 2 h -1 v 2 h -1 v 2 h -1 v 2 h -1 v 2 h -1 v 2 h -1 v 2 h -1 v 2 h -1 v 3 h -1 v 2 h -1 v 2 h -1 v 3 h -1 v 2 h -1 v 2 h -1 v 3 h -1 v 2 h -1 v 2 h -1 v 3 h -1 v 2 h -1 v 2 h -1 v 3 h -1 v 2 h -1 v 2 h -1 v 3 h -1 v 2 h -1 v 3 h -1 v 3 h -1 v 2 h -1 v 3 h -1 v 3 h -1 v 2 h -1 v 3 h -1 v 3 h -1 v 2 h -1 v 3 h -1 v 2 h -1 v 3 h -1 v 3 h -1 v 3 h -1 v 3 h -1 v 3 h -1 v 3 h -1 v 3 h -1 v 3 h -1 v 3 h -1 v 3 h -1 v 3 h -1 v 3 h -1 v 3 h -1 v 3 h -1 v 4 h -1 v 3 h -1 v 4 h -1 v 3 h -1 v 4 h -1 v 4 h -1 v 3 h -1 v 4 h -1 v 3 h -1 v 4 h -1 v 4 h -1 v 4 h -1 v 4 h -1 v 4 h -1 v 4 h -1 v 5 h -1 v 4 h -1 v 4 h -1 v 5 h -1 v 5 h -1 v 5 h -1 v 5 h -1 v 5 h -1 v 5 h -1 v 5 h -1 v 5 h -1 v 5 h -1 v 5 h -1 v 6 h -1 v 5 h -1 v 5 h -1 v 6 h -1 v 5 h -1 v 6 h -1 v 5 h -1 v 6 h -1 v 6 h -1 v 6 h -1 v 5 h -1 v 6 h -1 v 6 h -1 v 7 h -1 v 6 h -1 v 7 h -1 v 7 h -1 v 6 h -1 v 8 H 9 v 7 H 8 v 8 H 7 v 8 H 6 v 8 H 5 v 11 H 4 v 10 H 3 v 11 H 2 v 14 H 1 v 16 H 0 v 73 h 1 v 16 h 1 v 12 h 1 v 9 h 1 v 8 h 1 v 8 h 1 v 6 h 1 v 6 h 1 v 6 h 1 v 6 h 1 v 5 h 1 v 4 h 1 v 5 h 1 v 4 h 1 v 5 h 1 v 5 h 1 v 3 h 1 v 4 h 1 v 3 h 1 v 4 h 1 v 4 h 1 v 3 h 1 v 4 h 1 v 3 h 1 v 3 h 1 v 3 h 1 v 3 h 1 v 3 h 1 v 3 h 1 v 3 h 1 v 3 h 1 v 3 h 1 v 2 h 1 v 3 h 1 v 2 h 1 v 3 h 1 v 2 h 1 v 3 h 1 v 2 h 1 v 3 h 1 v 2 h 1 v 3 h 1 v 2 h 1 v 3 h 1 v 2 h 1 v 2 h 1 v 2 h 1 v 2 h 1 v 2 h 1 v 2 h 1 v 3 h 1 v 2 h 1 v 2 h 1 v 2 h 1 v 2 h 1 v 2 h 1 v 2 h 1 v 2 h 1 v 2 h 1 v 2 h 1 v 2 h 1 v 2 h 1 v 2 h 1 v 1 h 1 v 2 h 1 v 2 h 1 v 2 h 1 v 2 h 1 v 2 h 1 v 2 h 1 v 2 h 1 v 1 h 1 v 2 h 1 v 2 h 1 v 1 h 1 v 2 h 1 v 2 h 1 v 1 h 1 v 2 h 1 v 2 h 1 v 1 h 1 v 2 h 1 v 2 h 1 v 1 h 1 v 2 h 1 v 2 h 1 v 1 h 1 v 2 h 1 v 1 h 1 v 2 h 1 v 1 h 1 v 2 h 1 v 1 h 1 v 2 h 1 v 1 h 1 v 2 h 1 v 1 h 1 v 2 h 1 v 1 h 1 v 2 h 1 v 1 h 1 v 2 h 1 v 1 h 1 v 2 h 1 v 1 h 1 v 2 h 1 v 1 h 1 v 2 h 1 v 1 h 1 v 1 h 1 v 2 h 1 v 1 h 1 v 2 h 1 v 1 h 1 v 1 h 1 v 2 h 1 v 1 h 1 v 1 h 1 v 2 h 1 v 1 h 1 v 2 h 1 v 1 h 1 v 1 h 1 v 2 h 1 v 1 h 1 v 1 h 1 v 2 h 1 v 1 h 1 v 1 h 1 v 2 h 1 v 1 h 1 v 1 h 1 v 1 h 1 v 2 h 1 v 1 h 1 v 1 h 1 v 1 h 1 v 2 h 1 v 1 h 1 v 1 h 1 v 2 h 1 v 1 h 1 v 1 h 1 v 1 h 1 v 2 h 1 v 1 h 1 v 1 h 1 v 1 h 1 v 2 h 1 v 1 h 1 v 1 h 1 v 1 h 1 v 1 h 1 v 2 h 1 v 1 h 1 v 1 h 1 v 1 h 1 v 1 h 1 v 1 h 1 v 2 h 1 v 1 h 1 v 1 h 1 v 1 h 1 v 1 h 1 v 2 h 1 v 1 h 1 v 1 h 1 v 1 h 1 v 1 h 1 v 1 h 1 v 2 h 1 v 1 h 1 v 1 h 1 v 1 h 1 v 1 h 1 v 1 h 1 v 1 h 1 v 2 h 1 v 1 h 1 v 1 h 1 v 1 h 1 v 1 h 1 v 1 h 1 v 1 h 1 v 1 h 1 v 1 h 1 v 2 h 1 v 1 h 1 v 1 h 1 v 1 h 1 v 1 h 1 v 1 h 1 v 1 h 1 v 1 h 1 v 1 h 1 v 2 h 1 v 1 h 1 v 1 h 1 v 1 h 1 v 1 h 1 v 1 h 1 v 1 h 1 v 1 h 1 v 1 h 1 v 1 h 1 v 1 h 1 v 1 h 1 v 1 h 1 v 1 h 1 v 1 h 1 v 1 h 1 v 1 h 1 v 1 h 1 v 1 h 1 v 1 h 1 v 1 h 1 v 2 h 1 v 1 h 1 v 1 h 1 v 1 h 1 v 1 h 1 v 1 h 1 v 1 h 1 v 1 h 1 v 1 h 1 v 1 h 1 v 1 h 1 v 1 h 1 v 1 h 1 v 1 h 1 v 1 h 1 v 1 h 1 v 1 h 1 v 1 h 1 v 1 h 1 v 1 h 2 v 1 h 1 v 1 h 1 v 1 h 1 v 1 h 1 v 1 h 1 v 1 h 1 v 1 h 1 v 1 h 1 v 1 h 1 v 1 h 1 v 1 h 1 v 1 h 1 v 1 h 1 v 1 h 1 v 1 h 1 v 1 h 1 v 1 h 2 v 1 h 1 v 1 h 1 v 1 h 1 v 1 h 1 v 1 h 1 v 1 h 1 v 1 h 1 v 1 h 1 v 1 h 1 v 1 h 1 v 1 h 1 v 1 h 2 v 1 h 1 v 1 h 1 v 1 h 1 v 1 h 1 v 1 h 1 v 1 h 1 v 1 h 2 v 1 h 1 v 1 h 1 v 1 h 1 v 1 h 1 v 1 h 1 v 1 h 2 v 1 h 1 v 1 h 1 v 1 h 1 v 1 h 1 v 1 h 1 v 1 h 2 v 1 h 1 v 1 h 1 v 1 h 1 v 1 h 1 v 1 h 1 v 1 h 1 v 1 h 2 v 1 h 1 v 1 h 1 v 1 h 2 v 1 h 1 v 1 h 1 v 1 h 1 v 1 h 2 v 1 h 1 v 1 h 1 v 1 h 1 v 1 h 2 v 1 h 1 v 1 h 1 v 1 h 1 v 1 h 2 v 1 h 1 v 1 h 1 v 1 h 2 v 1 h 1 v 1 h 1 v 1 h 1 v 1 h 2 v 1 h 1 v 1 h 1 v 1 h 1 v 1 h 2 v 1 h 1 v 1 h 2 v 1 h 1 v 1 h 1 v 1 h 2 v 1 h 1 v 1 h 2 v 1 h 1 v 1 h 1 v 1 h 2 v 1 h 1 v 1 h 2 v 1 h 1 v 1 h 1 v 1 h 2 v 1 h 1 v 1 h 2 v 1 h 1 v 1 h 1 v 1 h 2 v 1 h 1 v 1 h 2 v 1 h 1 v 1 h 2 v 1 h 1 v 1 h 2 v 1 h 1 v 1 h 2 v 1 h 1 v 1 h 2 v 1 h 1 v 1 h 2 v 1 h 2 v 1 h 1 v 1 h 2 v 1 h 1 v 1 h 2 v 1 h 1 v 1 h 2 v 1 h 2 v 1 h 1 v 1 h 2 v 1 h 1 v 1 h 2 v 1 h 1 v 1 h 2 v 1 h 2 v 1 h 2 v 1 h 1 v 1 h 2 v 1 h 2 v 1 h 2 v 1 h 1 v 1 h 2 v 1 h 2 v 1 h 2 v 1 h 1 v 1 h 2 v 1 h 2 v 1 h 2 v 1 h 1 v 1 h 2 v 1 h 2 v 1 h 2 v 1 h 1 v 1 h 2 v 1 h 2 v 1 h 2 v 1 h 2 v 1 h 2 v 1 h 2 v 1 h 2 v 1 h 2 v 1 h 2 v 1 h 2 v 1 h 2 v 1 h 2 v 1 h 2 v 1 h 2 v 1 h 2 v 1 h 2 v 1 h 2 v 1 h 2 v 1 h 2 v 1 h 3 v 1 h 2 v 1 h 2 v 1 h 2 v 1 h 3 v 1 h 2 v 1 h 2 v 1 h 3 v 1 h 2 v 1 h 2 v 1 h 2 v 1 h 3 v 1 h 2 v 1 h 2 v 1 h 3 v 1 h 2 v 1 h 3 v 1 h 3 v 1 h 2 v 1 h 3 v 1 h 3 v 1 h 2 v 1 h 3 v 1 h 3 v 1 h 2 v 1 h 3 v 1 h 3 v 1 h 2 v 1 h 3 v 1 h 4 v 1 h 3 v 1 h 3 v 1 h 3 v 1 h 3 v 1 h 4 v 1 h 3 v 1 h 3 v 1 h 3 v 1 h 3 v 1 h 4 v 1 h 4 v 1 h 4 v 1 h 4 v 1 h 4 v 1 h 4 v 1 h 4 v 1 h 4 v 1 h 4 v 1 h 4 v 1 h 5 v 1 h 5 v 1 h 5 v 1 h 5 v 1 h 5 v 1 h 5 v 1 h 6 v 1 h 6 v 1 h 7 v 1 h 8 v 1 h 7 v 1 h 7 v 1 h 9 v 1 h 13 v 1 h 12 v 1 h 16 v 1 h 63 v -1 h 22 v -1 h 12 v -1 h 11 v -1 h 10 v -1 h 8 v -1 h 8 v -1 h 7 v -1 h 8 v -1 h 7 v -1 h 5 v -1 h 6 v -1 h 6 v -1 h 6 v -1 h 5 v -1 h 6 v -1 h 5 v -1 h 4 v -1 h 5 v -1 h 4 v -1 h 5 v -1 h 4 v -1 h 5 v -1 h 5 v -1 h 3 v -1 h 4 v -1 h 4 v -1 h 4 v -1 h 4 v -1 h 4 v -1 h 3 v -1 h 4 v -1 h 4 v -1 h 4 v -1 h 3 v -1 h 3 v -1 h 4 v -1 h 3 v -1 h 3 v -1 h 4 v -1 h 3 v -1 h 3 v -1 h 3 v -1 h 4 v -1 h 3 v -1 h 3 v -1 h 3 v -1 h 3 v -1 h 3 v -1 h 3 v -1 h 2 v -1 h 3 v -1 h 3 v -1 h 3 v -1 h 3 v -1 h 3 v -1 h 3 v -1 h 3 v -1 h 2 v -1 h 3 v -1 h 3 v -1 h 2 v -1 h 3 v -1 h 2 v -1 h 3 v -1 h 3 v -1 h 2 v -1 h 3 v -1 h 2 v -1 h 3 v -1 h 2 v -1 h 3 v -1 h 3 v -1 h 2 v -1 h 2 v -1 h 3 v -1 h 2 v -1 h 2 v -1 h 3 v -1 h 2 v -1 h 2 v -1 h 3 v -1 h 2 v -1 h 2 v -1 h 3 v -1 h 2 v -1 h 3 v -1 h 2 v -1 h 2 v -1 h 3 v -1 h 2 v -1 h 2 v -1 h 2 v -1 h 2 v -1 h 2 v -1 h 2 v -1 h 3 v -1 h 2 v -1 h 2 v -1 h 2 v -1 h 2 v -1 h 2 v -1 h 2 v -1 h 2 v -1 h 3 v -1 h 2 v -1 h 2 v -1 h 2 v -1 h 2 v -1 h 2 v -1 h 2 v -1 h 2 v -1 h 2 v -1 h 2 v -1 h 2 v -1 h 2 v -1 h 2 v -1 h 2 v -1 h 2 v -1 h 2 v -1 h 2 v -1 h 2 v -1 h 2 v -1 h 2 v -1 h 2 v -1 h 2 v -1 h 1 v -1 h 2 v -1 h 2 v -1 h 2 v -1 h 2 v -1 h 2 v -1 h 2 v -1 h 1 v -1 h 2 v -1 h 2 v -1 h 2 v -1 h 2 v -1 h 2 v -1 h 1 v -1 h 2 v -1 h 2 v -1 h 2 v -1 h 2 v -1 h 2 v -1 h 1 v -1 h 2 v -1 h 2 v -1 h 2 v -1 h 2 v -1 h 1 v -1 h 2 v -1 h 2 v -1 h 2 v -1 h 1 v -1 h 2 v -1 h 2 v -1 h 1 v -1 h 2 v -1 h 2 v -1 h 1 v -1 h 2 v -1 h 2 v -1 h 2 v -1 h 1 v -1 h 2 v -1 h 2 v -1 h 1 v -1 h 2 v -1 h 2 v -1 h 2 v -1 h 1 v -1 h 2 v -1 h 2 v -1 h 1 v -1 h 2 v -1 h 1 v -1 h 2 v -1 h 2 v -1 h 1 v -1 h 2 v -1 h 1 v -1 h 2 v -1 h 2 v -1 h 1 v -1 h 2 v -1 h 1 v -1 h 2 v -1 h 2 v -1 h 1 v -1 h 2 v -1 h 1 v -1 h 2 v -1 h 2 v -1 h 1 v -1 h 2 v -1 h 1 v -1 h 2 v -1 h 2 v -1 h 1 v -1 h 2 v -1 h 1 v -1 h 2 v -1 h 1 v -1 h 2 v -1 h 1 v -1 h 2 v -1 h 1 v -1 h 2 v -1 h 1 v -1 h 2 v -1 h 1 v -1 h 2 v -1 h 1 v -1 h 2 v -1 h 1 v -1 h 2 v -1 h 1 v -1 h 2 v -1 h 1 v -1 h 2 v -1 h 1 v -1 h 2 v -1 h 1 v -1 h 2 v -1 h 1 v -1 h 2 v -1 h 1 v -1 h 2 v -1 h 1 v -1 h 1 v -1 h 2 v -1 h 1 v -1 h 2 v -1 h 1 v -1 h 2 v -1 h 1 v -1 h 2 v -1 h 1 v -1 h 1 v -1 h 2 v -1 h 1 v -1 h 2 v -1 h 1 v -1 h 2 v -1 h 1 v -1 h 1 v -1 h 2 v -1 h 1 v -1 h 2 v -1 h 1 v -1 h 1 v -1 h 2 v -1 h 1 v -1 h 2 v -1 h 1 v -1 h 1 v -1 h 2 v -1 h 1 v -1 h 1 v -1 h 2 v -1 h 1 v -1 h 1 v -1 h 2 v -1 h 1 v -1 h 1 v -1 h 1 v -1 h 2 v -1 h 1 v -1 h 1 v -1 h 2 v -1 h 1 v -1 h 1 v -1 h 2 v -1 h 1 v -1 h 1 v -1 h 1 v -1 h 2 v -1 h 1 v -1 h 1 v -1 h 1 v -1 h 1 v -1 h 2 v -1 h 1 v -1 h 1 v -1 h 1 v -1 h 1 v -1 h 1 v -1 h 2 v -1 h 1 v -1 h 1 v -1 h 1 v -1 h 1 v -1 h 2 v -1 h 1 v -1 h 1 v -1 h 1 v -1 h 1 v -1 h 1 v -1 h 2 v -1 h 1 v -1 h 1 v -1 h 1 v -1 h 1 v -1 h 1 v -1 h 1 v -1 h 1 v -1 h 1 v -1 h 1 v -1 h 2 v -1 h 1 v -1 h 1 v -1 h 1 v -1 h 1 v -1 h 1 v -1 h 1 v -1 h 1 v -1 h 1 v -1 h 1 v -1 h 1 v -1 h 1 v -1 h 1 v -1 h 1 v -1 h 1 v -1 h 1 v -1 h 1 v -1 h 1 v -1 h 2 v -1 h 1 v -1 h 1 v -1 h 1 v -2 h 1 v -1 h 1 v -1 h 1 v -1 h 1 v -1 h 1 v -1 h 1 v -1 h 1 v -1 h 1 v -1 h 1 v -1 h 1 v -1 h 1 v -1 h 1 v -1 h 1 v -1 h 1 v -1 h 1 v -1 h 1 v -1 h 1 v -2 h 1 v -1 h 1 v -1 h 1 v -1 h 1 v -1 h 1 v -1 h 1 v -1 h 1 v -1 h 1 v -1 h 1 v -1 h 1 v -2 h 1 v -1 h 1 v -1 h 1 v -1 h 1 v -1 h 1 v -2 h 1 v -1 h 1 v -1 h 1 v -1 h 1 v -1 h 1 v -1 h 1 v -2 h 1 v -1 h 1 v -1 h 1 v -1 h 1 v -1 h 1 v -2 h 1 v -1 h 1 v -1 h 1 v -1 h 1 v -1 h 1 v -2 h 1 v -1 h 1 v -1 h 1 v -2 h 1 v -1 h 1 v -1 h 1 v -2 h 1 v -1 h 1 v -1 h 1 v -2 h 1 v -1 h 1 v -1 h 1 v -2 h 1 v -1 h 1 v -1 h 1 v -2 h 1 v -1 h 1 v -1 h 1 v -2 h 1 v -1 h 1 v -1 h 1 v -2 h 1 v -1 h 1 v -2 h 1 v -1 h 1 v -2 h 1 v -1 h 1 v -2 h 1 v -1 h 1 v -2 h 1 v -1 h 1 v -2 h 1 v -1 h 1 v -2 h 1 v -1 h 1 v -2 h 1 v -2 h 1 v -1 h 1 v -2 h 1 v -1 h 1 v -2 h 1 v -1 h 1 v -2 h 1 v -1 h 1 v -2 h 1 v -2 h 1 v -2 h 1 v -1 h 1 v -2 h 1 v -2 h 1 v -2 h 1 v -1 h 1 v -2 h 1 v -2 h 1 v -2 h 1 v -1 h 1 v -2 h 1 v -2 h 1 v -2 h 1 v -1 h 1 v -2 h 1 v -2 h 1 v -2 h 1 v -2 h 1 v -2 h 1 v -2 h 1 v -2 h 1 v -2 h 1 v -2 h 1 v -2 h 1 v -2 h 1 v -2 h 1 v -3 h 1 v -2 h 1 v -2 h 1 v -2 h 1 v -2 h 1 v -2 h 1 v -2 h 1 v -3 h 1 v -2 h 1 v -2 h 1 v -3 h 1 v -2 h 1 v -3 h 1 v -2 h 1 v -2 h 1 v -3 h 1 v -2 h 1 v -3 h 1 v -2 h 1 v -3 h 1 v -3 h 1 v -3 h 1 v -2 h 1 v -3 h 1 v -3 h 1 v -3 h 1 v -3 h 1 v -3 h 1 v -3 h 1 v -3 h 1 v -3 h 1 v -3 h 1 v -4 h 1 v -3 h 1 v -4 h 1 v -3 h 1 v -4 h 1 v -4 h 1 v -3 h 1 v -4 h 1 v -3 h 1 v -5 h 1 v -5 h 1 v -4 h 1 v -5 h 1 v -5 h 1 v -5 h 1 v -4 h 1 v -6 h 1 v -6 h 1 v -7 h 1 v -6 h 1 v -7 h 1 v -7 h 1 v -10 h 1 v -11 h 1 v -11 h 1 v -17 h 1 v -58 h -1 v -18 h -1 v -16 h -1 v -8 h -1 v -7 h -1 v -8 h -1 v -7 h -1 v -8 h -1 v -8 h -1 v -7 h -1 v -8 h -1 v -6 h -1 v -4 h -1 v -5 h -1 v -4 h -1 v -5 h -1 v -4 h -1 v -5 h -1 v -5 h -1 v -4 h -1 v -5 h -1 v -4 h -1 v -5 h -1 v -5 h -1 v -4 h -1 v -4 h -1 v -4 h -1 v -3 h -1 v -4 h -1 v -3 h -1 v -4 h -1 v -3 h -1 v -4 h -1 v -3 h -1 v -3 h -1 v -4 h -1 v -3 h -1 v -4 h -1 v -3 h -1 v -4 h -1 v -3 h -1 v -3 h -1 v -3 h -1 v -2 h -1 v -3 h -1 v -3 h -1 v -3 h -1 v -3 h -1 v -3 h -1 v -3 h -1 v -3 h -1 v -2 h -1 v -3 h -1 v -2 h -1 v -3 h -1 v -2 h -1 v -3 h -1 v -2 h -1 v -3 h -1 v -2 h -1 v -3 h -1 v -3 h -1 v -2 h -1 v -3 h -1 v -2 h -1 v -3 h -1 v -2 h -1 v -2 h -1 v -2 h -1 v -3 h -1 v -2 h -1 v -2 h -1 v -2 h -1 v -2 h -1 v -3 h -1 v -2 h -1 v -2 h -1 v -2 h -1 v -3 h -1 v -2 h -1 v -2 h -1 v -2 h -1 v -2 h -1 v -3 h -1 v -2 h -1 v -2 h -1 v -2 h -1 v -2 h -1 v -3 h -1 v -2 h -1 v -2 h -1 v -2 h -1 v -2 h -1 v -1 h -1 v -2 h -1 v -2 h -1 v -2 h -1 v -2 h -1 v -2 h -1 v -2 h -1 v -2 h -1 v -2 h -1 v -2 h -1 v -2 h -1 v -1 h -1 v -2 h -1 v -2 h -1 v -2 h -1 v -2 h -1 v -2 h -1 v -2 h -1 v -2 h -1 v -2 h -1 v -2 h -1 v -2 h -1 v -1 h -1 v -2 h -1 v -2 h -1 v -2 h -1 v -1 h -1 v -2 h -1 v -2 h -1 v -1 h -1 v -2 h -1 v -2 h -1 v -1 h -1 v -2 h -1 v -2 h -1 v -1 h -1 v -2 h -1 v -2 h -1 v -1 h -1 v -2 h -1 v -2 h -1 v -1 h -1 v -2 h -1 v -2 h -1 v -1 h -1 v -2 h -1 v -2 h -1 v -2 h -1 v -1 h -1 v -2 h -1 v -2 h -1 v -1 h -1 v -2 h -1 v -1 h -1 v -2 h -1 v -1 h -1 v -2 h -1 v -1 h -1 v -2 h -1 v -1 h -1 v -2 h -1 v -1 h -1 v -2 h -1 v -1 h -1 v -2 h -1 v -1 h -1 v -2 h -1 v -1 h -1 v -2 h -1 v -1 h -1 v -2 h -1 v -1 h -1 v -2 h -1 v -1 h -1 v -2 h -1 v -1 h -1 v -2 h -1 v -1 h -1 v -2 h -1 v -1 h -1 v -2 h -1 v -1 h -1 v -2 h -1 v -1 h -1 v -2 h -1 v -1 h -1 v -2 h -1 v -1 h -1 v -1 h -1 v -2 h -1 v -1 h -1 v -1 h -1 v -2 h -1 v -1 h -1 v -1 h -1 v -2 h -1 v -1 h -1 v -1 h -1 v -2 h -1 v -1 h -1 v -1 h -1 v -2 h -1 v -1 h -1 v -1 h -1 v -2 h -1 v -1 h -1 v -1 h -1 v -2 h -1 v -1 h -1 v -1 h -1 v -2 h -1 v -1 h -1 v -1 h -1 v -2 h -1 v -1 h -1 v -1 h -1 v -2 h -1 v -1 h -1 v -1 h -1 v -2 h -1 v -1 h -1 v -1 h -1 v -1 h -1 v -2 h -1 v -1 h -1 v -1 h -1 v -1 h -1 v -1 h -1 v -2 h -1 v -1 h -1 v -1 h -1 v -1 h -1 v -1 h -1 v -2 h -1 v -1 h -1 v -1 h -1 v -1 h -1 v -2 h -1 v -1 h -1 v -1 h -1 v -1 h -1 v -1 h -1 v -2 h -1 v -1 h -1 v -1 h -1 v -1 h -1 v -1 h -1 v -2 h -1 v -1 h -1 v -1 h -1 v -1 h -1 v -1 h -1 v -2 h -1 v -1 h -1 v -1 h -1 v -1 h -1 v -1 h -1 v -2 h -1 v -1 h -1 v -1 h -1 v -1 h -1 v -1 h -1 v -1 h -1 v -1 h -1 v -1 h -1 v -1 h -1 v -1 h -1 v -2 h -1 v -1 h -1 v -1 h -1 v -1 h -1 v -1 h -1 v -1 h -1 v -1 h -1 v -1 h -1 v -1 h -1 v -1 h -1 v -1 h -1 v -2 h -1 v -1 h -1 v -1 h -1 v -1 h -1 v -1 h -1 v -1 h -1 v -1 h -1 v -1 h -1 v -1 h -1 v -1 h -1 v -1 h -1 v -1 h -1 v -2 h -1 v -1 h -1 v -1 h -1 v -1 h -1 v -1 h -1 v -1 h -1 v -1 h -1 v -1 h -1 v -1 h -1 v -1 h -1 v -1 h -1 v -1 h -1 v -1 h -1 v -1 h -1 v -1 h -1 v -1 h -1 v -1 h -1 v -1 h -1 v -1 h -1 v -1 h -1 v -1 h -1 v -1 h -1 v -1 h -1 v -1 h -1 v -1 h -1 v -1 h -1 v -1 h -1 v -1 h -1 v -1 h -1 v -1 h -1 v -1 h -1 v -1 h -1 v -1 h -1 v -1 h -1 v -1 h -1 v -1 h -1 v -1 h -1 v -1 h -1 v -1 h -1 v -1 h -1 v -1 h -1 v -1 h -1 v -1 h -1 v -1 h -1 v -1 h -1 v -1 h -1 v -1 h -1 v -1 h -1 v -1 h -1 v -1 h -2 v -1 h -1 v -1 h -1 v -1 h -1 v -1 h -1 v -1 h -1 v -1 h -1 v -1 h -1 v -1 h -2 v -1 h -1 v -1 h -1 v -1 h -1 v -1 h -1 v -1 h -1 v -1 h -1 v -1 h -1 v -1 h -2 v -1 h -1 v -1 h -1 v -1 h -1 v -1 h -1 v -1 h -1 v -1 h -1 v -1 h -2 v -1 h -1 v -1 h -1 v -1 h -1 v -1 h -1 v -1 h -1 v -1 h -1 v -1 h -1 v -1 h -2 v -1 h -1 v -1 h -1 v -1 h -1 v -1 h -1 v -1 h -1 v -1 h -1 v -1 h -1 v -1 h -2 v -1 h -1 v -1 h -1 v -1 h -1 v -1 h -2 v -1 h -1 v -1 h -1 v -1 h -1 v -1 h -2 v -1 h -1 v -1 h -1 v -1 h -2 v -1 h -1 v -1 h -1 v -1 h -1 v -1 h -2 v -1 h -1 v -1 h -1 v -1 h -1 v -1 h -2 v -1 h -1 v -1 h -1 v -1 h -1 v -1 h -2 v -1 h -1 v -1 h -1 v -1 h -1 v -1 h -2 v -1 h -1 v -1 h -1 v -1 h -1 v -1 h -2 v -1 h -1 v -1 h -1 v -1 h -1 v -1 h -2 v -1 h -1 v -1 h -1 v -1 h -2 v -1 h -1 v -1 h -2 v -1 h -1 v -1 h -2 v -1 h -1 v -1 h -1 v -1 h -2 v -1 h -1 v -1 h -2 v -1 h -1 v -1 h -1 v -1 h -2 v -1 h -1 v -1 h -2 v -1 h -1 v -1 h -1 v -1 h -2 v -1 h -1 v -1 h -2 v -1 h -1 v -1 h -1 v -1 h -2 v -1 h -1 v -1 h -2 v -1 h -1 v -1 h -1 v -1 h -2 v -1 h -1 v -1 h -2 v -1 h -1 v -1 h -2 v -1 h -1 v -1 h -2 v -1 h -1 v -1 h -2 v -1 h -2 v -1 h -1 v -1 h -2 v -1 h -1 v -1 h -2 v -1 h -2 v -1 h -1 v -1 h -2 v -1 h -1 v -1 h -2 v -1 h -2 v -1 h -1 v -1 h -2 v -1 h -1 v -1 h -2 v -1 h -2 v -1 h -1 v -1 h -2 v -1 h -1 v -1 h -2 v -1 h -2 v -1 h -1 v -1 h -2 v -1 h -1 v -1 h -2 v -1 h -2 v -1 h -2 v -1 h -1 v -1 h -2 v -1 h -2 v -1 h -2 v -1 h -2 v -1 h -2 v -1 h -1 v -1 h -2 v -1 h -2 v -1 h -2 v -1 h -2 v -1 h -2 v -1 h -1 v -1 h -2 v -1 h -2 v -1 h -2 v -1 h -2 v -1 h -2 v -1 h -1 v -1 h -2 v -1 h -2 v -1 h -2 v -1 h -2 v -1 h -1 v -1 h -3 v -1 h -2 v -1 h -2 v -1 h -2 v -1 h -2 v -1 h -2 v -1 h -2 v -1 h -3 v -1 h -2 v -1 h -2 v -1 h -2 v -1 h -2 v -1 h -2 v -1 h -2 v -1 h -3 v -1 h -2 v -1 h -2 v -1 h -2 v -1 h -2 v -1 h -2 v -1 h -2 v -1 h -3 v -1 h -2 v -1 h -2 v -1 h -3 v -1 h -2 v -1 h -3 v -1 h -2 v -1 h -3 v -1 h -2 v -1 h -3 v -1 h -2 v -1 h -3 v -1 h -2 v -1 h -3 v -1 h -2 v -1 h -3 v -1 h -2 v -1 h -3 v -1 h -3 v -1 h -3 v -1 h -3 v -1 h -3 v -1 h -3 v -1 h -2 v -1 h -3 v -1 h -3 v -1 h -3 v -1 h -4 v -1 h -3 v -1 h -4 v -1 h -3 v -1 h -4 v -1 h -3 v -1 h -4 v -1 h -3 v -1 h -4 v -1 h -3 v -1 h -4 v -1 h -3 v -1 h -4 v -1 h -4 v -1 h -5 v -1 h -5 v -1 h -4 v -1 h -5 v -1 h -5 v -1 h -4 v -1 h -5 v -1 h -4 v -1 h -5 v -1 h -5 v -1 h -4 v -1 h -5 V 9 h -8 V 8 h -8 V 7 h -8 V 6 h -7 V 5 h -8 V 4 h -8 V 3 h -8 V 2 H 850 V 1 H 831 V 0" />
            </g>
          </g>
        </g>
        <path
           inkscape:connector-curvature="0"
           id="path36"
           style="fill:#ffffff;fill-opacity:1;fill-rule:nonzero;stroke:none"
           d="M 533.102,892.848 H 474.77 l -0.067,-1.653 c -0.469,-11.312 -7.199,-110.55 -95.988,-110.55 -79.356,0 -119.629,71.113 -119.715,211.386 0.086,140.269 40.359,211.399 119.715,211.399 90.332,0 95.801,-106.05 95.988,-110.55 l 0.067,-1.65 h 58.332 c 5.39,0 10.625,2.21 14.375,6.06 3.601,3.7 5.449,8.48 5.203,13.45 -1.219,27.53 -15.332,164.81 -174.785,164.81 -128.868,0 -196.973,-97.93 -196.973,-283.222 0,-185.668 68.105,-283.812 196.973,-283.812 153.468,0 172.55,125.39 174.757,163.812 0.379,5.309 -1.437,10.402 -5.156,14.317 -3.723,3.945 -8.996,6.203 -14.394,6.203" />
        <path
           inkscape:connector-curvature="0"
           id="path38"
           style="fill:#66cde2;fill-opacity:1;fill-rule:nonzero;stroke:none"
           d="m 1379.5,1025.75 0.02,-0.02 -50.26,21.91 c -48.31,21.23 -65.44,41.88 -65.44,78.95 0,48.32 35.34,80.8 87.96,80.8 31.11,0 56.62,-6.38 87.77,-38.11 l 1.72,-1.74 26.8,24.53 c 15.53,14.41 11.04,27.4 4.55,35.74 -26.15,30.86 -68.14,47.8 -118.28,47.8 -96.69,0 -166.88,-63.07 -166.88,-149.98 0,-85.47 53.86,-121.2 112.04,-147.06 l 51.27,-22.886 c 51.52,-23.102 76.05,-42.809 76.05,-92.379 0,-67.602 -61.09,-85.629 -97.19,-85.629 -31.05,0 -65.62,6.64 -108.1,54.765 l -1.66,1.895 -27.93,-24.531 c -14.37,-12.637 -14.49,-23.477 -0.49,-41.485 38.46,-49.433 94.82,-59.804 135.35,-59.804 87.64,0 176.37,53.828 176.37,156.699 0,89.047 -49.44,128.574 -123.67,160.535" />
        <path
           inkscape:connector-curvature="0"
           id="path40"
           style="fill:#66cde2;fill-opacity:1;fill-rule:nonzero;stroke:none"
           d="m 924.125,1113.32 c 0,87.54 -70.937,161.7 -158.516,161.7 -41.179,0 -78.679,-15.7 -106.875,-41.46 v 30.1 H 606 c -15.879,0 -21.941,-10.37 -21.941,-22.29 V 730.547 c 0,-14.375 8.769,-22.063 21.699,-22.063 H 658.5 c 0,0 0,401.716 0,401.736 0,52.77 42.813,95.56 95.578,95.56 52.762,0 95.567,-42.79 95.567,-95.56 0,-0.02 0,-401.802 0,-401.802 h 52.41 c 14.531,0 22.07,8.066 22.07,21.973 0,0 0,382.429 0,382.929" />
        <path
           inkscape:connector-curvature="0"
           id="path42"
           style="fill:#ffffff;fill-opacity:1;fill-rule:nonzero;stroke:none"
           d="m 1196.51,1236.84 c 2.75,3.41 4.45,7.71 4.45,12.42 0,8.79 -5.73,16.17 -13.61,18.85 -15.26,5.11 -31.51,7.91 -48.41,7.91 -41.18,0 -78.68,-15.7 -106.87,-41.45 v 30.08 h -52.738 c -15.891,0 -21.965,-10.37 -21.965,-22.29 V 731.543 c 0,-14.375 8.801,-22.063 21.731,-22.063 h 52.732 c 0,0 0,401.72 0,401.73 0,52.78 42.8,95.57 95.59,95.57 13.83,0 26.94,-3 38.79,-8.28 l 30.47,38.23 -0.17,0.11" />
        <path
           inkscape:connector-curvature="0"
           id="path44"
           style="fill:#ffffff;fill-opacity:1;fill-rule:nonzero;stroke:none"
           d="m 768.441,155.859 c 0,-7.832 -6.347,-14.16 -14.179,-14.16 v 0 c -7.813,0 -14.16,6.328 -14.16,14.16 v 963.791 c 0,7.83 6.347,14.18 14.16,14.18 v 0 c 7.832,0 14.179,-6.35 14.179,-14.18 V 155.859" />
      </g>
    </g>
  </g>
</svg>
