<?xml version="1.0" encoding="UTF-8"?>
<svg xmlns="http://www.w3.org/2000/svg" xmlns:xlink="http://www.w3.org/1999/xlink" width="18px" height="18px" viewBox="0 0 18 18" version="1.1">
<g id="surface1">
<path style=" stroke:none;fill-rule:nonzero;fill:rgb(0%,0%,0%);fill-opacity:1;" d="M 15.679688 9.359375 C 15.679688 9.035156 15.554688 8.726562 15.328125 8.503906 L 9.152344 2.328125 C 8.921875 2.101562 8.609375 1.96875 8.289062 1.96875 C 7.964844 1.96875 7.660156 2.101562 7.433594 2.328125 L 6.722656 3.039062 C 6.496094 3.257812 6.363281 3.570312 6.363281 3.894531 C 6.363281 4.21875 6.496094 4.53125 6.722656 4.75 L 9.503906 7.539062 L 2.824219 7.539062 C 2.140625 7.539062 1.714844 8.105469 1.714844 8.75 L 1.714844 9.964844 C 1.714844 10.609375 2.140625 11.183594 2.824219 11.183594 L 9.503906 11.183594 L 6.722656 13.960938 C 6.496094 14.1875 6.363281 14.503906 6.363281 14.824219 C 6.363281 15.144531 6.496094 15.457031 6.722656 15.6875 L 7.433594 16.398438 C 7.660156 16.617188 7.964844 16.75 8.289062 16.75 C 8.609375 16.75 8.921875 16.617188 9.152344 16.398438 L 15.328125 10.222656 C 15.554688 9.996094 15.679688 9.679688 15.679688 9.359375 "/>
</g>
</svg>
