<?xml version="1.0" encoding="UTF-8"?>
<svg xmlns="http://www.w3.org/2000/svg" xmlns:xlink="http://www.w3.org/1999/xlink" width="18px" height="18px" viewBox="0 0 18 18" version="1.1">
<g id="surface1">
<path style=" stroke:none;fill-rule:evenodd;fill:rgb(75.294119%,75.294119%,75.294119%);fill-opacity:1;" d="M 14.777344 9 C 14.777344 12.195312 12.195312 14.777344 9 14.777344 C 5.804688 14.777344 3.222656 12.195312 3.222656 9 C 3.222656 5.804688 5.804688 3.222656 9 3.222656 C 12.195312 3.222656 14.777344 5.804688 14.777344 9 Z M 14.777344 9 "/>
<path style=" stroke:none;fill-rule:evenodd;fill:rgb(93.725491%,16.078432%,16.078432%);fill-opacity:1;" d="M 5.570312 5.507812 C 7.492188 3.621094 10.578125 3.644531 12.472656 5.550781 C 14.371094 7.460938 14.367188 10.542969 12.46875 12.449219 L 9 9 Z M 5.570312 5.507812 "/>
<path style=" stroke:none;fill-rule:evenodd;fill:rgb(54.11765%,88.627452%,20.392157%);fill-opacity:1;" d="M 8.894531 13.890625 C 6.921875 13.847656 5.171875 12.628906 4.445312 10.796875 C 3.722656 8.960938 4.171875 6.875 5.582031 5.496094 L 9 9 Z M 8.894531 13.890625 "/>
<path style=" stroke:none;fill-rule:evenodd;fill:rgb(44.705883%,62.352943%,81.176472%);fill-opacity:1;" d="M 13.1875 11.535156 C 12.28125 13.03125 10.648438 13.925781 8.898438 13.890625 L 9 9 Z M 13.1875 11.535156 "/>
</g>
</svg>
