<?xml version="1.0" encoding="UTF-8"?>
<svg xmlns="http://www.w3.org/2000/svg" xmlns:xlink="http://www.w3.org/1999/xlink" width="18px" height="18px" viewBox="0 0 18 18" version="1.1">
<g id="surface1">
<path style=" stroke:none;fill-rule:nonzero;fill:rgb(0%,0%,0%);fill-opacity:1;" d="M 5.355469 15.433594 L 5.355469 11.789062 L 12.640625 11.789062 L 12.640625 15.433594 Z M 13.855469 15.433594 L 13.855469 11.484375 C 13.855469 10.984375 13.449219 10.574219 12.945312 10.574219 L 5.054688 10.574219 C 4.550781 10.574219 4.140625 10.984375 4.140625 11.484375 L 4.140625 15.433594 L 2.929688 15.433594 L 2.929688 3.289062 L 4.140625 3.289062 L 4.140625 7.234375 C 4.140625 7.738281 4.550781 8.144531 5.054688 8.144531 L 10.515625 8.144531 C 11.019531 8.144531 11.429688 7.738281 11.429688 7.234375 L 11.429688 3.289062 C 11.617188 3.289062 11.988281 3.441406 12.121094 3.574219 L 14.785156 6.238281 C 14.910156 6.363281 15.070312 6.75 15.070312 6.933594 L 15.070312 15.433594 Z M 10.214844 6.628906 C 10.214844 6.789062 10.070312 6.933594 9.910156 6.933594 L 8.089844 6.933594 C 7.925781 6.933594 7.785156 6.789062 7.785156 6.628906 L 7.785156 3.59375 C 7.785156 3.429688 7.925781 3.289062 8.089844 3.289062 L 9.910156 3.289062 C 10.070312 3.289062 10.214844 3.429688 10.214844 3.59375 Z M 16.285156 6.933594 C 16.285156 6.429688 16 5.738281 15.640625 5.375 L 12.984375 2.71875 C 12.625 2.359375 11.929688 2.074219 11.429688 2.074219 L 2.625 2.074219 C 2.121094 2.074219 1.714844 2.484375 1.714844 2.984375 L 1.714844 15.734375 C 1.714844 16.238281 2.121094 16.644531 2.625 16.644531 L 15.375 16.644531 C 15.878906 16.644531 16.285156 16.238281 16.285156 15.734375 Z M 16.285156 6.933594 "/>
</g>
</svg>
