<?xml version="1.0" encoding="UTF-8"?>
<svg xmlns="http://www.w3.org/2000/svg" xmlns:xlink="http://www.w3.org/1999/xlink" width="18px" height="18px" viewBox="0 0 18 18" version="1.1">
<g id="surface1">
<path style="fill-rule:evenodd;fill:rgb(20.392157%,39.607844%,64.313728%);fill-opacity:1;stroke-width:5.456728;stroke-linecap:square;stroke-linejoin:bevel;stroke:rgb(0%,0%,0%);stroke-opacity:1;stroke-miterlimit:4;" d="M 116.692588 36.557081 L 116.692588 121.136461 L 203.772972 121.136461 L 203.772972 52.813601 L 251.633078 52.813601 L 251.633078 121.136461 L 306.996194 121.136461 L 306.996194 36.557081 L 340.873419 36.557081 L 221.05263 -49.500165 L 91.909921 36.557081 Z M 116.692588 36.557081 " transform="matrix(0.0343612,0,0,0.0343612,-2.712824,7.759479)"/>
<path style="fill-rule:evenodd;fill:rgb(44.705883%,62.352943%,81.176472%);fill-opacity:1;stroke-width:5.456728;stroke-linecap:square;stroke-linejoin:bevel;stroke:rgb(0%,0%,0%);stroke-opacity:1;stroke-miterlimit:4;" d="M 365.542405 36.557081 L 365.542405 121.136461 L 452.73647 121.136461 L 452.73647 52.813601 L 500.596576 52.813601 L 500.596576 121.136461 L 555.84601 121.136461 L 555.84601 36.557081 L 589.723235 36.557081 L 470.016129 -49.500165 L 340.873419 36.557081 Z M 365.542405 36.557081 " transform="matrix(0.0343612,0,0,0.0343612,-2.712824,7.759479)"/>
</g>
</svg>
