<?xml version="1.0" encoding="UTF-8"?>
<svg xmlns="http://www.w3.org/2000/svg" xmlns:xlink="http://www.w3.org/1999/xlink" width="18px" height="18px" viewBox="0 0 18 18" version="1.1">
<g id="surface1">
<path style=" stroke:none;fill-rule:nonzero;fill:rgb(0%,0%,0%);fill-opacity:1;" d="M 12.035156 8.148438 C 12.035156 10.492188 10.128906 12.398438 7.785156 12.398438 C 5.441406 12.398438 3.535156 10.492188 3.535156 8.148438 C 3.535156 5.804688 5.441406 3.898438 7.785156 3.898438 C 10.128906 3.898438 12.035156 5.804688 12.035156 8.148438 M 16.894531 16.039062 C 16.894531 15.71875 16.761719 15.40625 16.542969 15.1875 L 13.289062 11.933594 C 14.054688 10.820312 14.464844 9.492188 14.464844 8.148438 C 14.464844 4.457031 11.476562 1.46875 7.785156 1.46875 C 4.09375 1.46875 1.105469 4.457031 1.105469 8.148438 C 1.105469 11.835938 4.09375 14.824219 7.785156 14.824219 C 9.132812 14.824219 10.460938 14.417969 11.570312 13.648438 L 14.824219 16.894531 C 15.042969 17.121094 15.355469 17.253906 15.679688 17.253906 C 16.34375 17.253906 16.894531 16.703125 16.894531 16.039062 "/>
</g>
</svg>
