<?xml version="1.0" encoding="UTF-8" standalone="no"?>
<!-- Created with Inkscape (http://www.inkscape.org/) -->

<svg
   xmlns:dc="http://purl.org/dc/elements/1.1/"
   xmlns:cc="http://creativecommons.org/ns#"
   xmlns:rdf="http://www.w3.org/1999/02/22-rdf-syntax-ns#"
   xmlns:svg="http://www.w3.org/2000/svg"
   xmlns="http://www.w3.org/2000/svg"
   xmlns:sodipodi="http://sodipodi.sourceforge.net/DTD/sodipodi-0.dtd"
   xmlns:inkscape="http://www.inkscape.org/namespaces/inkscape"
   width="2.6458335mm"
   height="4.8547978mm"
   viewBox="0 0 2.6458335 4.8547979"
   version="1.1"
   id="svg5214"
   inkscape:version="0.92.4 5da689c313, 2019-01-14"
   sodipodi:docname="mouse-right.svg">
  <defs
     id="defs5208" />
  <sodipodi:namedview
     id="base"
     pagecolor="#ffffff"
     bordercolor="#666666"
     borderopacity="1.0"
     inkscape:pageopacity="0.0"
     inkscape:pageshadow="2"
     inkscape:zoom="0.35"
     inkscape:cx="-760.78761"
     inkscape:cy="-479.99998"
     inkscape:document-units="mm"
     inkscape:current-layer="layer1"
     showgrid="false"
     fit-margin-top="0"
     fit-margin-left="0"
     fit-margin-right="0"
     fit-margin-bottom="0"
     inkscape:window-width="1920"
     inkscape:window-height="1015"
     inkscape:window-x="0"
     inkscape:window-y="0"
     inkscape:window-maximized="1" />
  <metadata
     id="metadata5211">
    <rdf:RDF>
      <cc:Work
         rdf:about="">
        <dc:format>image/svg+xml</dc:format>
        <dc:type
           rdf:resource="http://purl.org/dc/dcmitype/StillImage" />
        <dc:title></dc:title>
      </cc:Work>
    </rdf:RDF>
  </metadata>
  <g
     inkscape:label="Calque 1"
     inkscape:groupmode="layer"
     id="layer1"
     transform="translate(222.41959,-16.978537)">
    <g
       id="g12273"
       transform="matrix(0.07414875,0,0,0.07414875,-242.76658,6.5871195)">
      <path
         inkscape:connector-curvature="0"
         style="font-size:12px;fill:#babdb6;fill-opacity:1;fill-rule:evenodd;stroke:#888a85;stroke-width:1.9886986;stroke-miterlimit:4;stroke-dasharray:none;stroke-opacity:1"
         d="m 292.25157,204.62228 c -14.56517,0 -16.76726,-12.93019 -16.6166,-17.02675 v 0 0 0 0 0 c 0.22423,-3.8639 0.41075,-19.40692 -0.23261,-32.49478 0.16393,-14.30353 11.09146,-13.96163 16.84678,-13.96163 5.75527,0 16.68281,-0.3419 16.84674,13.96163 -0.64337,13.08786 -0.45684,28.63088 -0.23262,32.49395 v 0 0 0 0 0 c 0.15067,4.09656 -2.05142,17.02674 -16.61657,17.02674"
         id="path12275"
         sodipodi:nodetypes="ccccccccccccccccc" />
      <path
         sodipodi:nodetypes="ccccccccccccccccc"
         id="path12277"
         d="m 292.02422,198.78009 c -12.844,0 -14.78587,-11.16344 -14.65302,-14.70025 v 0 0 0 0 0 c 0.19774,-3.33594 0.36222,-16.75519 -0.20512,-28.05474 0.14456,-12.34913 9.7808,-12.05394 14.85601,-12.05394 5.07517,0 14.71141,-0.29519 14.85596,12.05394 -0.56733,11.29955 -0.40285,24.7188 -0.20512,28.05403 v 0 0 0 0 0 c 0.13286,3.53681 -1.80902,14.70023 -14.653,14.70023"
         style="font-size:12px;fill:#f2f2f1;fill-opacity:1;fill-rule:evenodd;stroke:#dcddda;stroke-width:1.73523343;stroke-miterlimit:4;stroke-dasharray:none;stroke-opacity:1"
         inkscape:connector-curvature="0" />
      <path
         inkscape:connector-curvature="0"
         style="font-size:12px;fill:#ef2929;fill-opacity:1;fill-rule:evenodd;stroke:none;stroke-width:1.73523343;stroke-miterlimit:4;stroke-dasharray:none;stroke-opacity:1"
         d="m 292.02209,143.97116 c 5.07517,0 14.71141,-0.29519 14.85596,12.05394 -0.15997,3.18609 -0.26175,6.5407 -0.32102,9.79026 -3.67925,-0.14515 -9.39445,-0.0166 -14.23139,-0.0153 z"
         id="path12279"
         sodipodi:nodetypes="ccccc" />
      <path
         sodipodi:nodetypes="cccccc"
         id="path12281"
         d="m 277.48603,165.75697 c -0.0594,-3.23135 -0.16094,-6.56487 -0.31995,-9.73187 0.14456,-12.34913 9.7808,-12.05394 14.85601,-12.05394 l -0.47331,21.45949 c -4.93058,-0.0351 -9.72727,0.0473 -14.06275,0.32631 z"
         style="font-size:12px;fill:#f2f2f1;fill-opacity:1;fill-rule:evenodd;stroke:none;stroke-width:1.73523343;stroke-miterlimit:4;stroke-dasharray:none;stroke-opacity:1"
         inkscape:connector-curvature="0" />
      <path
         style="color:#000000;font-style:normal;font-variant:normal;font-weight:normal;font-stretch:normal;font-size:medium;line-height:normal;font-family:sans-serif;text-indent:0;text-align:start;text-decoration:none;text-decoration-line:none;text-decoration-style:solid;text-decoration-color:#000000;letter-spacing:normal;word-spacing:normal;text-transform:none;writing-mode:lr-tb;direction:ltr;baseline-shift:baseline;text-anchor:start;white-space:normal;clip-rule:nonzero;display:inline;overflow:visible;visibility:visible;opacity:1;isolation:auto;mix-blend-mode:normal;color-interpolation:sRGB;color-interpolation-filters:linearRGB;solid-color:#000000;solid-opacity:1;fill:#babdb6;fill-opacity:1;fill-rule:nonzero;stroke:none;stroke-width:2.15514731;stroke-linecap:butt;stroke-linejoin:miter;stroke-miterlimit:4;stroke-dasharray:none;stroke-dashoffset:0;stroke-opacity:1;color-rendering:auto;image-rendering:auto;shape-rendering:auto;text-rendering:auto;enable-background:accumulate"
         d="m 291.71205,145.92337 c -1.88848,0 -3.3695,1.43709 -3.3695,3.0996 v 11.2754 c 0,1.66251 1.48102,3.0996 3.3695,3.0996 h 1.18586 c 1.88848,0 3.36729,-1.43709 3.36729,-3.0996 v -11.2754 c 0,-1.66251 -1.47881,-3.0996 -3.36729,-3.0996 z"
         id="path12283"
         inkscape:connector-curvature="0"
         sodipodi:nodetypes="sssssssss" />
      <path
         id="path12285"
         d="m 292.30785,143.13504 v 22.24944"
         style="font-size:12px;fill:none;fill-rule:evenodd;stroke:#888a85;stroke-width:1.87635183;stroke-miterlimit:4;stroke-dasharray:none;stroke-opacity:1"
         inkscape:connector-curvature="0" />
      <path
         sodipodi:nodetypes="cc"
         id="path12287"
         d="m 292.26736,165.37332 c -15.45101,0 -15.0411,0.61863 -15.50286,0.7359"
         style="fill:none;fill-opacity:1;fill-rule:evenodd;stroke:#888a85;stroke-width:1.87635183;stroke-linecap:round;stroke-linejoin:miter;stroke-miterlimit:4;stroke-dasharray:none;stroke-opacity:1"
         inkscape:connector-curvature="0" />
      <path
         sodipodi:nodetypes="cc"
         id="path12289"
         d="m 292.30785,165.3727 c 15.60551,0 15.55158,0.87575 15.55158,0.87575"
         style="font-size:12px;fill:none;fill-rule:evenodd;stroke:#888a85;stroke-width:1.87635183;stroke-linecap:round;stroke-miterlimit:4;stroke-dasharray:none;stroke-opacity:1"
         inkscape:connector-curvature="0" />
      <rect
         style="opacity:1;fill:#888a85;fill-opacity:1;stroke:none;stroke-width:2.15514731;stroke-linecap:butt;stroke-linejoin:miter;stroke-miterlimit:4;stroke-dasharray:none;stroke-dashoffset:0;stroke-opacity:1"
         id="rect12291"
         width="4.8398533"
         height="15.320641"
         x="289.85193"
         y="146.97873"
         rx="1.8963727"
         ry="2.0217276" />
    </g>
  </g>
</svg>
