<svg viewBox="0 0 48 48" xmlns="http://www.w3.org/2000/svg"><g opacity=".6" stroke-linejoin="round" transform="matrix(2.3480105 0 0 2.3395104 -150.2812 -856.44865)"><rect fill="#def4cf" height="14.92047" ry=".090066" stroke-width=".593611" width="18.543655" x="64.948013" y="368.7222"/><g fill="none" stroke="#888a85"><g stroke-width="1.232"><path d="m77.305 372.64h6.1599v3.6959h-6.1599z" opacity="1"/><path d="m77.305 376.34h6.1599v3.6959h-6.1599z" opacity="1"/><path d="m77.305 380.03h6.1599v3.6959h-6.1599z" opacity="1"/></g><path d="m77.361 369h6.048v3.5837h-6.048z" opacity="1" stroke-width="1.3439"/></g><path d="m71.209 372.69h6.0322v3.6777h-6.0322z" fill="none" opacity="1" stroke="#888a85" stroke-linejoin="miter" stroke-width="1.3439"/><path d="m71.209 368.96h6.0322v3.6777h-6.0322z" fill="none" opacity="1" stroke="#888a85" stroke-linejoin="miter" stroke-width="1.3439"/><g fill="#729fcf" opacity="1" stroke-linejoin="round" transform="translate(21.33859 6.30926)"><path d="m48.0074 362.28571h-4.259556v2.63542z"/><path d="m43.705164 369.26797 6.063555-3.76726v3.94114l-6.063555 3.82522z"/><path d="m43.703899 377.26289 6.166511-3.53215v3.53215z"/></g><g fill="none"><path d="m71.209 376.37h6.0322v3.6777h-6.0322z" opacity="1" stroke="#888a85" stroke-linejoin="miter" stroke-width="1.3439"/><path d="m65.049 372.69h6.0322v3.6777h-6.0322z" opacity="1" stroke="#555753" stroke-width="1.3597"/><path d="m71.209 380.04h6.0322v3.6777h-6.0322z" opacity="1" stroke="#888a85" stroke-linejoin="miter" stroke-width="1.3439"/><path d="m65.049 368.96h6.0322v3.6777h-6.0322z" opacity="1" stroke="#555753" stroke-width="1.3597"/><path d="m65.049 376.37h6.0322v3.6777h-6.0322z" opacity="1" stroke="#555753" stroke-width="1.3597"/><path d="m65.049 380.04h6.0322v3.6777h-6.0322z" opacity="1" stroke="#555753" stroke-width="1.3597"/></g></g></svg>