<?xml version="1.0" encoding="UTF-8" standalone="no"?>
<svg
   height="72pt"
   id="Layer_1"
   version="1.1"
   viewBox="0 0 96 96"
   width="72pt"
   xml:space="preserve"
   sodipodi:docname="home.svg"
   inkscape:version="1.3 (0e150ed6c4, 2023-07-21)"
   xmlns:inkscape="http://www.inkscape.org/namespaces/inkscape"
   xmlns:sodipodi="http://sodipodi.sourceforge.net/DTD/sodipodi-0.dtd"
   xmlns="http://www.w3.org/2000/svg"
   xmlns:svg="http://www.w3.org/2000/svg"><defs
     id="defs1" /><sodipodi:namedview
     id="namedview1"
     pagecolor="#ffffff"
     bordercolor="#666666"
     borderopacity="1.0"
     inkscape:showpageshadow="2"
     inkscape:pageopacity="0.0"
     inkscape:pagecheckerboard="0"
     inkscape:deskcolor="#d1d1d1"
     inkscape:zoom="4.3696989"
     inkscape:cx="-5.6067936"
     inkscape:cy="28.033968"
     inkscape:window-width="1680"
     inkscape:window-height="987"
     inkscape:window-x="-8"
     inkscape:window-y="-8"
     inkscape:window-maximized="1"
     inkscape:current-layer="Layer_1"
     inkscape:document-units="pt" /><path
     d="M 74.667983,44.420406 69.477569,39.233573 V 26.522432 c 0,-1.968778 -1.610818,-3.579596 -3.579595,-3.579596 H 62.31838 c -1.968778,0 -3.579596,1.610818 -3.579596,3.579596 v 1.979515 l -7.15919,-7.152031 C 50.602366,20.426381 49.707467,19.363241 48,19.363241 c -1.707467,0 -2.602366,1.06314 -3.579595,1.986675 l -23.088387,23.07049 c -1.116834,1.163368 -1.968777,2.011731 -1.968777,3.579595 0,2.015312 1.546385,3.579594 3.579594,3.579594 h 3.579596 v 21.47757 c 0,1.968777 1.610817,3.579594 3.579594,3.579594 H 40.840809 V 58.738785 c 0,-1.968776 1.610818,-3.579594 3.579596,-3.579594 h 7.159189 c 1.968778,0 3.579596,1.610818 3.579596,3.579594 v 17.897974 h 10.738784 c 1.968777,0 3.579595,-1.610817 3.579595,-3.579594 v -21.47757 h 3.579596 c 2.033209,0 3.579594,-1.564282 3.579594,-3.579594 0,-1.567864 -0.851944,-2.416227 -1.968776,-3.579595 z"
     id="path1"
     style="fill:#24d0fc;fill-opacity:1;stroke:#000000;stroke-width:2.66666667;stroke-dasharray:none;stroke-opacity:1" /></svg>
