<?xml version="1.0" encoding="UTF-8" standalone="no"?>
<!-- Created with Inkscape (http://www.inkscape.org/) -->

<svg
   xmlns:dc="http://purl.org/dc/elements/1.1/"
   xmlns:cc="http://creativecommons.org/ns#"
   xmlns:rdf="http://www.w3.org/1999/02/22-rdf-syntax-ns#"
   xmlns:svg="http://www.w3.org/2000/svg"
   xmlns="http://www.w3.org/2000/svg"
   xmlns:sodipodi="http://sodipodi.sourceforge.net/DTD/sodipodi-0.dtd"
   xmlns:inkscape="http://www.inkscape.org/namespaces/inkscape"
   width="546.13336"
   height="546.13336"
   viewBox="0 0 511.99999 511.99999"
   id="svg2"
   version="1.1"
   inkscape:version="0.92.0 r15299"
   sodipodi:docname="select-all.svg">
  <defs
     id="defs4" />
  <sodipodi:namedview
     id="base"
     pagecolor="#ffffff"
     bordercolor="#666666"
     borderopacity="1.0"
     inkscape:pageopacity="0.0"
     inkscape:pageshadow="2"
     inkscape:zoom="0.7"
     inkscape:cx="-36.037161"
     inkscape:cy="93.091627"
     inkscape:document-units="px"
     inkscape:current-layer="layer1"
     showgrid="false"
     units="px"
     inkscape:window-width="1920"
     inkscape:window-height="1018"
     inkscape:window-x="-8"
     inkscape:window-y="-8"
     inkscape:window-maximized="1" />
  <metadata
     id="metadata7">
    <rdf:RDF>
      <cc:Work
         rdf:about="">
        <dc:format>image/svg+xml</dc:format>
        <dc:type
           rdf:resource="http://purl.org/dc/dcmitype/StillImage" />
        <dc:title />
      </cc:Work>
    </rdf:RDF>
  </metadata>
  <g
     inkscape:label="Calque 1"
     inkscape:groupmode="layer"
     id="layer1"
     transform="translate(0,-540.3622)">
    <g
       id="g3688"
       transform="matrix(1.0974094,0,0,1.0974094,-67.770755,-84.946414)">
      <path
         d="m 94.822145,586.11805 h 42.931115 c 10.39096,0 18.75566,7.61839 18.75566,17.08188 v 46.28039 c 0,9.46332 -8.36539,17.08188 -18.75565,17.08188 H 94.822145 c -10.390955,0 -18.755669,-7.61839 -18.755669,-17.08188 v -46.28039 c 0,-9.4633 8.365379,-17.08188 18.755669,-17.08188 z"
         style="fill:none;stroke:#000000;stroke-width:25.58214569;stroke-linejoin:round;stroke-miterlimit:4;stroke-dasharray:none"
         id="rect2816"
         inkscape:connector-curvature="0" />
      <path
         sodipodi:nodetypes="cccccccc"
         inkscape:connector-curvature="0"
         id="path5752"
         d="m 88.516119,616.79998 c 0,0 6.824354,-8.2351 14.532701,-10.71384 2.08715,1.56538 13.91873,25.20957 16.00589,24.94869 2.34805,-0.2609 17.81435,-21.8088 51.26124,-61.3381 0,0 9.67958,4.39427 27.4891,5.31125 -46.56892,36.52834 -70.65696,72.13632 -72.76764,73.85677 -6.00055,2.86983 -9.07623,1.20928 -11.16339,-0.0951 -4.95699,-4.43519 -25.09701,-30.92602 -25.357901,-31.9696 z"
         style="fill:#0a0a0a;fill-rule:evenodd;stroke:#000000;stroke-width:0.1958234px;stroke-linecap:butt;stroke-linejoin:miter;stroke-opacity:1" />
    </g>
    <rect
       ry="21.137453"
       y="567.41638"
       x="149.30235"
       height="65.862198"
       width="363.95044"
       id="rect3498"
       style="stroke-width:1.17585063" />
    <rect
       ry="21.137453"
       y="763.16882"
       x="149.30235"
       height="65.862198"
       width="363.95044"
       id="rect3498-0"
       style="stroke-width:1.17585063" />
    <rect
       ry="21.137453"
       y="958.9212"
       x="149.30235"
       height="65.862198"
       width="363.95044"
       id="rect3498-2"
       style="stroke-width:1.17585063" />
    <g
       id="g3692"
       transform="matrix(1.0974094,0,0,1.0974094,-67.770755,-90.985777)">
      <path
         d="m 94.822147,769.99821 h 42.931123 c 10.39094,0 18.75564,7.6184 18.75564,17.08186 v 46.28042 c 0,9.46329 -8.36537,17.08186 -18.75564,17.08186 H 94.822147 c -10.390956,0 -18.755668,-7.61839 -18.755668,-17.08186 v -46.28042 c 0,-9.46331 8.365377,-17.08186 18.755668,-17.08186 z"
         style="fill:none;stroke:#000000;stroke-width:25.58214569;stroke-linejoin:round;stroke-miterlimit:4;stroke-dasharray:none"
         id="rect2816-1"
         inkscape:connector-curvature="0" />
      <path
         sodipodi:nodetypes="cccccccc"
         inkscape:connector-curvature="0"
         id="path5752-7"
         d="m 88.516126,800.68013 c 0,0 6.824355,-8.23511 14.532694,-10.71384 2.08716,1.56539 13.91874,25.20957 16.00589,24.94869 2.34805,-0.2609 17.81436,-21.80879 51.26123,-61.33809 0,0 9.67958,4.39426 27.4891,5.31123 -46.56892,36.52835 -70.65695,72.13634 -72.76762,73.85678 -6.00056,2.86983 -9.07624,1.20929 -11.1634,-0.0951 -4.95698,-4.43517 -25.097001,-30.92599 -25.357894,-31.96957 z"
         style="fill:#0a0a0a;fill-rule:evenodd;stroke:#000000;stroke-width:0.1958234px;stroke-linecap:butt;stroke-linejoin:miter;stroke-opacity:1" />
    </g>
    <g
       id="g3696"
       transform="matrix(1.0974094,0,0,1.0974094,-67.770755,-84.946414)">
      <path
         d="m 94.822147,943.80931 h 42.931123 c 10.39094,0 18.75564,7.6184 18.75564,17.08185 v 46.28044 c 0,9.4632 -8.36537,17.0818 -18.75564,17.0818 H 94.822147 c -10.390956,0 -18.755668,-7.6184 -18.755668,-17.0818 v -46.28044 c 0,-9.46328 8.365377,-17.08185 18.755668,-17.08185 z"
         style="fill:none;stroke:#000000;stroke-width:25.58214569;stroke-linejoin:round;stroke-miterlimit:4;stroke-dasharray:none"
         id="rect2816-5"
         inkscape:connector-curvature="0" />
      <path
         sodipodi:nodetypes="cccccccc"
         inkscape:connector-curvature="0"
         id="path5752-0"
         d="m 88.516126,972.61621 c 0,0 6.824355,-8.23508 14.532694,-10.7138 2.08716,1.56536 13.91874,25.20954 16.0059,24.94864 2.34804,-0.2609 17.81435,-21.80875 51.26122,-61.33806 0,0 9.67958,4.39427 27.4891,5.31125 -46.56892,36.52837 -70.65694,72.13626 -72.76762,73.85676 -6.00056,2.8698 -9.07624,1.2093 -11.16339,-0.095 -4.95699,-4.4352 -25.097011,-30.92599 -25.357904,-31.96959 z"
         style="fill:#0a0a0a;fill-rule:evenodd;stroke:#000000;stroke-width:0.1958234px;stroke-linecap:butt;stroke-linejoin:miter;stroke-opacity:1" />
    </g>
  </g>
</svg>
