<?xml version="1.0" encoding="UTF-8"?>
<svg xmlns="http://www.w3.org/2000/svg" xmlns:xlink="http://www.w3.org/1999/xlink" width="18px" height="18px" viewBox="0 0 18 18" version="1.1">
<g id="surface1">
<path style=" stroke:none;fill-rule:nonzero;fill:rgb(0%,0%,0%);fill-opacity:1;" d="M 16.285156 8.75 C 16.285156 8.105469 15.859375 7.539062 15.175781 7.539062 L 8.496094 7.539062 L 11.277344 4.757812 C 11.503906 4.53125 11.636719 4.21875 11.636719 3.894531 C 11.636719 3.570312 11.503906 3.257812 11.277344 3.03125 L 10.566406 2.328125 C 10.335938 2.101562 10.035156 1.96875 9.710938 1.96875 C 9.386719 1.96875 9.074219 2.101562 8.847656 2.328125 L 2.671875 8.496094 C 2.453125 8.726562 2.320312 9.035156 2.320312 9.359375 C 2.320312 9.679688 2.453125 9.996094 2.671875 10.210938 L 8.847656 16.398438 C 9.074219 16.617188 9.386719 16.75 9.710938 16.75 C 10.035156 16.75 10.347656 16.617188 10.566406 16.398438 L 11.277344 15.675781 C 11.503906 15.457031 11.636719 15.144531 11.636719 14.824219 C 11.636719 14.503906 11.503906 14.1875 11.277344 13.972656 L 8.496094 11.183594 L 15.175781 11.183594 C 15.859375 11.183594 16.285156 10.609375 16.285156 9.964844 Z M 16.285156 8.75 "/>
</g>
</svg>
