<?xml version="1.0" encoding="UTF-8"?>
<svg xmlns="http://www.w3.org/2000/svg" xmlns:xlink="http://www.w3.org/1999/xlink" width="18px" height="18px" viewBox="0 0 18 18" version="1.1">
<g id="surface1">
<path style=" stroke:none;fill-rule:nonzero;fill:rgb(0%,0%,0%);fill-opacity:1;" d="M 14.863281 6.726562 C 13.75 5.617188 11.949219 5.828125 10.410156 5.773438 C 10.515625 5.878906 10.726562 5.984375 10.886719 6.148438 C 11.148438 6.410156 11.363281 6.726562 11.523438 7.097656 C 12.371094 7.097656 13.269531 7.042969 13.910156 7.6875 C 14.226562 8.003906 14.441406 8.53125 14.492188 9.007812 C 14.492188 10.066406 13.644531 10.921875 12.582031 10.921875 L 9.824219 10.921875 C 9.398438 10.921875 8.820312 10.652344 8.5 10.335938 C 7.757812 9.59375 7.863281 8.746094 8.183594 7.898438 L 6.804688 7.898438 C 6.429688 9.113281 6.480469 10.335938 7.441406 11.289062 C 8.074219 11.925781 8.925781 12.242188 9.71875 12.191406 L 12.476562 12.191406 C 13.433594 12.191406 14.332031 11.925781 15.023438 11.238281 C 16.082031 9.960938 16.03125 7.898438 14.863281 6.726562 Z M 6.164062 10.867188 L 5.210938 10.867188 C 4.785156 10.867188 4.207031 10.597656 3.882812 10.28125 C 3.566406 9.960938 3.351562 9.433594 3.300781 8.957031 C 3.300781 7.898438 4.207031 6.992188 5.210938 7.042969 L 7.96875 7.042969 C 8.394531 7.042969 8.976562 7.3125 9.292969 7.628906 C 10.035156 8.371094 9.878906 9.277344 9.609375 10.066406 L 10.992188 10.066406 C 11.363281 8.851562 11.308594 7.628906 10.359375 6.675781 C 9.714844 6.039062 8.871094 5.722656 8.074219 5.773438 L 5.316406 5.773438 C 3.511719 5.773438 2.082031 7.207031 2.136719 8.957031 C 2.136719 10.652344 3.566406 12.191406 5.265625 12.085938 L 7.28125 12.085938 C 7.066406 11.980469 6.90625 11.816406 6.75 11.660156 C 6.480469 11.394531 6.269531 11.183594 6.164062 10.867188 Z M 6.164062 10.867188 "/>
</g>
</svg>
