<?xml version="1.0" encoding="UTF-8"?>
<svg xmlns="http://www.w3.org/2000/svg" xmlns:xlink="http://www.w3.org/1999/xlink" width="18px" height="18px" viewBox="0 0 18 18" version="1.1">
<g id="surface1">
<path style="fill-rule:evenodd;fill:rgb(92.941177%,83.137256%,0%);fill-opacity:1;stroke-width:2;stroke-linecap:round;stroke-linejoin:bevel;stroke:rgb(0%,0%,0%);stroke-opacity:1;stroke-miterlimit:4;" d="M 26.551583 18.271242 C 26.551583 23.812898 22.072425 28.312889 16.509936 28.312889 C 10.968281 28.312889 6.46829 23.812898 6.46829 18.271242 C 6.46829 12.729587 10.968281 8.229596 16.509936 8.229596 C 22.072425 8.229596 26.551583 12.729587 26.551583 18.271242 Z M 26.551583 18.271242 " transform="matrix(0.1875,0,0,0.1875,-0.029213,-0.523521)"/>
<path style="fill-rule:evenodd;fill:rgb(80.000001%,0%,0%);fill-opacity:1;stroke-width:2;stroke-linecap:round;stroke-linejoin:bevel;stroke:rgb(0%,0%,0%);stroke-opacity:1;stroke-miterlimit:4;" d="M 82.968137 24.687896 C 82.968137 31.542049 77.384815 37.125371 70.509828 37.125371 C 63.634842 37.125371 58.05152 31.542049 58.05152 24.687896 C 58.05152 17.792076 63.634842 12.208754 70.509828 12.208754 C 77.384815 12.208754 82.968137 17.792076 82.968137 24.687896 Z M 82.968137 24.687896 " transform="matrix(0.1875,0,0,0.1875,-0.029213,-0.523521)"/>
<path style="fill-rule:evenodd;fill:rgb(44.705883%,62.352943%,81.176472%);fill-opacity:1;stroke-width:1.359476;stroke-linecap:round;stroke-linejoin:bevel;stroke:rgb(0%,0%,0%);stroke-opacity:1;stroke-miterlimit:4;" d="M 23.262326 28.889322 C 23.262326 34.822856 18.461686 39.623496 12.542313 39.623496 C 6.62294 39.623496 1.8223 34.822856 1.8223 28.889322 C 1.8223 22.969949 6.62294 18.169309 12.542313 18.169309 C 18.461686 18.169309 23.262326 22.969949 23.262326 28.889322 Z M 23.262326 28.889322 " transform="matrix(0.275842,0,0,0.275842,4.493427,0.761577)"/>
<path style="fill-rule:evenodd;fill:rgb(67.843139%,49.803922%,65.882355%);fill-opacity:1;stroke-width:2;stroke-linecap:round;stroke-linejoin:bevel;stroke:rgb(0%,0%,0%);stroke-opacity:1;stroke-miterlimit:4;" d="M 23.009923 84.083611 C 23.009923 88.833601 19.134931 92.708594 14.384941 92.708594 C 9.593283 92.708594 5.739124 88.833601 5.739124 84.083611 C 5.739124 79.291954 9.593283 75.416961 14.384941 75.416961 C 19.134931 75.416961 23.009923 79.291954 23.009923 84.083611 Z M 23.009923 84.083611 " transform="matrix(0.1875,0,0,0.1875,-0.029213,-0.523521)"/>
<path style="fill-rule:evenodd;fill:rgb(54.11765%,88.627452%,20.392157%);fill-opacity:1;stroke-width:2;stroke-linecap:round;stroke-linejoin:bevel;stroke:rgb(0%,0%,0%);stroke-opacity:1;stroke-miterlimit:4;" d="M 83.843135 82.166948 C 83.843135 88.333602 78.863978 93.354426 72.676491 93.354426 C 66.509836 93.354426 61.489013 88.333602 61.489013 82.166948 C 61.489013 75.97946 66.509836 70.97947 72.676491 70.97947 C 78.863978 70.97947 83.843135 75.97946 83.843135 82.166948 Z M 83.843135 82.166948 " transform="matrix(0.1875,0,0,0.1875,-0.029213,-0.523521)"/>
<path style="fill:none;stroke-width:2;stroke-linecap:round;stroke-linejoin:bevel;stroke:rgb(0%,0%,0%);stroke-opacity:1;stroke-miterlimit:4;" d="M 45.176546 15.042082 C 45.176546 18.042076 42.739051 20.479571 39.739057 20.479571 C 36.718229 20.479571 34.280734 18.042076 34.280734 15.042082 C 34.280734 12.042088 36.718229 9.604593 39.739057 9.604593 C 42.739051 9.604593 45.176546 12.042088 45.176546 15.042082 Z M 45.176546 15.042082 " transform="matrix(0.1875,0,0,0.1875,-0.029213,-0.523521)"/>
<path style="fill:none;stroke-width:2;stroke-linecap:round;stroke-linejoin:bevel;stroke:rgb(0%,0%,0%);stroke-opacity:1;stroke-miterlimit:4;" d="M 75.405652 46.354519 C 75.405652 49.39618 72.968157 51.833675 69.968163 51.833675 C 66.947336 51.833675 64.50984 49.39618 64.50984 46.354519 C 64.50984 43.354525 66.947336 40.91703 69.968163 40.91703 C 72.968157 40.91703 75.405652 43.354525 75.405652 46.354519 Z M 75.405652 46.354519 " transform="matrix(0.1875,0,0,0.1875,-0.029213,-0.523521)"/>
<path style="fill:none;stroke-width:2;stroke-linecap:round;stroke-linejoin:bevel;stroke:rgb(0%,0%,0%);stroke-opacity:1;stroke-miterlimit:4;" d="M 92.134785 60.333658 C 92.134785 64.27115 88.947292 67.458644 85.030633 67.458644 C 81.093141 67.458644 77.905647 64.27115 77.905647 60.333658 C 77.905647 56.416999 81.093141 53.229506 85.030633 53.229506 C 88.947292 53.229506 92.134785 56.416999 92.134785 60.333658 Z M 92.134785 60.333658 " transform="matrix(0.1875,0,0,0.1875,-0.029213,-0.523521)"/>
<path style="fill:none;stroke-width:2;stroke-linecap:round;stroke-linejoin:bevel;stroke:rgb(0%,0%,0%);stroke-opacity:1;stroke-miterlimit:4;" d="M 19.676597 59.666993 C 19.676597 63.937818 16.21827 67.416977 11.947445 67.416977 C 7.655787 67.416977 4.197461 63.937818 4.197461 59.666993 C 4.197461 55.396168 7.655787 51.917008 11.947445 51.917008 C 16.21827 51.917008 19.676597 55.396168 19.676597 59.666993 Z M 19.676597 59.666993 " transform="matrix(0.1875,0,0,0.1875,-0.029213,-0.523521)"/>
<path style="fill:none;stroke-width:2;stroke-linecap:butt;stroke-linejoin:miter;stroke:rgb(0%,0%,0%);stroke-opacity:1;stroke-miterlimit:4;" d="M 23.05159 25.771227 L 32.80157 36.896205 " transform="matrix(0.1875,0,0,0.1875,-0.029213,-0.523521)"/>
<path style="fill:none;stroke-width:2;stroke-linecap:butt;stroke-linejoin:miter;stroke:rgb(0%,0%,0%);stroke-opacity:1;stroke-miterlimit:4;" d="M 54.50986 38.229536 L 60.739015 32.542047 " transform="matrix(0.1875,0,0,0.1875,-0.029213,-0.523521)"/>
<path style="fill:none;stroke-width:2;stroke-linecap:butt;stroke-linejoin:miter;stroke:rgb(0%,0%,0%);stroke-opacity:1;stroke-miterlimit:4;" d="M 20.884928 78.104456 L 32.551571 62.104488 " transform="matrix(0.1875,0,0,0.1875,-0.029213,-0.523521)"/>
<path style="fill:none;stroke-width:2;stroke-linecap:butt;stroke-linejoin:miter;stroke:rgb(0%,0%,0%);stroke-opacity:1;stroke-miterlimit:4;" d="M 52.614031 61.541989 L 65.905671 73.771131 " transform="matrix(0.1875,0,0,0.1875,-0.029213,-0.523521)"/>
<path style="fill:none;stroke-width:2;stroke-linecap:round;stroke-linejoin:bevel;stroke:rgb(0%,0%,0%);stroke-opacity:1;stroke-miterlimit:4;" d="M 19.676597 43.125359 C 19.676597 45.000355 18.155766 46.521186 16.259937 46.521186 C 14.384941 46.521186 12.86411 45.000355 12.86411 43.125359 C 12.86411 41.250363 14.384941 39.708699 16.259937 39.708699 C 18.155766 39.708699 19.676597 41.250363 19.676597 43.125359 Z M 19.676597 43.125359 " transform="matrix(0.1875,0,0,0.1875,-0.029213,-0.523521)"/>
<path style="fill:none;stroke-width:2;stroke-linecap:round;stroke-linejoin:bevel;stroke:rgb(0%,0%,0%);stroke-opacity:1;stroke-miterlimit:4;" d="M 49.780703 81.500283 C 49.780703 84.64611 47.218208 87.187771 44.051548 87.187771 C 40.905721 87.187771 38.384893 84.64611 38.384893 81.500283 C 38.384893 78.333622 40.905721 75.791961 44.051548 75.791961 C 47.218208 75.791961 49.780703 78.333622 49.780703 81.500283 Z M 49.780703 81.500283 " transform="matrix(0.1875,0,0,0.1875,-0.029213,-0.523521)"/>
</g>
</svg>
