<?xml version="1.0" encoding="UTF-8"?>
<svg xmlns="http://www.w3.org/2000/svg" xmlns:xlink="http://www.w3.org/1999/xlink" width="18px" height="18px" viewBox="0 0 18 18" version="1.1">
<g id="surface1">
<path style=" stroke:none;fill-rule:nonzero;fill:rgb(0%,0%,0%);fill-opacity:1;" d="M 14.464844 11.484375 C 14.464844 11.464844 14.464844 11.449219 14.453125 11.429688 L 9 6.933594 L 3.546875 11.429688 C 3.546875 11.449219 3.535156 11.464844 3.535156 11.484375 L 3.535156 16.039062 C 3.535156 16.371094 3.8125 16.644531 4.144531 16.644531 L 7.785156 16.644531 L 7.785156 13.003906 L 10.214844 13.003906 L 10.214844 16.644531 L 13.855469 16.644531 C 14.1875 16.644531 14.464844 16.371094 14.464844 16.039062 Z M 16.578125 10.832031 C 16.683594 10.707031 16.664062 10.507812 16.542969 10.402344 L 14.464844 8.675781 L 14.464844 4.808594 C 14.464844 4.636719 14.332031 4.503906 14.160156 4.503906 L 12.339844 4.503906 C 12.167969 4.503906 12.035156 4.636719 12.035156 4.808594 L 12.035156 6.65625 L 9.722656 4.722656 C 9.324219 4.390625 8.675781 4.390625 8.277344 4.722656 L 1.457031 10.402344 C 1.335938 10.507812 1.316406 10.707031 1.421875 10.832031 L 2.007812 11.53125 C 2.054688 11.589844 2.132812 11.628906 2.207031 11.636719 C 2.292969 11.648438 2.367188 11.617188 2.433594 11.570312 L 9 6.097656 L 15.566406 11.570312 C 15.621094 11.617188 15.6875 11.636719 15.765625 11.636719 C 15.773438 11.636719 15.78125 11.636719 15.792969 11.636719 C 15.867188 11.628906 15.945312 11.589844 15.992188 11.53125 Z M 16.578125 10.832031 "/>
</g>
</svg>
