<?xml version="1.0" encoding="UTF-8"?>
<svg xmlns="http://www.w3.org/2000/svg" xmlns:xlink="http://www.w3.org/1999/xlink" width="18px" height="18px" viewBox="0 0 18 18" version="1.1">
<g id="surface1">
<path style=" stroke:none;fill-rule:nonzero;fill:rgb(0%,0%,0%);fill-opacity:1;" d="M 17.5 9.359375 C 17.5 9.199219 17.433594 9.046875 17.320312 8.933594 L 14.890625 6.503906 C 14.777344 6.390625 14.625 6.324219 14.464844 6.324219 C 14.132812 6.324219 13.859375 6.601562 13.859375 6.933594 L 13.859375 8.144531 L 10.214844 8.144531 L 10.214844 4.503906 L 11.429688 4.503906 C 11.761719 4.503906 12.035156 4.226562 12.035156 3.894531 C 12.035156 3.734375 11.96875 3.582031 11.855469 3.46875 L 9.425781 1.039062 C 9.3125 0.925781 9.160156 0.859375 9 0.859375 C 8.839844 0.859375 8.6875 0.925781 8.574219 1.039062 L 6.144531 3.46875 C 6.03125 3.582031 5.964844 3.734375 5.964844 3.894531 C 5.964844 4.226562 6.238281 4.503906 6.570312 4.503906 L 7.785156 4.503906 L 7.785156 8.144531 L 4.140625 8.144531 L 4.140625 6.933594 C 4.140625 6.601562 3.867188 6.324219 3.535156 6.324219 C 3.375 6.324219 3.222656 6.390625 3.109375 6.503906 L 0.679688 8.933594 C 0.566406 9.046875 0.5 9.199219 0.5 9.359375 C 0.5 9.523438 0.566406 9.671875 0.679688 9.789062 L 3.109375 12.214844 C 3.222656 12.328125 3.375 12.394531 3.535156 12.394531 C 3.867188 12.394531 4.140625 12.121094 4.140625 11.789062 L 4.140625 10.574219 L 7.785156 10.574219 L 7.785156 14.21875 L 6.570312 14.21875 C 6.238281 14.21875 5.964844 14.492188 5.964844 14.824219 C 5.964844 14.984375 6.03125 15.136719 6.144531 15.25 L 8.574219 17.679688 C 8.6875 17.792969 8.839844 17.859375 9 17.859375 C 9.160156 17.859375 9.3125 17.792969 9.425781 17.679688 L 11.855469 15.25 C 11.96875 15.136719 12.035156 14.984375 12.035156 14.824219 C 12.035156 14.492188 11.761719 14.21875 11.429688 14.21875 L 10.214844 14.21875 L 10.214844 10.574219 L 13.859375 10.574219 L 13.859375 11.789062 C 13.859375 12.121094 14.132812 12.394531 14.464844 12.394531 C 14.625 12.394531 14.777344 12.328125 14.890625 12.214844 L 17.320312 9.789062 C 17.433594 9.671875 17.5 9.523438 17.5 9.359375 "/>
</g>
</svg>
