<?xml version="1.0" encoding="UTF-8"?>
<svg xmlns="http://www.w3.org/2000/svg" xmlns:xlink="http://www.w3.org/1999/xlink" width="18px" height="18px" viewBox="0 0 18 18" version="1.1">
<g id="surface1">
<path style=" stroke:none;fill-rule:evenodd;fill:rgb(75.294119%,75.294119%,75.294119%);fill-opacity:1;" d="M 14.777344 9 C 14.777344 12.195312 12.195312 14.777344 9 14.777344 C 5.804688 14.777344 3.222656 12.195312 3.222656 9 C 3.222656 5.804688 5.804688 3.222656 9 3.222656 C 12.195312 3.222656 14.777344 5.804688 14.777344 9 Z M 14.777344 9 "/>
<path style=" stroke:none;fill-rule:evenodd;fill:rgb(0%,0%,0%);fill-opacity:1;" d="M 6.640625 8.71875 L 11.359375 8.71875 C 11.367188 8.71875 11.382812 8.722656 11.382812 8.730469 L 11.382812 9.269531 C 11.382812 9.277344 11.367188 9.28125 11.359375 9.28125 L 6.640625 9.28125 C 6.632812 9.28125 6.617188 9.277344 6.617188 9.269531 L 6.617188 8.730469 C 6.617188 8.722656 6.632812 8.71875 6.640625 8.71875 Z M 6.640625 8.71875 "/>
</g>
</svg>
