<?xml version="1.0" encoding="UTF-8"?>
<svg xmlns="http://www.w3.org/2000/svg" xmlns:xlink="http://www.w3.org/1999/xlink" width="18px" height="18px" viewBox="0 0 18 18" version="1.1">
<g id="surface1">
<path style=" stroke:none;fill-rule:nonzero;fill:rgb(0%,0%,0%);fill-opacity:1;" d="M 17.3125 15.539062 L 17.3125 16.0625 C 17.3125 16.445312 17.003906 16.75 16.621094 16.75 L 1.378906 16.75 C 0.996094 16.75 0.6875 16.445312 0.6875 16.0625 L 0.6875 15.539062 C 0.6875 15.15625 0.996094 14.847656 1.378906 14.847656 L 16.621094 14.847656 C 17.003906 14.847656 17.3125 15.15625 17.3125 15.539062 Z M 17.3125 15.539062 "/>
<path style=" stroke:none;fill-rule:nonzero;fill:rgb(0%,0%,0%);fill-opacity:1;" d="M 1.972656 1.179688 L 2.601562 1.179688 C 2.957031 1.179688 3.238281 1.464844 3.238281 1.816406 L 3.238281 15.867188 C 3.238281 16.21875 2.957031 16.511719 2.601562 16.511719 L 1.972656 16.511719 C 1.621094 16.511719 1.335938 16.21875 1.335938 15.867188 L 1.335938 1.816406 C 1.335938 1.464844 1.621094 1.179688 1.972656 1.179688 Z M 1.972656 1.179688 "/>
<path style=" stroke:none;fill-rule:nonzero;fill:rgb(0%,0%,0%);fill-opacity:1;" d="M 8.398438 7.898438 L 9.601562 7.898438 C 9.796875 7.898438 9.953125 8.050781 9.953125 8.25 L 9.953125 16.007812 C 9.953125 16.203125 9.796875 16.359375 9.601562 16.359375 L 8.398438 16.359375 C 8.203125 16.359375 8.046875 16.203125 8.046875 16.007812 L 8.046875 8.25 C 8.046875 8.050781 8.203125 7.898438 8.398438 7.898438 Z M 8.398438 7.898438 "/>
<path style=" stroke:none;fill-rule:nonzero;fill:rgb(0%,0%,0%);fill-opacity:1;" d="M 15.113281 5.261719 L 16.105469 5.261719 C 16.355469 5.261719 16.5625 5.460938 16.5625 5.71875 L 16.5625 15.785156 C 16.5625 16.035156 16.355469 16.242188 16.105469 16.242188 L 15.113281 16.242188 C 14.859375 16.242188 14.65625 16.035156 14.65625 15.785156 L 14.65625 5.71875 C 14.65625 5.460938 14.859375 5.261719 15.113281 5.261719 Z M 15.113281 5.261719 "/>
</g>
</svg>
