<?xml version="1.0" encoding="UTF-8" standalone="no"?>
<svg id="svg0" xmlns="http://www.w3.org/2000/svg" height="48" width="48" version="1.0" xmlns:xlink="http://www.w3.org/1999/xlink">
 <defs id="defs0">
  <linearGradient id="lg2">
   <stop offset="0"/>
   <stop stop-opacity="0" offset="1"/>
  </linearGradient>
  <linearGradient id="lg7">
   <stop stop-color="#fff" offset="0"/>
   <stop stop-color="#fff" stop-opacity="0" offset="1"/>
  </linearGradient>
  <linearGradient id="lg8">
   <stop stop-color="#729fcf" offset="0"/>
   <stop stop-color="#fff" offset="1"/>
  </linearGradient>
  <radialGradient id="rg0" xlink:href="#lg2" gradientUnits="userSpaceOnUse" cy="24.2" cx="24.2" r="24.2"/>
  <linearGradient id="lg11" y2="-63" xlink:href="#lg8" gradientUnits="userSpaceOnUse" x2="21.8" y1="-73" x1="21.8"/>
  <linearGradient id="lg12" y2="-65.25" gradientUnits="userSpaceOnUse" x2="12" y1="-53.6" x1="12">
   <stop stop-color="#e9b96e" offset="0"/>
   <stop stop-color="#653f01" offset="1"/>
  </linearGradient>
  <linearGradient id="lg13" y2="-60.5" gradientUnits="userSpaceOnUse" x2="35" y1="-59.28" x1="35">
   <stop stop-color="#8f5902" offset="0"/>
   <stop stop-color="#8f5902" stop-opacity="0" offset="1"/>
  </linearGradient>
  <radialGradient id="rg1" xlink:href="#lg7" gradientUnits="userSpaceOnUse" cy="-81" cx="7.1" gradientTransform="matrix(2.1388 0 0 .78131 -10.156 -10.684)" r="15.5"/>
  <linearGradient id="lg14" y2="-63" xlink:href="#lg8" gradientUnits="userSpaceOnUse" x2="21.8" gradientTransform="translate(40)" y1="-73.3" x1="21.8"/>
  <radialGradient id="rg2" xlink:href="#lg7" gradientUnits="userSpaceOnUse" cy="-81" cx="7.1" gradientTransform="matrix(2.1388 0 0 .78131 29.844 -10.684)" r="15.5"/>
  <linearGradient id="lg15" y2="-68.375" gradientUnits="userSpaceOnUse" x2="65.875" y1="-61.75" x1="66.375">
   <stop stop-color="#73d216" offset="0"/>
   <stop stop-color="#73d216" stop-opacity="0" offset="1"/>
  </linearGradient>
  <linearGradient id="lg16" y2="-64.375" gradientUnits="userSpaceOnUse" x2="61.5" y1="-58.5" x1="62.375">
   <stop stop-color="#4e9a06" offset="0"/>
   <stop stop-color="#4e9a06" stop-opacity="0" offset="1"/>
  </linearGradient>
  <linearGradient id="lg17" y2="35.8" xlink:href="#lg2" gradientUnits="userSpaceOnUse" x2="79" gradientTransform="translate(-70)" y1="28" x1="86.5"/>
  <linearGradient id="lg18" y2="-115.6" gradientUnits="userSpaceOnUse" x2="12.31" y1="-68.6" x1="33">
   <stop stop-color="#d3d7cf" offset="0"/>
   <stop stop-color="#eeeeec" offset="1"/>
  </linearGradient>
  <linearGradient id="lg19" y2="-94.36" gradientUnits="userSpaceOnUse" x2="23.93" y1="-104.15" x1="23.93">
   <stop stop-color="#f57900" offset="0"/>
   <stop stop-color="#fce94f" offset="1"/>
  </linearGradient>
  <radialGradient id="rg3" gradientUnits="userSpaceOnUse" cy="-96" cx="22" gradientTransform="translate(-5,2)" r="4">
   <stop stop-color="#fff" offset="0"/>
   <stop stop-color="#fff" offset=".81"/>
   <stop stop-color="#fdf4a7" offset=".84"/>
   <stop stop-color="#fce94f" stop-opacity="0" offset="1"/>
  </radialGradient>
  <radialGradient id="rg4" xlink:href="#lg7" gradientUnits="userSpaceOnUse" cy="-77" cx="6.67" gradientTransform="matrix(2.5832 0 0 .94363 -13.122 -28.19)" r="15.5"/>
 </defs>
 <path opacity=".7" fill="url(#rg0)" d="m48.437 24.218c0.003 13.378-10.841 24.224-24.219 24.224-13.377 0-24.221-10.846-24.218-24.224-0.0027183-13.377 10.841-24.223 24.218-24.223 13.378 0.0000788 24.222 10.846 24.219 24.223z" transform="matrix(.94892 .28565 -.26185 .86984 7.7139 -2.162)"/>
 <rect transform="matrix(.96448 -.26417 .26417 .96448 21.295 86.053)" rx=".965" ry=".86" height="22" width="38" stroke="#888a85" y="-77.5" x="1.5" fill="#eeeeec"/>
 <rect transform="matrix(.96448 -.26417 .26417 .96448 21.295 86.053)" rx="0" ry="0" height="20" width="36" stroke="#fff" y="-76.5" x="2.5" fill="none"/>
 <rect transform="matrix(.96448 -.26417 .26417 .96448 21.295 86.053)" rx="0" ry="0" height="16" width="32" stroke="#729fcf" y="-74.5" x="4.5" fill="url(#lg11)"/>
 <path d="m5-58.5c1.4375-7.5 3.9477-4.799 6.188-11.188 1.313 0.772 1.799 0.268 2.812 1.126 1.009 1.252 1.472 3.231 2 5.124 2.903-4.562 3.561 1.438 7.188 2.376 3.812-1.411 4.312-9.938 6.312-8.938 0.818-0.762 1.564-5.578 2.5-2 1 4 3.664 8.257 4.5 12v1.5h-31.5z" fill-rule="evenodd" transform="matrix(.96448 -.26417 .26417 .96448 21.295 86.053)" stroke="url(#lg13)" fill="url(#lg12)"/>
 <path opacity=".525" fill="url(#rg1)" d="m5-74h31v7c-16.342-3.067-26.417 1.721-31 7v-14z" transform="matrix(.96448 -.26417 .26417 .96448 21.295 86.053)"/>
 <rect transform="matrix(.96593 .25882 -.25882 .96593 -54.178 80.868)" rx=".965" ry=".86" height="22" width="38" stroke="#888a85" y="-77.5" x="41.5" fill="#eeeeec"/>
 <rect transform="matrix(.96593 .25882 -.25882 .96593 -54.178 80.868)" rx="0" ry="0" height="20" width="36" stroke="#fff" y="-76.5" x="42.5" fill="none"/>
 <rect transform="matrix(.96593 .25882 -.25882 .96593 -54.178 80.868)" rx="0" ry="0" height="16" width="32" stroke="#729fcf" y="-74.5" x="44.5" fill="url(#lg14)"/>
 <path opacity=".5" fill="url(#rg2)" d="m45-74h31v7c-16.342-3.067-26.417 1.721-31 7v-14z" transform="matrix(.96593 .25882 -.25882 .96593 -54.178 80.868)"/>
 <path fill="url(#lg15)" d="m44.5-63.438c8.111-2.277 19.968-2.682 32-3v7.938h-32v-4.938z" stroke="url(#lg16)" transform="matrix(.96593 .25882 -.25882 .96593 -54.178 80.868)"/>
 <path opacity=".2" d="m6.5 16.469l1.9688 18.937c0.1253 1.199 1.2494 1.962 2.3752 1.844l30.344-3.188 1.75-6.5c0.202-0.754-0.305-1.515-1.063-1.718l-34.844-9.313c-0.1787-0.048-0.3546-0.078-0.531-0.062z" fill="url(#lg17)"/>
 <rect transform="matrix(.99458 -.10394 .10394 .99458 17.141 121.36)" rx=".97" ry=".86" height="22" width="38" stroke="#888a85" y="-107.5" x="1.5" fill="url(#lg18)"/>
 <rect transform="matrix(.99458 -.10394 .10394 .99458 17.141 121.36)" rx="0" ry="0" height="20" width="36" stroke="#fff" y="-106.5" x="2.5" fill="none"/>
 <rect transform="matrix(.99458 -.10394 .10394 .99458 17.141 121.36)" rx="0" ry="0" height="16" width="32" stroke="#f57900" y="-104.5" x="4.5" fill="url(#lg19)"/>
 <rect transform="matrix(.99458 -.10394 .10394 .99458 17.141 121.36)" height="8" width="8" y="-98" x="13" fill="url(#rg3)"/>
 <path d="m4.5-89c1.7655-1.895 2.7342-2.121 7.312-3.812 2.518 2.097 5.632 3.253 8.563 1.562 3.653-2.407 5.938 0.191 9.437-2.625 1.6 0.896 2.756 1.854 6.688 2.875v2.5h-32v-0.5z" fill-rule="evenodd" transform="matrix(.99458 -.10394 .10394 .99458 17.141 121.36)" stroke="#000"/>
 <path opacity=".75" fill="url(#rg4)" d="m5-104h31v7c-16.342-3.07-26.417 1.721-31 7v-14z" transform="matrix(.99458 -.10394 .10394 .99458 17.141 121.36)"/>
</svg>