<svg viewBox="0 0 48 48" xmlns="http://www.w3.org/2000/svg"><g opacity=".6" stroke-linejoin="round" transform="matrix(2.3480105 0 0 2.3395104 -150.2812 -856.44865)"><rect fill="#def4cf" height="14.92047" ry=".090066" stroke-width=".593611" width="18.543655" x="64.948013" y="368.7222"/><g fill="none" stroke="#888a85"><g stroke-width="1.232"><path d="m77.305 372.64h6.1599v3.6959h-6.1599z" opacity="1"/><path d="m77.305 376.34h6.1599v3.6959h-6.1599z" opacity="1"/><path d="m77.305 380.03h6.1599v3.6959h-6.1599z" opacity="1"/></g><path d="m77.361 369h6.048v3.5837h-6.048z" opacity="1" stroke-width="1.3439"/></g><g fill="#729fcf" transform="matrix(.42589247 0 0 .42743986 97.110686 380.93924)"><path d="m-75.45519-22.008225 9.973353-5.966103-9.973353-.186927z" opacity="1"/><path d="m-49.07506-27.974328 2.421299-.05124-.116203 8.051308-28.745762 17.3559431-.135598-9.4915331z" opacity="1"/><path d="m-46.769973-9.9404219v9.49150999l-12.067797 7.18643801-15.457627-.271173z" opacity="1"/></g><g fill="none" stroke-width="1.3597"><path d="m65.049 372.69h6.0322v3.6777h-6.0322z" opacity="1" stroke="#555753"/><path d="m65.049 368.96h6.0322v3.6777h-6.0322z" opacity="1" stroke="#555753"/><path d="m65.049 376.37h6.0322v3.6777h-6.0322z" opacity="1" stroke="#555753"/><path d="m65.049 380.04h6.0322v3.6777h-6.0322z" opacity="1" stroke="#555753"/><path d="m71.209 372.69h6.0322v3.6777h-6.0322z" opacity="1" stroke="#204a87"/><path d="m71.209 368.96h6.0322v3.6777h-6.0322z" opacity="1" stroke="#204a87"/><path d="m71.209 376.37h6.0322v3.6777h-6.0322z" opacity="1" stroke="#204a87"/><path d="m71.209 380.04h6.0322v3.6777h-6.0322z" opacity="1" stroke="#204a87"/></g></g></svg>