<?xml version="1.0" encoding="UTF-8" standalone="no"?>
<svg
   xmlns:dc="http://purl.org/dc/elements/1.1/"
   xmlns:cc="http://creativecommons.org/ns#"
   xmlns:rdf="http://www.w3.org/1999/02/22-rdf-syntax-ns#"
   xmlns:svg="http://www.w3.org/2000/svg"
   xmlns="http://www.w3.org/2000/svg"
   xmlns:sodipodi="http://sodipodi.sourceforge.net/DTD/sodipodi-0.dtd"
   xmlns:inkscape="http://www.inkscape.org/namespaces/inkscape"
   width="203.28813pt"
   height="59.553097pt"
   viewBox="-11 -0.5 934.45591 273.74812"
   version="1.2"
   id="svg8626"
   sodipodi:docname="main-wide.svg"
   inkscape:version="0.92.2 (5c3e80d, 2017-08-06)">
  <metadata
     id="metadata8630">
    <rdf:RDF>
      <cc:Work
         rdf:about="">
        <dc:format>image/svg+xml</dc:format>
        <dc:type
           rdf:resource="http://purl.org/dc/dcmitype/StillImage" />
        <dc:title>SVG Generator Example Drawing</dc:title>
      </cc:Work>
    </rdf:RDF>
  </metadata>
  <sodipodi:namedview
     pagecolor="#ffffff"
     bordercolor="#666666"
     borderopacity="1"
     objecttolerance="10"
     gridtolerance="10"
     guidetolerance="10"
     inkscape:pageopacity="0"
     inkscape:pageshadow="2"
     inkscape:window-width="1920"
     inkscape:window-height="1018"
     id="namedview8628"
     showgrid="false"
     fit-margin-top="0"
     fit-margin-left="0"
     fit-margin-right="0"
     fit-margin-bottom="0"
     inkscape:zoom="1.4142136"
     inkscape:cx="-304.78707"
     inkscape:cy="13.997751"
     inkscape:window-x="-8"
     inkscape:window-y="-8"
     inkscape:window-maximized="1"
     inkscape:current-layer="text886"
     units="pt" />
  <title
     id="title2">SVG Generator Example Drawing</title>
  <desc
     id="desc4">An SVG drawing created by the SVG Generator.</desc>
  <defs
     id="defs6" />
  <g
     id="g8624"
     style="fill:none;fill-rule:evenodd;stroke:#000000;stroke-width:1;stroke-linecap:square;stroke-linejoin:bevel"
     transform="translate(-158.84618,291.15913)">
    <g
       id="g874"
       transform="matrix(0.63179433,0,0,0.63179433,75.313279,-177.44991)">
      <g
         id="g1236"
         font-style="normal"
         font-weight="400"
         font-size="8.25"
         transform="matrix(1.1638308,0,0,1.4874075,-514.18854,-2316.499)"
         style="font-style:normal;font-weight:400;font-size:8.25px;font-family:'MS Shell Dlg 2';fill:none;stroke:#808080;stroke-width:14;stroke-linecap:square;stroke-linejoin:bevel;stroke-opacity:1">
        <path
           id="path1234"
           d="m 675.074,1642.96 10.14,34.7"
           inkscape:connector-curvature="0"
           style="vector-effect:none;fill-rule:evenodd" />
      </g>
      <g
         id="g1732"
         font-style="normal"
         font-weight="400"
         font-size="8.25"
         transform="matrix(1.0845446,0,0,1.2004944,-455.81137,-1826.4099)"
         style="font-style:normal;font-weight:400;font-size:8.25px;font-family:'MS Shell Dlg 2';fill:none;stroke:#808080;stroke-width:12;stroke-linecap:square;stroke-linejoin:bevel;stroke-opacity:1">
        <path
           id="path1730"
           d="m 790.962,1536.9 -3.391,51"
           inkscape:connector-curvature="0"
           style="vector-effect:none;fill-rule:evenodd" />
      </g>
      <g
         id="g1796"
         font-style="normal"
         font-weight="400"
         font-size="8.25"
         transform="matrix(1.2317717,0,0,1.2763215,-574.72674,-1931.0577)"
         style="font-style:normal;font-weight:400;font-size:8.25px;font-family:'MS Shell Dlg 2';fill:none;stroke:#808080;stroke-width:12;stroke-linecap:square;stroke-linejoin:bevel;stroke-opacity:1">
        <path
           id="path1794"
           d="m 806.587,1467.5 16.222,-41.03"
           inkscape:connector-curvature="0"
           style="vector-effect:none;fill-rule:evenodd" />
      </g>
      <g
         id="g2028"
         font-style="normal"
         font-weight="400"
         font-size="8.25"
         transform="matrix(1.239496,0,0,1.2266585,-571.26932,-1868.8521)"
         style="font-style:normal;font-weight:400;font-size:8.25px;font-family:'MS Shell Dlg 2';fill:none;stroke:#808080;stroke-width:11;stroke-linecap:square;stroke-linejoin:bevel;stroke-opacity:1">
        <path
           id="path2026"
           d="m 692.585,1585.3 73.158,-61.22"
           inkscape:connector-curvature="0"
           style="vector-effect:none;fill-rule:evenodd" />
      </g>
      <g
         id="g2108"
         font-style="normal"
         font-weight="400"
         font-size="8.25"
         transform="matrix(1.4033231,0,0,1.3316151,-662.50381,-2039.2733)"
         style="font-style:normal;font-weight:400;font-size:8.25px;font-family:'MS Shell Dlg 2';fill:none;stroke:#808080;stroke-width:11;stroke-linecap:square;stroke-linejoin:bevel;stroke-opacity:1">
        <path
           id="path2106"
           d="m 632.772,1592.32 -32.311,-16.14"
           inkscape:connector-curvature="0"
           style="vector-effect:none;fill-rule:evenodd" />
      </g>
      <g
         id="g2476"
         font-style="normal"
         font-weight="400"
         font-size="8.25"
         transform="matrix(1.378301,0,0,1.3144247,-646.30831,-2021.3776)"
         style="font-style:normal;font-weight:400;font-size:8.25px;font-family:'MS Shell Dlg 2';fill:none;stroke:#808080;stroke-width:10;stroke-linecap:square;stroke-linejoin:bevel;stroke-opacity:1">
        <path
           id="path2474"
           d="m 637.348,1631.49 -30.721,25.66"
           inkscape:connector-curvature="0"
           style="vector-effect:none;fill-rule:evenodd" />
      </g>
      <g
         id="g2740"
         font-style="normal"
         font-weight="400"
         font-size="8.25"
         transform="matrix(1.2839611,0,0,1.2936898,-620.60099,-1971.3506)"
         style="font-style:normal;font-weight:400;font-size:8.25px;font-family:'MS Shell Dlg 2';fill:none;stroke:#808080;stroke-width:9;stroke-linecap:square;stroke-linejoin:bevel;stroke-opacity:1">
        <path
           id="path2738"
           d="m 817.765,1527.43 26.352,28.56"
           inkscape:connector-curvature="0"
           style="vector-effect:none;fill-rule:evenodd" />
      </g>
      <g
         id="g2916"
         font-style="normal"
         font-weight="400"
         font-size="8.25"
         transform="matrix(1.3844953,0,0,1.3387518,-685.12791,-2021.8962)"
         style="font-style:normal;font-weight:400;font-size:8.25px;font-family:'MS Shell Dlg 2';fill:none;stroke:#808080;stroke-width:8;stroke-linecap:square;stroke-linejoin:bevel;stroke-opacity:1">
        <path
           id="path2914"
           d="m 771.53,1472.34 -23.513,-30.85"
           inkscape:connector-curvature="0"
           style="vector-effect:none;fill-rule:evenodd" />
      </g>
      <g
         id="g3148"
         font-style="normal"
         font-weight="400"
         font-size="8.25"
         transform="matrix(1.4831814,0,0,1.0693516,-790.2908,-1627.7792)"
         style="font-style:normal;font-weight:400;font-size:8.25px;font-family:'MS Shell Dlg 2';fill:none;stroke:#808080;stroke-width:7;stroke-linecap:square;stroke-linejoin:bevel;stroke-opacity:1">
        <path
           id="path3146"
           d="m 828.618,1493.75 43.218,-8.85"
           inkscape:connector-curvature="0"
           style="vector-effect:none;fill-rule:evenodd" />
      </g>
      <g
         id="g3172"
         font-style="normal"
         font-weight="400"
         font-size="8.25"
         transform="matrix(1.2996965,0,0,1.2978454,-615.73159,-1990.6225)"
         style="font-style:normal;font-weight:400;font-size:8.25px;font-family:'MS Shell Dlg 2';fill:none;stroke:#808080;stroke-width:7;stroke-linecap:square;stroke-linejoin:bevel;stroke-opacity:1">
        <path
           id="path3170"
           d="m 700.685,1612.99 48.79,6.26"
           inkscape:connector-curvature="0"
           style="vector-effect:none;fill-rule:evenodd" />
      </g>
      <circle
         r="34.02161"
         cy="98.833313"
         cx="260.66736"
         id="path9569-5-3"
         style="fill:#0000ff;fill-opacity:1;fill-rule:evenodd;stroke:none;stroke-width:19.87858391;stroke-linecap:round;stroke-linejoin:bevel;stroke-miterlimit:4;stroke-dasharray:none;paint-order:normal" />
      <circle
         r="34.02161"
         cy="-21.611084"
         cx="404.57483"
         id="path9569-5-7"
         style="fill:#0000ff;fill-opacity:1;fill-rule:evenodd;stroke:none;stroke-width:19.87858391;stroke-linecap:round;stroke-linejoin:bevel;stroke-miterlimit:4;stroke-dasharray:none;paint-order:normal" />
      <circle
         r="34.02161"
         cy="117.99487"
         cx="394.79858"
         id="path9569"
         style="fill:#ffff00;fill-opacity:1;stroke:none;stroke-width:19.87858391;stroke-linecap:round;stroke-miterlimit:4;stroke-dasharray:none;paint-order:normal" />
      <circle
         r="34.02161"
         cy="69.895393"
         cx="489.04236"
         id="path9569-5"
         style="fill:#0000ff;fill-opacity:1;fill-rule:evenodd;stroke:none;stroke-width:19.87858391;stroke-linecap:round;stroke-linejoin:bevel;stroke-miterlimit:4;stroke-dasharray:none;paint-order:normal" />
      <circle
         r="34.02161"
         cy="-47.420517"
         cx="532.84033"
         id="path9569-5-0"
         style="fill:#0000ff;fill-opacity:1;fill-rule:evenodd;stroke:none;stroke-width:19.87858391;stroke-linecap:round;stroke-linejoin:bevel;stroke-miterlimit:4;stroke-dasharray:none;paint-order:normal" />
      <circle
         r="34.02161"
         cy="-146.748"
         cx="453.06558"
         id="path9569-5-6"
         style="fill:#0000ff;fill-opacity:1;fill-rule:evenodd;stroke:none;stroke-width:19.87858391;stroke-linecap:round;stroke-linejoin:bevel;stroke-miterlimit:4;stroke-dasharray:none;paint-order:normal" />
      <circle
         r="34.02161"
         cy="-121.72052"
         cx="330.27484"
         id="path9569-5-2"
         style="fill:#0000ff;fill-opacity:1;fill-rule:evenodd;stroke:none;stroke-width:19.87858391;stroke-linecap:round;stroke-linejoin:bevel;stroke-miterlimit:4;stroke-dasharray:none;paint-order:normal" />
      <circle
         r="34.02161"
         cy="218.49553"
         cx="295.08014"
         id="path9569-5-1"
         style="fill:#0000ff;fill-opacity:1;fill-rule:evenodd;stroke:none;stroke-width:19.87858391;stroke-linecap:round;stroke-linejoin:bevel;stroke-miterlimit:4;stroke-dasharray:none;paint-order:normal" />
      <circle
         r="34.02161"
         cy="180.17229"
         cx="161.34003"
         id="path9569-5-8"
         style="fill:#0000ff;fill-opacity:1;fill-rule:evenodd;stroke:none;stroke-width:19.87858391;stroke-linecap:round;stroke-linejoin:bevel;stroke-miterlimit:4;stroke-dasharray:none;paint-order:normal" />
      <circle
         r="34.02161"
         cy="42.521698"
         cx="148.82622"
         id="path9569-5-25"
         style="fill:#0000ff;fill-opacity:1;fill-rule:evenodd;stroke:none;stroke-width:19.87858391;stroke-linecap:round;stroke-linejoin:bevel;stroke-miterlimit:4;stroke-dasharray:none;paint-order:normal" />
    </g>
    <g
       aria-label="MetGem"
       style="font-style:normal;font-weight:normal;font-size:137.90119934px;line-height:125%;font-family:sans-serif;letter-spacing:0px;word-spacing:0px;fill:#000000;fill-opacity:1;stroke:none;stroke-width:3.44753003px;stroke-linecap:butt;stroke-linejoin:miter;stroke-opacity:1"
       id="text886">
      <path
         d="m 576.62704,-191.60469 v 85.08504 h 19.03036 v -34.1995 z m 57.229,79.15529 33.64789,-90.60109 h -19.03037 l -23.99481,65.50307 z m -38.19864,-90.60109 h -19.03036 l 36.13011,96.53084 h 18.89247 z m 52.81616,62.74504 v 33.7858 h 19.03037 v -85.08504 z"
         style="font-style:normal;font-variant:normal;font-weight:normal;font-stretch:normal;font-family:'Standard CT Stencil';-inkscape-font-specification:'Standard CT Stencil';stroke-width:3.44753003px"
         id="path888"
         inkscape:connector-curvature="0" />
      <path
         d="m 716.22399,-104.86484 c 16.82395,-0.6895 25.37382,-9.51518 30.20036,-17.51345 l -15.16913,-8.96358 c -2.62012,5.37815 -5.79185,10.06679 -15.03123,10.61839 z m -12.82481,-46.1969 c -0.68951,2.34432 -0.96531,5.10234 -0.96531,7.99827 0,1.93062 0,3.72333 0.2758,5.37815 h 43.99049 c 0,-8.82568 -1.65482,-18.89247 -6.34346,-26.75284 -4.82654,-7.99827 -12.82481,-13.92802 -24.13271,-14.61752 v 15.85863 c 7.58457,1.51692 9.79099,8.13617 10.34259,12.13531 z m -5.10235,7.99827 c 0,-10.06679 3.30963,-19.71987 13.79012,-20.13358 v -15.85863 c -14.34172,0.8274 -32.13097,10.06678 -32.13097,38.33653 0,25.78752 19.85777,34.889 32.13097,35.85431 v -15.85864 c -11.16999,-2.20642 -13.79012,-12.82481 -13.79012,-22.33999 z"
         style="font-style:normal;font-variant:normal;font-weight:normal;font-stretch:normal;font-family:'Standard CT Stencil';-inkscape-font-specification:'Standard CT Stencil';stroke-width:3.44753003px"
         id="path890"
         inkscape:connector-curvature="0" />
      <path
         d="m 798.12654,-162.23174 v -15.44493 h -14.61753 v -25.37382 h -18.61666 v 25.37382 h -11.85951 v 15.44493 h 11.85951 v 36.68172 c 0,12.96271 3.86123,19.71987 21.51258,19.71987 1.10321,0 8.96358,0 11.72161,-0.4137 v -16.82395 c -2.62013,0.1379 -3.99914,0.1379 -6.20556,0.1379 -7.03296,0 -8.41197,-2.20642 -8.41197,-9.10148 v -30.20036 z"
         style="font-style:normal;font-variant:normal;font-weight:normal;font-stretch:normal;font-family:'Standard CT Stencil';-inkscape-font-specification:'Standard CT Stencil';stroke-width:3.44753003px"
         id="path892"
         inkscape:connector-curvature="0" />
      <path
         d="m 853.9959,-186.91605 c 12.96271,0.96531 18.89247,10.20469 21.37469,15.85864 l 17.09975,-8.82568 c -3.44753,-9.10148 -14.89333,-24.82222 -38.47444,-25.64962 z m 0,82.87862 c 8.27407,-0.41371 16.54814,-3.58543 22.20209,-10.48049 h 0.27581 v 7.99827 h 17.37555 v -53.22987 H 853.7201 v 16.82395 h 22.06419 c 0,9.37728 -6.06765,19.44407 -21.78839,20.27148 z m -4.13704,-18.61666 c -15.03123,-1.24111 -22.89159,-15.30704 -22.89159,-32.26888 0,-19.71988 9.79098,-30.88987 22.89159,-31.99308 v -18.61666 c -19.16826,0.8274 -43.85258,13.51431 -43.85258,50.74764 0,27.99394 16.13444,49.78233 43.85258,50.74764 z"
         style="font-style:normal;font-variant:normal;font-weight:normal;font-stretch:normal;font-family:'Standard CT Stencil';-inkscape-font-specification:'Standard CT Stencil';stroke-width:3.44753003px"
         id="path894"
         inkscape:connector-curvature="0" />
      <path
         d="m 941.92947,-104.86484 c 16.82394,-0.6895 25.37382,-9.51518 30.20036,-17.51345 l -15.16913,-8.96358 c -2.62013,5.37815 -5.79185,10.06679 -15.03123,10.61839 z m -12.82482,-46.1969 c -0.6895,2.34432 -0.9653,5.10234 -0.9653,7.99827 0,1.93062 0,3.72333 0.2758,5.37815 h 43.99048 c 0,-8.82568 -1.65481,-18.89247 -6.34345,-26.75284 -4.82655,-7.99827 -12.82482,-13.92802 -24.13271,-14.61752 v 15.85863 c 7.58456,1.51692 9.79098,8.13617 10.34259,12.13531 z m -5.10234,7.99827 c 0,-10.06679 3.30963,-19.71987 13.79012,-20.13358 v -15.85863 c -14.34173,0.8274 -32.13098,10.06678 -32.13098,38.33653 0,25.78752 19.85777,34.889 32.13098,35.85431 v -15.85864 c -11.17,-2.20642 -13.79012,-12.82481 -13.79012,-22.33999 z"
         style="font-style:normal;font-variant:normal;font-weight:normal;font-stretch:normal;font-family:'Standard CT Stencil';-inkscape-font-specification:'Standard CT Stencil';stroke-width:3.44753003px"
         id="path896"
         inkscape:connector-curvature="0" />
      <path
         d="m 1002.0436,-177.67667 h -18.47874 v 71.15702 h 18.47874 z m 43.7147,18.47876 c 2.8959,-3.03383 5.7919,-4.13704 9.5152,-4.13704 7.9983,0 8.5499,6.06766 8.5499,11.5837 v 45.2316 h 18.4787 v -44.26629 c 0,-9.51518 -2.3443,-28.26974 -21.2368,-28.26974 -8.5498,0 -13.928,1.79271 -19.9956,5.37814 1.9306,3.58543 3.9991,8.82568 4.6886,14.47963 z m -3.5854,12.41111 c 0,-17.51346 -3.4476,-32.26888 -22.2021,-32.26888 -6.0677,0 -10.3426,1.93061 -13.7901,4.55074 v 15.30703 c 2.2064,-2.62012 5.3781,-4.13704 9.1014,-4.13704 7.5846,0 8.412,5.51605 8.412,11.5837 v 45.2316 h 18.4788 z"
         style="font-style:normal;font-variant:normal;font-weight:normal;font-stretch:normal;font-family:'Standard CT Stencil';-inkscape-font-specification:'Standard CT Stencil';stroke-width:3.44753003px"
         id="path898"
         inkscape:connector-curvature="0" />
    </g>
  </g>
</svg>
