<?xml version="1.0" encoding="UTF-8" standalone="no"?>
<!-- Created with Inkscape (http://www.inkscape.org/) -->

<svg
   xmlns:dc="http://purl.org/dc/elements/1.1/"
   xmlns:cc="http://creativecommons.org/ns#"
   xmlns:rdf="http://www.w3.org/1999/02/22-rdf-syntax-ns#"
   xmlns:svg="http://www.w3.org/2000/svg"
   xmlns="http://www.w3.org/2000/svg"
   xmlns:sodipodi="http://sodipodi.sourceforge.net/DTD/sodipodi-0.dtd"
   xmlns:inkscape="http://www.inkscape.org/namespaces/inkscape"
   width="72pt"
   height="72pt"
   viewBox="0 0 25.400001 25.400001"
   version="1.1"
   id="svg1155"
   inkscape:version="0.92.3 (2405546, 2018-03-11)"
   sodipodi:docname="logo.svg">
  <defs
     id="defs1149">
    <clipPath
       clipPathUnits="userSpaceOnUse"
       id="clipPath34-0">
      <path
         d="M 0,1 H 126 V 96 H 0 Z"
         id="path36-6"
         inkscape:connector-curvature="0" />
    </clipPath>
  </defs>
  <sodipodi:namedview
     id="base"
     pagecolor="#ffffff"
     bordercolor="#666666"
     borderopacity="1.0"
     inkscape:pageopacity="0.0"
     inkscape:pageshadow="2"
     inkscape:zoom="3.959798"
     inkscape:cx="22.414992"
     inkscape:cy="91.822319"
     inkscape:document-units="mm"
     inkscape:current-layer="layer1"
     showgrid="false"
     inkscape:window-width="1680"
     inkscape:window-height="1028"
     inkscape:window-x="1912"
     inkscape:window-y="22"
     inkscape:window-maximized="1"
     units="pt" />
  <metadata
     id="metadata1152">
    <rdf:RDF>
      <cc:Work
         rdf:about="">
        <dc:format>image/svg+xml</dc:format>
        <dc:type
           rdf:resource="http://purl.org/dc/dcmitype/StillImage" />
        <dc:title></dc:title>
      </cc:Work>
    </rdf:RDF>
  </metadata>
  <g
     inkscape:label="Layer 1"
     inkscape:groupmode="layer"
     id="layer1"
     transform="translate(0,-271.59999)">
    <g
       id="g1840"
       transform="matrix(0.11534114,0,0,0.11534114,0.5891803,262.15449)">
      <g
         clip-path="url(#clipPath34-0)"
         id="g32"
         transform="matrix(1.7207448,0,0,-1.7207448,-2.9223643,275.5592)">
        <g
           id="g38">
          <g
             transform="matrix(1,-0.147859,-0.147859,-1,0,96)"
             id="g134" />
          <g
             transform="translate(2.4091494)"
             id="g947">
            <path
               inkscape:connector-curvature="0"
               id="path42"
               style="fill:none;stroke:#000000;stroke-width:3.46000004;stroke-linecap:butt;stroke-linejoin:miter;stroke-miterlimit:8;stroke-dasharray:none;stroke-opacity:1"
               d="M 36.305,26.945 28.367,41.188" />
            <path
               inkscape:connector-curvature="0"
               id="path50"
               style="fill:none;stroke:#000000;stroke-width:2.01999998;stroke-linecap:butt;stroke-linejoin:miter;stroke-miterlimit:8;stroke-dasharray:none;stroke-opacity:1"
               d="M 41.305,11.195 36.367,26.438" />
            <path
               inkscape:connector-curvature="0"
               id="path54"
               style="fill:none;stroke:#000000;stroke-width:2.4000001;stroke-linecap:butt;stroke-linejoin:miter;stroke-miterlimit:8;stroke-dasharray:none;stroke-opacity:1"
               d="m 29.117,62.688 -21.5,-2.75" />
            <path
               sodipodi:nodetypes="cc"
               inkscape:connector-curvature="0"
               id="path58"
               style="fill:none;stroke:#000000;stroke-width:5.86000013;stroke-linecap:butt;stroke-linejoin:miter;stroke-miterlimit:8;stroke-dasharray:none;stroke-opacity:1"
               d="m 29.983616,62.802232 2.964256,21.749896" />
            <path
               inkscape:connector-curvature="0"
               id="path62"
               style="fill:none;stroke:#000000;stroke-width:4.73999977;stroke-linecap:butt;stroke-linejoin:miter;stroke-miterlimit:8;stroke-dasharray:none;stroke-opacity:1"
               d="m 13.305,10.195 -1,19" />
            <path
               inkscape:connector-curvature="0"
               id="path66"
               style="fill:none;stroke:#000000;stroke-width:2.33999991;stroke-linecap:butt;stroke-linejoin:miter;stroke-miterlimit:8;stroke-dasharray:none;stroke-opacity:1"
               d="m 28.117,41.688 1.75,21.5" />
            <path
               inkscape:connector-curvature="0"
               id="path70"
               style="fill:none;stroke:#000000;stroke-width:1.13999999;stroke-linecap:butt;stroke-linejoin:miter;stroke-miterlimit:8;stroke-dasharray:none;stroke-opacity:1"
               d="m 12.367,29.438 16.41,13.124" />
            <path
               inkscape:connector-curvature="0"
               id="path74"
               style="fill:none;stroke:#000000;stroke-width:3.77999997;stroke-linecap:butt;stroke-linejoin:miter;stroke-miterlimit:8;stroke-dasharray:none;stroke-opacity:1"
               d="M 54.344,56.73 31.117,62.438" />
            <g
               id="g76"
               transform="matrix(1,-0.147859,-0.147859,-1,0,96)">
              <path
                 d="m 26.379,28.693 c 0,-4.257 3.454,-7.71 7.712,-7.71 4.257,-0.001 7.713,3.453 7.71,7.711 10e-4,4.258 -3.45,7.71 -7.711,7.711 -4.258,0 -7.71,-3.454 -7.711,-7.712 z"
                 style="fill:#0254a9;fill-opacity:1;fill-rule:nonzero;stroke:#000000;stroke-width:0.989245;stroke-linecap:butt;stroke-linejoin:miter;stroke-miterlimit:8;stroke-dasharray:none;stroke-opacity:1"
                 id="path78"
                 inkscape:connector-curvature="0" />
            </g>
            <path
               d="m 23.188,86.691 c 0.8,5.418 5.843,9.164 11.265,8.364 5.418,-0.805 9.164,-5.848 8.363,-11.266 -0.8,-5.422 -5.847,-9.168 -11.265,-8.363 -5.422,0.801 -9.168,5.844 -8.363,11.265 z"
               style="fill:#0254a9;fill-opacity:1;fill-rule:nonzero;stroke:none"
               id="path80"
               inkscape:connector-curvature="0" />
            <g
               id="g82"
               transform="matrix(1,-0.147859,-0.147859,-1,0,96)">
              <path
                 d="m 24.038,5.754 c 0,-5.418 4.393,-9.813 9.815,-9.814 5.418,0.003 9.814,4.396 9.814,9.814 10e-4,5.422 -4.396,9.818 -9.814,9.815 -5.422,10e-4 -9.814,-4.393 -9.815,-9.815 z"
                 style="fill:none;stroke:#000000;stroke-width:0.989245;stroke-linecap:butt;stroke-linejoin:miter;stroke-miterlimit:8;stroke-dasharray:none;stroke-opacity:1"
                 id="path84"
                 inkscape:connector-curvature="0" />
            </g>
            <g
               id="g86"
               transform="matrix(1,-0.147859,-0.147859,-1,0,96)">
              <path
                 d="m 6.104,34.121 c -0.003,-3.636 2.947,-6.588 6.588,-6.587 3.64,-0.004 6.588,2.947 6.591,6.587 0,3.641 -2.951,6.589 -6.591,6.592 C 9.055,40.712 6.103,37.762 6.104,34.121 Z"
                 style="fill:#0254a9;fill-opacity:1;fill-rule:nonzero;stroke:#000000;stroke-width:0.989245;stroke-linecap:butt;stroke-linejoin:miter;stroke-miterlimit:8;stroke-dasharray:none;stroke-opacity:1"
                 id="path88"
                 inkscape:connector-curvature="0" />
            </g>
            <g
               id="g90"
               transform="matrix(1,-0.147859,-0.147859,-1,0,96)">
              <path
                 d="m 28.241629,49.346226 c 0.0033,-3.820156 3.100467,-6.920622 6.924085,-6.920622 3.822753,0 6.919754,3.100466 6.919754,6.920622 0,3.822753 -3.097001,6.922354 -6.919754,6.923218 -3.822754,0 -6.92322,-3.100465 -6.924085,-6.923218 z"
                 style="fill:#0254a9;fill-opacity:1;fill-rule:nonzero;stroke:#000000;stroke-width:0.85673749;stroke-linecap:butt;stroke-linejoin:miter;stroke-miterlimit:8;stroke-dasharray:none;stroke-opacity:1"
                 id="path92"
                 inkscape:connector-curvature="0" />
            </g>
            <g
               id="g94"
               transform="matrix(1,-0.147859,-0.147859,-1,0.20205144,95.595897)">
              <path
                 d="m 50.561,30.161 c 0,-4.414 3.58,-7.991 7.994,-7.991 4.414,0 7.99,3.577 7.99,7.991 0.001,4.414 -3.575,7.993 -7.989,7.994 -4.414,0 -7.995,-3.58 -7.995,-7.994 z"
                 style="fill:#0254a9;fill-opacity:1;fill-rule:nonzero;stroke:#000000;stroke-width:0.989245;stroke-linecap:butt;stroke-linejoin:miter;stroke-miterlimit:8;stroke-dasharray:none;stroke-opacity:1"
                 id="path96"
                 inkscape:connector-curvature="0" />
            </g>
            <g
               id="g98"
               transform="matrix(1,-0.147859,-0.147859,-1,0,96)">
              <path
                 d="m 17.065,63.293 c -0.002,-2.71 2.197,-4.907 4.907,-4.909 2.712,10e-4 4.907,2.196 4.906,4.908 0.002,2.71 -2.197,4.906 -4.907,4.909 -2.711,-0.002 -4.907,-2.197 -4.906,-4.908 z"
                 style="fill:#0254a9;fill-opacity:1;fill-rule:nonzero;stroke:#000000;stroke-width:0.989245;stroke-linecap:butt;stroke-linejoin:miter;stroke-miterlimit:8;stroke-dasharray:none;stroke-opacity:1"
                 id="path100"
                 inkscape:connector-curvature="0" />
            </g>
            <g
               id="g102"
               transform="matrix(1,-0.147859,-0.147859,-1,0,96)">
              <path
                 d="m 45.154,76.913 c 0.003,-4.18 3.392,-7.568 7.572,-7.568 4.183,-0.002 7.571,3.388 7.573,7.571 0,4.18 -3.389,7.572 -7.573,7.569 -4.179,0.001 -7.571,-3.388 -7.572,-7.572 z"
                 style="fill:#0254a9;fill-opacity:1;fill-rule:nonzero;stroke:#000000;stroke-width:0.989245;stroke-linecap:butt;stroke-linejoin:miter;stroke-miterlimit:8;stroke-dasharray:none;stroke-opacity:1"
                 id="path104"
                 inkscape:connector-curvature="0" />
            </g>
            <g
               id="g106"
               transform="matrix(1,-0.147859,-0.147859,-1,5.1993784,95.428512)">
              <path
                 d="m 77.263,25.553 c -0.001,-4.414 3.576,-7.99 7.99,-7.99 4.414,-10e-4 7.994,3.575 7.994,7.989 -0.004,4.415 -3.58,7.995 -7.994,7.995 -4.414,0 -7.99,-3.58 -7.99,-7.994 z"
                 style="fill:#ff6666;fill-opacity:1;fill-rule:nonzero;stroke:#000000;stroke-width:0.989245;stroke-linecap:butt;stroke-linejoin:miter;stroke-miterlimit:8;stroke-dasharray:none;stroke-opacity:1"
                 id="path108"
                 inkscape:connector-curvature="0" />
            </g>
            <g
               id="g110"
               transform="matrix(1,-0.147859,-0.147859,-1,5.1993784,95.428512)">
              <path
                 d="m 65.257,-0.004 c -0.001,-5.422 4.393,-9.814 9.815,-9.815 5.418,0 9.813,4.393 9.814,9.815 C 84.883,5.418 80.49,9.81 75.072,9.81 69.65,9.811 65.254,5.418 65.257,-0.004 Z"
                 style="fill:#ff6666;fill-opacity:1;fill-rule:nonzero;stroke:#000000;stroke-width:0.989245;stroke-linecap:butt;stroke-linejoin:miter;stroke-miterlimit:8;stroke-dasharray:none;stroke-opacity:1"
                 id="path112"
                 inkscape:connector-curvature="0" />
            </g>
            <g
               id="g114"
               transform="matrix(1,-0.147859,-0.147859,-1,5.1993784,95.428512)">
              <path
                 d="m 102.423,14.118 c -0.002,-3.871 3.139,-7.012 7.011,-7.01 3.871,-0.002 7.011,3.139 7.009,7.011 0.002,3.871 -3.139,7.011 -7.01,7.009 -3.871,0.002 -7.011,-3.139 -7.01,-7.01 z"
                 style="fill:#ff6666;fill-opacity:1;fill-rule:nonzero;stroke:#000000;stroke-width:0.989245;stroke-linecap:butt;stroke-linejoin:miter;stroke-miterlimit:8;stroke-dasharray:none;stroke-opacity:1"
                 id="path116"
                 inkscape:connector-curvature="0" />
            </g>
            <g
               id="g118"
               transform="matrix(1,-0.147859,-0.147859,-1,5.1993784,95.428512)">
              <path
                 d="m 81.275,49.123 c 0,-4.414 3.58,-7.994 7.994,-7.99 4.414,-0.001 7.99,3.576 7.99,7.99 0.001,4.414 -3.576,7.99 -7.99,7.99 -4.414,10e-4 -7.994,-3.576 -7.994,-7.99 z"
                 style="fill:#ff6666;fill-opacity:1;fill-rule:nonzero;stroke:#000000;stroke-width:0.989245;stroke-linecap:butt;stroke-linejoin:miter;stroke-miterlimit:8;stroke-dasharray:none;stroke-opacity:1"
                 id="path120"
                 inkscape:connector-curvature="0" />
            </g>
            <g
               id="g122"
               transform="matrix(1,-0.147859,-0.147859,-1,5.1993784,95.428512)">
              <path
                 d="m 70.763,72.025 c 0,-4.492 3.637,-8.131 8.13,-8.131 4.492,-10e-4 8.132,3.641 8.131,8.129 0,4.492 -3.641,8.132 -8.129,8.132 -4.493,0 -8.132,-3.637 -8.132,-8.13 z"
                 style="fill:#ff6666;fill-opacity:1;fill-rule:nonzero;stroke:#000000;stroke-width:0.989245;stroke-linecap:butt;stroke-linejoin:miter;stroke-miterlimit:8;stroke-dasharray:none;stroke-opacity:1"
                 id="path124"
                 inkscape:connector-curvature="0" />
            </g>
            <g
               id="g126"
               transform="matrix(1,-0.147859,-0.147859,-1,5.1993784,95.428512)">
              <path
                 d="m 98.607,66.373 c -0.001,-4.336 3.515,-7.852 7.851,-7.852 4.335,0 7.851,3.515 7.852,7.851 0,4.336 -3.515,7.851 -7.851,7.852 -4.34,10e-4 -7.852,-3.515 -7.852,-7.851 z"
                 style="fill:#ff6666;fill-opacity:1;fill-rule:nonzero;stroke:#000000;stroke-width:0.989245;stroke-linecap:butt;stroke-linejoin:miter;stroke-miterlimit:8;stroke-dasharray:none;stroke-opacity:1"
                 id="path128"
                 inkscape:connector-curvature="0" />
            </g>
            <g
               id="g130"
               transform="matrix(1,-0.147859,-0.147859,-1,0,96)">
              <path
                 d="m 17.603,82.014 c 0,-4.492 3.638,-8.131 8.13,-8.131 4.492,0 8.132,3.641 8.132,8.133 0,4.489 -3.641,8.132 -8.13,8.132 -4.492,0 -8.132,-3.641 -8.132,-8.134 z"
                 style="fill:#0254a9;fill-opacity:1;fill-rule:nonzero;stroke:#000000;stroke-width:0.989245;stroke-linecap:butt;stroke-linejoin:miter;stroke-miterlimit:8;stroke-dasharray:none;stroke-opacity:1"
                 id="path132"
                 inkscape:connector-curvature="0" />
            </g>
            <g
               id="g138"
               transform="matrix(1,-0.147859,-0.147859,-1,0,96)">
              <path
                 d="m 40.441,62.454 c -0.001,-2.707 2.197,-4.907 4.908,-4.905 2.711,10e-4 4.907,2.196 4.905,4.907 0.003,2.711 -2.196,4.907 -4.907,4.905 -2.707,0.002 -4.907,-2.196 -4.906,-4.907 z"
                 style="fill:#0254a9;fill-opacity:1;fill-rule:nonzero;stroke:#000000;stroke-width:0.989245;stroke-linecap:butt;stroke-linejoin:miter;stroke-miterlimit:8;stroke-dasharray:none;stroke-opacity:1"
                 id="path140"
                 inkscape:connector-curvature="0" />
            </g>
          </g>
        </g>
      </g>
    </g>
  </g>
</svg>
