<?xml version="1.0" encoding="UTF-8"?>
<svg xmlns:rdf="http://www.w3.org/1999/02/22-rdf-syntax-ns#" xmlns="http://www.w3.org/2000/svg" xmlns:cc="http://creativecommons.org/ns#" xmlns:dc="http://purl.org/dc/elements/1.1/" xmlns:svg="http://www.w3.org/2000/svg" xmlns:inkscape="http://www.inkscape.org/namespaces/inkscape" xmlns:sodipodi="http://sodipodi.sourceforge.net/DTD/sodipodi-0.dtd" xmlns:ns1="http://sozi.baierouge.fr" xmlns:xlink="http://www.w3.org/1999/xlink" id="svg2" viewBox="0 0 66 66" version="1.1">
  <defs id="defs6">
    <filter id="filter3650">
      <feGaussianBlur id="feGaussianBlur3652" stdDeviation="0.38"/>
    </filter>
  </defs>
  <path id="path3634" d="m3 9v35l15 15 15-15 10 10h20v-35h-20l-10-10-15 15-15-15z" stroke="#4d4d4d" stroke-width="2" fill="none"/>
  <path id="path3610" fill="#f2f2f2" d="m3 44v-35l15 15v35l-15-15z"/>
  <path id="path3612" fill="#e6e6e6" d="m33 44v-35l-15 15v35l15-15z"/>
  <path id="path3614" fill="none" d="m32.491 44.872 10.018 9.6371v-35.014l-9.6325-10.004-0.38582 35.381z"/>
  <path id="path3616" fill="none" d="m42.498 54.502 20.005-0.18248v-34.822h-19.904l-0.10067 35.005z"/>
  <path id="path3640" fill="#fff" d="m33 44 10 10v-35l-10-10v35z"/>
  <path id="path3642" fill="#ccc" d="m43 19h20v35h-19.899l-0.101-35z"/>
  <path id="path3709" opacity=".3" fill="#5aa02c" d="m3 44l15 15c0.37444-2.0594 2.4558-2.8671 2.8302-4.9265 0.292-1.608-1.122-4.467-0.83-6.074 2.982-0.54 2.977-2.276 3-4-0.892-1.865-1.12-3.98-0.575-5.972 0.191-1.343 0.383-2.685 0.575-4.028 2.5804 5.6237 10.088 19.029 7.9994-0.10367 0.03653-2.3396-0.60966-6.4841 2.7784-6.6348 1.9226-0.12403 5.7806 2.5153 6.205-0.62578-0.84626-3.0537 2.4502-3.6182 4.0355-5.4326 0.6557-1.2164-2.8643-4.094-4.6714-5.8659-2.213-2.267-4.019-4.174-6.347-6.337-5.114 5.236-9.659 9.561-14.886 14.91-2.084 4.071-6.475-4.641-8.6873-2.136-0.3601-5.651-3.4175-3.226-3.783-2.569-0.81 1.458 8.1663 11.337 7.3563 12.795-1.6667 0-4.2939-1.0959-5 0-0.73044 1.1336-1.7947 5.0314 2.4496 6.5605 0.38298 2.829-3.1771 0.98878-3.4868 3.2375-0.3266 3.894-2.6632 1.437-3.9628 2.202z"/>
  <path id="path3725" d="m2.9586 21.507c3.7931-1.2138 10.317 20.843 15.476 16.841 1.2184-1.8737 2.6101-3.4999 5.9172-2.3897 0 0 4.378 0.7623 6.7138-0.56897 2.142-1.2208 2.8448-4.3241 2.8448-4.3241 1.6527-3.9935 6.1214 0.09386 8.0793 4.5517 0.70337 2.5707-3.9657 2.9671-2.0483 6.4862 2.0906 4.6271 6.2468 4.7504 10.81 5.6897 6.1382 1.2633 6.6379 4.1392 6.6 6.2586" stroke="#ff7f2a" stroke-width="2" fill="none"/>
  <path id="path3644" opacity=".3" filter="url(#filter3650)" d="m18 60 25-5v-19l-10-27-15 14v37z"/>
  <path id="path3729" fill="#f60" d="m43.014 44.322-0.0569 2.5603c2.2749 1.0311 9.5143 2.0814 12.119 3.7552 1.1555 1.2516 1.2344 2.3685 1.1948 3.4707l2.219-0.0569c-0.396-1.982-0.53-3.732-2.845-5.461-3.762-2.811-9.251-1.427-12.631-4.268z"/>
  <path id="path3731" fill="#ffb380" d="m2.9017 20.312 0.056897 2.0483c2.856 1.365 9.1844 15.636 12.062 16.785 1.0052 0.61445 2.0103 1.0081 3.0155 0.56896l-0.0569-2.3897c-0.27019 0.62613-1.8627 1.4252-5.2345-3.869l-3.0147-5.177c-2.6872-4.747-4.1034-7.578-6.8276-7.966z"/>
  <path id="path3744" opacity=".5" d="m45.517 19.511c-0.41289 2.9718-1.4999 3.86-1.4844 5.0019-1.0097 2.515-2.1138 9.4951 2.1428 7.3104-0.44599 3.7922 2.8072-1.0181 3.3938 1.2456-8.287 11.35-1.7777 10.134 0.81986 10.393 15.395 13.569 7.4957-1.1322 11.601-14.128 1.0897-1.8922 0.93052-3.7385 0.79967-5.9722 0.11638-1.1365 0.30848-3.1721 0.23628-4.3239-2.1046 0.08109-10.37 0.24294-13.742 0.42413 2.6545 3.3428-1.6255 7.0908-2.4013 0.73139l-1.3655-0.68276z" fill="#fd5"/>
  <g id="g3740">
    <path id="path3736" fill="#800000" d="m55 46c-2.8868-4-5.7735-5-4.8113-10 0 0 0.96225-4 4.8113-4s4.8113 4 4.8113 4c0.96225 5-1.9245 6-4.8113 10z"/>
    <path id="path3738" d="m53 33.5a2.5 2.5 0 1 1 -5 0 2.5 2.5 0 1 1 5 0z" fill="#e6e6e6" transform="matrix(.96225 0 0 1 6.4064 4)"/>
  </g>
  <metadata>
    <rdf:RDF>
      <cc:Work>
        <dc:format>image/svg+xml</dc:format>
        <dc:type rdf:resource="http://purl.org/dc/dcmitype/StillImage"/>
        <cc:license rdf:resource="http://creativecommons.org/licenses/publicdomain/"/>
        <dc:publisher>
          <cc:Agent rdf:about="http://openclipart.org/">
            <dc:title>Openclipart</dc:title>
          </cc:Agent>
        </dc:publisher>
        <dc:title>folded map</dc:title>
        <dc:date>2013-08-23T12:11:22</dc:date>
        <dc:description>a map folded</dc:description>
        <dc:source>https://openclipart.org/detail/182166/folded-map-by-crisg-182166</dc:source>
        <dc:creator>
          <cc:Agent>
            <dc:title>crisg</dc:title>
          </cc:Agent>
        </dc:creator>
        <dc:subject>
          <rdf:Bag>
            <rdf:li>application</rdf:li>
            <rdf:li>fold</rdf:li>
            <rdf:li>location</rdf:li>
            <rdf:li>map</rdf:li>
          </rdf:Bag>
        </dc:subject>
      </cc:Work>
      <cc:License rdf:about="http://creativecommons.org/licenses/publicdomain/">
        <cc:permits rdf:resource="http://creativecommons.org/ns#Reproduction"/>
        <cc:permits rdf:resource="http://creativecommons.org/ns#Distribution"/>
        <cc:permits rdf:resource="http://creativecommons.org/ns#DerivativeWorks"/>
      </cc:License>
    </rdf:RDF>
  </metadata>
</svg>