<?xml version="1.0" encoding="UTF-8" standalone="no"?>
<svg
   xmlns:dc="http://purl.org/dc/elements/1.1/"
   xmlns:cc="http://creativecommons.org/ns#"
   xmlns:rdf="http://www.w3.org/1999/02/22-rdf-syntax-ns#"
   xmlns:svg="http://www.w3.org/2000/svg"
   xmlns="http://www.w3.org/2000/svg"
   xmlns:sodipodi="http://sodipodi.sourceforge.net/DTD/sodipodi-0.dtd"
   xmlns:inkscape="http://www.inkscape.org/namespaces/inkscape"
   version="1.0"
   viewBox="0 0 400 400"
   id="svg8"
   sodipodi:docname="pi.svg"
   inkscape:version="0.92.4 5da689c313, 2019-01-14">
  <metadata
     id="metadata14">
    <rdf:RDF>
      <cc:Work
         rdf:about="">
        <dc:format>image/svg+xml</dc:format>
        <dc:type
           rdf:resource="http://purl.org/dc/dcmitype/StillImage" />
      </cc:Work>
    </rdf:RDF>
  </metadata>
  <defs
     id="defs12" />
  <sodipodi:namedview
     pagecolor="#ffffff"
     bordercolor="#666666"
     borderopacity="1"
     objecttolerance="10"
     gridtolerance="10"
     guidetolerance="10"
     inkscape:pageopacity="0"
     inkscape:pageshadow="2"
     inkscape:window-width="1920"
     inkscape:window-height="1015"
     id="namedview10"
     showgrid="false"
     inkscape:zoom="0.59"
     inkscape:cx="200"
     inkscape:cy="200"
     inkscape:window-x="0"
     inkscape:window-y="0"
     inkscape:window-maximized="1"
     inkscape:current-layer="svg8" />
  <g
     transform="matrix(1.4596263,0,0,1.4596263,-454.39674,-900.04714)"
     id="g6">
    <g
       aria-label="π"
       id="g4"
       style="stroke-width:1px">
      <path
         d="m 543.74,661.46 v 28.516 h -45.312 l -3.9062,59.375 q -1.1719,15.43 -1.1719,26.758 0,27.148 6.25,33.203 6.4453,5.8594 15.43,5.8594 18.75,0 22.266,-23.633 h 7.0312 q -6.4453,54.297 -43.359,54.297 -17.188,0 -27.734,-10.547 -10.352,-10.547 -10.352,-31.25 0,-13.672 4.1016,-57.812 l 5.2734,-56.25 h -41.406 q -4.1016,71.094 -9.9609,103.91 -5.6641,32.812 -12.695,42.383 -6.8359,9.5703 -18.75,9.5703 -8.9844,0 -15.234,-5.2734 -6.0547,-5.2734 -6.0547,-13.867 0,-8.2031 10.547,-22.461 15.43,-20.703 23.047,-42.969 7.6172,-22.461 11.523,-71.289 h -13.281 q -16.016,0 -24.609,7.2266 -8.3984,7.0312 -16.016,20.312 h -7.0312 q 5.6641,-20.898 14.648,-34.375 8.9844,-13.477 18.359,-17.578 9.5703,-4.1016 33.789,-4.1016 z"
         id="path2"
         inkscape:connector-curvature="0" />
    </g>
  </g>
</svg>
