<?xml version="1.0" encoding="UTF-8" standalone="no"?>
<svg
   xmlns:dc="http://purl.org/dc/elements/1.1/"
   xmlns:cc="http://creativecommons.org/ns#"
   xmlns:rdf="http://www.w3.org/1999/02/22-rdf-syntax-ns#"
   xmlns:svg="http://www.w3.org/2000/svg"
   xmlns="http://www.w3.org/2000/svg"
   xmlns:xlink="http://www.w3.org/1999/xlink"
   xmlns:sodipodi="http://sodipodi.sourceforge.net/DTD/sodipodi-0.dtd"
   xmlns:inkscape="http://www.inkscape.org/namespaces/inkscape"
   width="48"
   height="48"
   version="1.1"
   id="svg81"
   sodipodi:docname="plugins-home.svg"
   inkscape:version="0.92.4 5da689c313, 2019-01-14">
  <metadata
     id="metadata85">
    <rdf:RDF>
      <cc:Work
         rdf:about="">
        <dc:format>image/svg+xml</dc:format>
        <dc:type
           rdf:resource="http://purl.org/dc/dcmitype/StillImage" />
      </cc:Work>
    </rdf:RDF>
  </metadata>
  <sodipodi:namedview
     pagecolor="#ffffff"
     bordercolor="#666666"
     borderopacity="1"
     objecttolerance="10"
     gridtolerance="10"
     guidetolerance="10"
     inkscape:pageopacity="0"
     inkscape:pageshadow="2"
     inkscape:window-width="1920"
     inkscape:window-height="1015"
     id="namedview83"
     showgrid="false"
     inkscape:zoom="6.9532167"
     inkscape:cx="25.832475"
     inkscape:cy="22.365229"
     inkscape:window-x="0"
     inkscape:window-y="0"
     inkscape:window-maximized="1"
     inkscape:current-layer="svg81" />
  <defs
     id="defs53">
    <radialGradient
       id="k"
       cx="605.714"
       cy="486.648"
       r="117.143"
       fx="605.714"
       fy="486.648"
       gradientTransform="matrix(-2.77439 0 0 1.9697 112.762 -872.885)"
       gradientUnits="userSpaceOnUse"
       xlink:href="#a" />
    <linearGradient
       id="a">
      <stop
         offset="0"
         id="stop3" />
      <stop
         offset="1"
         stop-opacity="0"
         id="stop5" />
    </linearGradient>
    <radialGradient
       id="j"
       cx="605.714"
       cy="486.648"
       r="117.143"
       fx="605.714"
       fy="486.648"
       gradientTransform="matrix(2.77439 0 0 1.9697 -1891.633 -872.885)"
       gradientUnits="userSpaceOnUse"
       xlink:href="#a" />
    <linearGradient
       id="b">
      <stop
         offset="0"
         stop-opacity="0"
         id="stop9" />
      <stop
         offset=".5"
         id="stop11" />
      <stop
         offset="1"
         stop-opacity="0"
         id="stop13" />
    </linearGradient>
    <linearGradient
       id="i"
       x1="302.857"
       x2="302.857"
       y1="366.648"
       y2="609.505"
       gradientTransform="matrix(2.77439 0 0 1.9697 -1892.179 -872.885)"
       gradientUnits="userSpaceOnUse"
       xlink:href="#b" />
    <linearGradient
       id="h">
      <stop
         offset="0"
         stop-color="#fff"
         id="stop17" />
      <stop
         offset="1"
         stop-color="#fff"
         stop-opacity="0"
         id="stop19" />
    </linearGradient>
    <linearGradient
       id="g">
      <stop
         offset="0"
         stop-color="#6194cb"
         id="stop22" />
      <stop
         offset="1"
         stop-color="#729fcf"
         id="stop24" />
    </linearGradient>
    <linearGradient
       id="f">
      <stop
         offset="0"
         stop-color="#424242"
         id="stop27" />
      <stop
         offset="1"
         stop-color="#777"
         id="stop29" />
    </linearGradient>
    <linearGradient
       id="e">
      <stop
         offset="0"
         stop-color="#fff"
         id="stop32" />
      <stop
         offset="1"
         stop-color="#fff"
         stop-opacity="0"
         id="stop34" />
    </linearGradient>
    <linearGradient
       id="c">
      <stop
         offset="0"
         stop-color="#202020"
         id="stop37" />
      <stop
         offset="1"
         stop-color="#b9b9b9"
         id="stop39" />
    </linearGradient>
    <radialGradient
       id="l"
       cx="20.706"
       cy="37.518"
       r="30.905"
       fx="20.706"
       fy="37.518"
       gradientTransform="matrix(1.056 .01513 .14262 1.2516 -2.276 -10.281)"
       gradientUnits="userSpaceOnUse"
       xlink:href="#c" />
    <linearGradient
       id="d">
      <stop
         offset="0"
         stop-color="#fff"
         stop-opacity=".876"
         id="stop43" />
      <stop
         offset="1"
         stop-color="#fffffe"
         stop-opacity="0"
         id="stop45" />
    </linearGradient>
    <linearGradient
       id="n"
       x1="6.23"
       x2="9.898"
       y1="13.773"
       y2="66.834"
       gradientTransform="matrix(1.51684 0 0 .70898 -.88 -1.318)"
       gradientUnits="userSpaceOnUse"
       xlink:href="#d" />
    <linearGradient
       id="p"
       x1="13.036"
       x2="12.854"
       y1="32.567"
       y2="46.689"
       gradientTransform="matrix(1.31749 0 0 .81626 -.88 -1.318)"
       gradientUnits="userSpaceOnUse"
       xlink:href="#e" />
    <linearGradient
       id="m"
       x1="18.113"
       x2="15.515"
       y1="31.368"
       y2="6.18"
       gradientUnits="userSpaceOnUse"
       xlink:href="#f" />
    <linearGradient
       id="o"
       x1="22.176"
       x2="22.065"
       y1="36.988"
       y2="32.05"
       gradientUnits="userSpaceOnUse"
       xlink:href="#g" />
    <linearGradient
       id="q"
       x1="21.354"
       x2="20.796"
       y1="26.384"
       y2="50.771"
       gradientTransform="matrix(1.20787 0 0 .8279 -.952 -.118)"
       gradientUnits="userSpaceOnUse"
       xlink:href="#h" />
    <linearGradient
       gradientTransform="matrix(1.241935,0,0,1.241935,-5.027508,-7.208988)"
       y2="39.684914"
       x2="34.534348"
       y1="12.284524"
       x1="14.462892"
       gradientUnits="userSpaceOnUse"
       id="linearGradient3281"
       xlink:href="#h" />
    <linearGradient
       id="linearGradient3264">
      <stop
         id="stop3266"
         offset="0"
         style="stop-color:#c9c9c9;stop-opacity:1;" />
      <stop
         style="stop-color:#f8f8f8;stop-opacity:1;"
         offset="0.25"
         id="stop3276" />
      <stop
         style="stop-color:#e2e2e2;stop-opacity:1;"
         offset="0.5"
         id="stop3272" />
      <stop
         id="stop3274"
         offset="0.75"
         style="stop-color:#b0b0b0;stop-opacity:1;" />
      <stop
         id="stop3268"
         offset="1"
         style="stop-color:#c9c9c9;stop-opacity:1;" />
    </linearGradient>
  </defs>
  <g
     color="#000"
     id="g61">
    <path
       fill="url(#i)"
       d="M-1559.252 -150.697H-219.61899999999991V327.66H-1559.252z"
       opacity=".402"
       style="marker:none"
       transform="matrix(.02262 0 0 .02087 43.383 36.37)"
       id="path55" />
    <path
       fill="url(#j)"
       d="M -219.61876,-150.68038 C -219.61876,-150.68038 -219.61876,327.65041 -219.61876,327.65041 C -76.744594,328.55086 125.78146,220.48075 125.78138,88.454235 C 125.78138,-43.572302 -33.655436,-150.68036 -219.61876,-150.68038 z"
       opacity=".402"
       style="marker:none"
       transform="matrix(.02262 0 0 .02087 43.383 36.37)"
       id="path57" />
    <path
       fill="url(#k)"
       d="M -1559.2523,-150.68038 C -1559.2523,-150.68038 -1559.2523,327.65041 -1559.2523,327.65041 C -1702.1265,328.55086 -1904.6525,220.48075 -1904.6525,88.454235 C -1904.6525,-43.572302 -1745.2157,-150.68036 -1559.2523,-150.68038 z"
       opacity=".402"
       style="marker:none"
       transform="matrix(.02262 0 0 .02087 43.383 36.37)"
       id="path59" />
  </g>
  <path
     fill="url(#l)"
     stroke="url(#m)"
     stroke-linecap="round"
     stroke-linejoin="round"
     stroke-width=".998"
     d="M 4.5217805,38.687417 C 4.5435766,39.103721 4.9816854,39.520026 5.39799,39.520026 L 36.725011,39.520026 C 37.141313,39.520026 37.535823,39.103721 37.514027,38.687417 L 36.577584,11.460682 C 36.555788,11.044379 36.117687,10.628066 35.701383,10.628066 L 22.43051,10.628066 C 21.945453,10.628066 21.196037,10.312477 21.028866,9.5214338 L 20.417475,6.6283628 C 20.262006,5.8926895 19.535261,5.5904766 19.118957,5.5904766 L 4.3400975,5.5904766 C 3.9237847,5.5904766 3.5292767,6.0067807 3.5510726,6.4230849 L 4.5217805,38.687417 z"
     transform="matrix(1.00104 0 0 1.00208 -.054 -.102)"
     id="path63" />
  <path
     fill="url(#n)"
     d="M 6.068343,38.864023 C 6.0846856,39.176251 5.8874317,39.384402 5.5697582,39.280326 L 5.5697582,39.280326 C 5.2520766,39.176251 5.033027,38.968099 5.0166756,38.65587 L 4.068956,6.5913839 C 4.0526131,6.2791558 4.2341418,6.0906134 4.5463699,6.0906134 L 18.96842,6.0429196 C 19.280648,6.0429196 19.900363,6.3433923 20.101356,7.3651014 L 20.674845,10.180636 C 20.247791,9.715379 20.255652,9.7010175 20.037287,9.0239299 L 19.631192,7.7647478 C 19.412142,7.0371009 18.932991,6.9328477 18.620763,6.9328477 L 5.7329889,6.9328477 C 5.4207613,6.9328477 5.2235075,7.1409999 5.2398583,7.4532364 L 6.1778636,38.968099 L 6.068343,38.864023 z"
     color="#000"
     display="block"
     opacity=".451"
     style="marker:none"
     transform="matrix(.99356 0 0 .99205 -.042 .005)"
     id="path65" />
  <path
     fill="#729fcf"
     stroke="#000"
     stroke-linecap="round"
     stroke-linejoin="round"
     d="M5.0421736 18.5625L35.489104 18.5625M4.9806965 12.5625L35.488057 12.5625M5.2265927 22.5625L35.492173 22.5625M5.3861577 32.5625L35.494881 32.5625M5.5091398 34.5625L35.496893 34.5625M5.0421736 16.5625L35.489104 16.5625M5.1958537 20.5625L35.491649 20.5625M5.0114345 14.5625L35.48858 14.5625"
     color="#000"
     opacity=".114"
     style="marker:none"
     id="path67" />
  <path
     fill="#fff"
     fill-opacity=".508"
     d="M 42.417183,8.5151772 C 42.422267,8.4180642 42.289022,8.268189 42.182066,8.2681716 L 29.150665,8.2660527 C 29.150665,8.2660527 30.062379,8.8540072 31.352477,8.8622963 L 42.405974,8.9333167 C 42.41706,8.7215889 42.408695,8.6772845 42.417183,8.5151772 z"
     transform="matrix(1.0534 0 .05515 1.04007 -9.163 2.459)"
     id="path69" />
  <path
     fill="#729fcf"
     stroke="#000"
     stroke-linecap="round"
     stroke-linejoin="round"
     d="M5.2265927 24.5625L35.492173 24.5625M5.3246666 30.5625L35.493876 30.5625M5.3246666 28.5625L35.493876 28.5625M5.5091398 36.5625L35.496893 36.5625M5.2880638 26.5625L35.493184 26.5625M4.8737534 8.5624999L19.657487 8.5624999M4.9220969 10.5625L20.202912 10.5625"
     color="#000"
     opacity=".114"
     style="marker:none"
     id="path71" />
  <path
     fill="url(#o)"
     stroke="#3465a4"
     stroke-linejoin="round"
     stroke-width="1.005"
     d="M 39.783532,39.51062 C 40.927426,39.466556 41.746608,38.414321 41.830567,37.189615 C 42.622354,25.640928 43.489927,15.957666 43.489927,15.957666 C 43.562082,15.710182 43.322016,15.462699 43.009787,15.462699 L 8.6386304,15.462699 C 8.6386304,15.462699 6.7883113,37.329591 6.7883113,37.329591 C 6.6737562,38.311657 6.3223038,39.134309 5.2384755,39.513304 L 39.783532,39.51062 z"
     color="#000"
     display="block"
     style="marker:none"
     transform="matrix(.9931 0 0 .9979 .298 .07)"
     id="path73" />
  <path
     fill="none"
     stroke="url(#p)"
     stroke-linecap="round"
     stroke-width="1.005"
     d="M 9.6202444,16.463921 L 42.411343,16.528735 L 40.837297,36.530714 C 40.752975,37.602225 40.386619,37.958929 38.964641,37.958929 C 37.093139,37.958929 10.286673,37.926522 7.569899,37.926522 C 7.8034973,37.605711 7.9036547,36.937899 7.9049953,36.92191 L 9.6202444,16.463921 z"
     opacity=".466"
     transform="matrix(.9931 0 0 .9979 .298 .07)"
     id="path75" />
  <path
     fill="#fff"
     fill-opacity=".089"
     fill-rule="evenodd"
     d="M 9.6202481,16.223182 L 8.4536014,31.866453 C 8.4536014,31.866453 16.749756,27.718375 27.119949,27.718375 C 37.490142,27.718375 42.675239,16.223182 42.675239,16.223182 L 9.6202481,16.223182 z"
     transform="matrix(.9931 0 0 .9979 .298 .07)"
     id="path77" />
  <g
     transform="matrix(0.40082337,0,-0.0350675,0.40082337,17.023892,19.338919)"
     id="layer1">
    <path
       inkscape:connector-curvature="0"
       id="path3243"
       d="M 23.25,0.46875 C 22.784561,0.50059628 22.332166,0.57268469 21.875,0.625 H 21.84375 L 20.75,6.59375 C 18.967275,6.9997399 17.290091,7.6887415 15.78125,8.625 L 10.875,5.09375 C 9.5487118,6.1234406 8.3418016,7.3243453 7.28125,8.625 l 3.40625,4.96875 c -1.0342329,1.580515 -1.8119683,3.385224 -2.25,5.28125 -7.5e-5,0.009 -6.09e-5,0.02969 0,0.03125 L 2.5,19.84375 c -0.1085533,0.886633 -0.15625,1.802939 -0.15625,2.71875 10e-8,0.7493 0.020689,1.488589 0.09375,2.21875 l 5.9375,1.0625 c 0.422279,2.061892 1.2244587,3.987512 2.34375,5.6875 L 7.1875,36.375 c 1.0113261,1.255518 2.1788917,2.398616 3.4375,3.40625 l 5,-3.4375 c 1.747433,1.114717 3.698083,1.896374 5.8125,2.28125 l 0.9375,5.90625 c 0.666183,0.06064 1.349349,0.0625 2.03125,0.0625 0.962685,-10e-7 1.882237,-0.03648 2.8125,-0.15625 l 1.125,-6.03125 C 30.351311,37.906649 32.237219,37.03996 33.875,35.875 l 4.8125,3.5 c 1.248028,-1.061797 2.389277,-2.282256 3.375,-3.59375 l -3.5,-5.0625 c 0.947853,-1.63699 1.604629,-3.443141 1.9375,-5.375 l 5.90625,-0.9375 c 0.05179,-0.616346 0.0625,-1.214087 0.0625,-1.84375 0,-1.094214 -0.127182,-2.167084 -0.28125,-3.21875 l -6,-1.09375 C 39.717306,16.513776 38.945824,14.893898 37.96875,13.4375 L 41.5,8.59375 C 40.405427,7.2551429 39.156822,6.0185688 37.78125,4.96875 l -5.09375,3.5 C 31.223504,7.6029126 29.648037,6.9385679 27.9375,6.5625 L 27,0.625 C 26.146701,0.52462461 25.286379,0.46875 24.40625,0.46875 c -0.237872,10e-9 -0.482684,-0.007485 -0.71875,0 -0.115083,0.003649 -0.228966,-0.006695 -0.34375,0 -0.03109,0.001813 -0.06272,-0.002123 -0.09375,0 z m 0.8125,15.1875 c 0.114166,-0.0058 0.228152,0 0.34375,0 3.699127,0 6.71875,3.019624 6.71875,6.71875 1e-6,3.699126 -3.019624,6.6875 -6.71875,6.6875 -3.699125,1e-6 -6.6875,-2.988374 -6.6875,-6.6875 1e-6,-3.583527 2.8046,-6.539158 6.34375,-6.71875 z"
       style="color:#000000;display:inline;overflow:visible;visibility:visible;opacity:1;fill:url(#linearGradient3281);fill-opacity:1.0;fill-rule:nonzero;stroke:none;stroke-width:1;stroke-linecap:butt;stroke-linejoin:miter;stroke-miterlimit:4;stroke-dasharray:none;stroke-dashoffset:0;stroke-opacity:1;marker:none;marker-start:none;marker-mid:none;marker-end:none" />
    <path
       inkscape:connector-curvature="0"
       transform="matrix(0.606518,0,0,0.606518,10.15021,7.936835)"
       d="m 36.239223,23.781593 a 12.727922,12.727922 0 1 1 -25.455844,0 12.727922,12.727922 0 1 1 25.455844,0 z"
       id="path3283"
       style="color:#000000;display:inline;overflow:visible;visibility:visible;opacity:0.64772728;fill:none;fill-opacity:1;fill-rule:nonzero;stroke:#ffffff;stroke-width:1.64875567;stroke-linecap:butt;stroke-linejoin:miter;stroke-miterlimit:4;stroke-dasharray:none;stroke-dashoffset:0;stroke-opacity:1;marker:none;marker-start:none;marker-mid:none;marker-end:none" />
  </g>
</svg>
