<?xml version="1.0" encoding="UTF-8" standalone="no"?>
<!-- Created with Inkscape (http://www.inkscape.org/) -->

<svg
   xmlns:dc="http://purl.org/dc/elements/1.1/"
   xmlns:cc="http://creativecommons.org/ns#"
   xmlns:rdf="http://www.w3.org/1999/02/22-rdf-syntax-ns#"
   xmlns:svg="http://www.w3.org/2000/svg"
   xmlns="http://www.w3.org/2000/svg"
   xmlns:sodipodi="http://sodipodi.sourceforge.net/DTD/sodipodi-0.dtd"
   xmlns:inkscape="http://www.inkscape.org/namespaces/inkscape"
   width="546.13336"
   height="546.13336"
   viewBox="0 0 511.99999 511.99999"
   id="svg2"
   version="1.1"
   inkscape:version="0.92.0 r15299"
   sodipodi:docname="select-none.svg">
  <defs
     id="defs4" />
  <sodipodi:namedview
     id="base"
     pagecolor="#ffffff"
     bordercolor="#666666"
     borderopacity="1.0"
     inkscape:pageopacity="0.0"
     inkscape:pageshadow="2"
     inkscape:zoom="0.7"
     inkscape:cx="-36.037161"
     inkscape:cy="93.091627"
     inkscape:document-units="px"
     inkscape:current-layer="layer1"
     showgrid="false"
     units="px"
     inkscape:window-width="1920"
     inkscape:window-height="1018"
     inkscape:window-x="-8"
     inkscape:window-y="-8"
     inkscape:window-maximized="1" />
  <metadata
     id="metadata7">
    <rdf:RDF>
      <cc:Work
         rdf:about="">
        <dc:format>image/svg+xml</dc:format>
        <dc:type
           rdf:resource="http://purl.org/dc/dcmitype/StillImage" />
        <dc:title></dc:title>
      </cc:Work>
    </rdf:RDF>
  </metadata>
  <g
     inkscape:label="Calque 1"
     inkscape:groupmode="layer"
     id="layer1"
     transform="translate(0,-540.3622)">
    <path
       inkscape:connector-curvature="0"
       id="rect2816"
       style="fill:none;stroke:#000000;stroke-width:28.07408714;stroke-linejoin:round;stroke-miterlimit:4;stroke-dasharray:none"
       d="m 36.287958,558.26504 h 47.113009 c 11.403138,0 20.582633,8.3605 20.582633,18.74582 v 50.78853 c 0,10.38514 -9.180253,18.74582 -20.582622,18.74582 h -47.11302 c -11.403131,0 -20.582647,-8.36049 -20.582647,-18.74582 v -50.78853 c 0,-10.38512 9.180245,-18.74582 20.582647,-18.74582 z" />
    <rect
       ry="21.137453"
       y="567.41638"
       x="149.30235"
       height="65.862198"
       width="363.95044"
       id="rect3498"
       style="stroke-width:1.17585063" />
    <rect
       ry="21.137453"
       y="763.16882"
       x="149.30235"
       height="65.862198"
       width="363.95044"
       id="rect3498-0"
       style="stroke-width:1.17585063" />
    <rect
       ry="21.137453"
       y="958.9212"
       x="149.30235"
       height="65.862198"
       width="363.95044"
       id="rect3498-2"
       style="stroke-width:1.17585063" />
    <path
       inkscape:connector-curvature="0"
       id="rect2816-1"
       style="fill:none;stroke:#000000;stroke-width:28.07408714;stroke-linejoin:round;stroke-miterlimit:4;stroke-dasharray:none"
       d="m 36.28796,754.0175 h 47.113018 c 11.403116,0 20.582612,8.3605 20.582612,18.74579 v 50.78857 c 0,10.3851 -9.180232,18.74579 -20.582612,18.74579 H 36.28796 c -11.403132,0 -20.582646,-8.36049 -20.582646,-18.74579 v -50.78857 c 0,-10.38512 9.180243,-18.74579 20.582646,-18.74579 z" />
    <path
       inkscape:connector-curvature="0"
       id="rect2816-5"
       style="fill:none;stroke:#000000;stroke-width:28.07408714;stroke-linejoin:round;stroke-miterlimit:4;stroke-dasharray:none"
       d="m 36.28796,950.79879 h 47.113018 c 11.403116,0 20.582612,8.36051 20.582612,18.74579 v 50.78862 c 0,10.385 -9.180232,18.7457 -20.582612,18.7457 H 36.28796 c -11.403132,0 -20.582646,-8.3605 -20.582646,-18.7457 v -50.78862 c 0,-10.3851 9.180243,-18.74579 20.582646,-18.74579 z" />
  </g>
</svg>
